/* XPM */
static char * bottom_active_xpm[] = {
"3 5 4 1",
" 	c None",
".	c #E2DEC6",
"+	c #A19D8C",
"@	c #000000",
"...",
"...",
"...",
"+++",
"@@@"};
