/* XPM */
static char * left_active_xpm[] = {
"4 3 4 1",
" 	c None",
".	c #000000",
"+	c #FFFFFF",
"@	c #E2DEC6",
".+@@",
".+@@",
".+@@"};
