/* XPM */
static char * right_active_xpm[] = {
"4 3 5 1",
" 	c None",
".	c #E2DEC8",
"+	c #E2DEC6",
"@	c #A19D8C",
"#	c #000000",
".+@#",
"++@#",
"++@#"};
