/* XPM */
static char * bottom_right_active_xpm[] = {
"11 11 33 1",
" 	c None",
".	c #000000",
"+	c #ECECEC",
"@	c #D1D1D1",
"#	c #919191",
"$	c #EFEFEF",
"%	c #F8F8F8",
"&	c #F2F2F2",
"*	c #CECECE",
"=	c #929292",
"-	c #F9F9F9",
";	c #F5F5F5",
">	c #EAEAEA",
",	c #C9C9C9",
"'	c #909090",
")	c #A3A3A3",
"!	c #DCDCDC",
"~	c #BCBCBC",
"{	c #D4D4D4",
"]	c #B4B4B4",
"^	c #D9D9D9",
"/	c #B0B0B0",
"(	c #EDEDED",
"_	c #D5D5D5",
":	c #ADADAD",
"<	c #F0F0F0",
"[	c #F3F3F3",
"}	c #D0D0D0",
"|	c #ABABAB",
"1	c #D7D7D7",
"2	c #D2D2D2",
"3	c #AAAAAA",
"4	c #939393",
"     .++@#.",
"    .$%&*=.",
"   .$-;>,'.",
"  .$-;)!~'.",
" .$-;).{]'.",
".$-;)..^/'.",
"(%;)..._:'.",
"<[>!{^_}|'.",
"12,~]/:|3'.",
"#4''''''''.",
"..........."};
