/* XPM */
static char * close_active_xpm[] = {
"11 15 45 1",
" 	c None",
".	c #020202",
"+	c #2E2E2E",
"@	c #6A6A6A",
"#	c #969696",
"$	c #AEAEAE",
"%	c #C2C2C2",
"&	c #CACACA",
"*	c #D2D2D2",
"=	c #3E3E3E",
"-	c #DEDEDE",
";	c #424242",
">	c #868686",
",	c #E2E2E2",
"'	c #262626",
")	c #E6E6E6",
"!	c #4E4E4E",
"~	c #F2F2F2",
"{	c #525252",
"]	c #565656",
"^	c #A2A2A2",
"/	c #6E6E6E",
"(	c #B2B2B2",
"_	c #727272",
":	c #5A5A5A",
"<	c #B6B6B6",
"[	c #DADADA",
"}	c #EAEAEA",
"|	c #9E9E9E",
"1	c #8A8A8A",
"2	c #828282",
"3	c #626262",
"4	c #BABABA",
"5	c #929292",
"6	c #767676",
"7	c #AAAAAA",
"8	c #EEEEEE",
"9	c #F6F6F6",
"0	c #BEBEBE",
"a	c #9A9A9A",
"b	c #C6C6C6",
"c	c #323232",
"d	c #666666",
"e	c #7A7A7A",
"f	c #8E8E8E",
"}}),---,)}}",
"8}[&4<4&[}~",
"~,be'.'eb,~",
"~&.5[9[5.&9",
"~.<9~~~8(.~",
"|e~>3}]2)/|",
"c%}}._.},^c",
".&),^.7}*#.",
"+#0[.@.*ad+",
"#{a:!0{36=#",
")./>f1e1d.)",
"-*.;d6d=.*-",
"&-}#+.+#}-&",
"(0*}8~8}*0(",
"|^$4%b%4$^|"};
