/* XPM */
static char * close_pressed_xpm[] = {
"11 15 49 1",
" 	c None",
".	c #020202",
"+	c #484E71",
"@	c #7A7A7A",
"#	c #94A4CA",
"$	c #BABABA",
"%	c #1A1A26",
"&	c #CACACA",
"*	c #D2D2D2",
"=	c #323232",
"-	c #DEDEDE",
";	c #626A96",
">	c #7680A2",
",	c #7A88B2",
"'	c #E2E2E2",
")	c #7E8AB6",
"!	c #8A99C1",
"~	c #323A4A",
"{	c #F3F3F3",
"]	c #4A5276",
"^	c #A2A2A2",
"/	c #25262B",
"(	c #9AAAD2",
"_	c #8A9AB6",
":	c #B0B0B0",
"<	c #E6E6E6",
"[	c #BEBEBE",
"}	c #4E5670",
"|	c #404464",
"1	c #2A2E42",
"2	c #575F87",
"3	c #969696",
"4	c #30344B",
"5	c #B2C2E2",
"6	c #9E9E9E",
"7	c #565E73",
"8	c #EAEAEA",
"9	c #2E2E2E",
"0	c #666E9A",
"a	c #DADADA",
"b	c #949ECA",
"c	c #C4C4C4",
"d	c #A6B6DE",
"e	c #393D59",
"f	c #B6B6B6",
"g	c #6C74A0",
"h	c #EEEEEE",
"i	c #566282",
"j	c #8E9EC2",
"88<'---'<88",
"h8a&$f$&a8{",
"{'c@/./@c'{",
"{&.44e+|.&{",
"{.4eee|+i.{",
"64|/%|%1;|6",
"=|||.1.gg,=",
".]++~.})0#.",
"9i22.4.g)_9",
"3}ge1>~7(73",
"<.>!!bb5_.<",
"-*.7jd#7.*-",
"&-839.938-&",
":[*8h{h8*[:",
"6^:$ccc$:^6"};
