/* XPM */
static char * title_4_active_xpm[] = {
"11 19 49 1",
" 	c None",
".	c #020202",
"+	c #AFAFAF",
"@	c #747474",
"#	c #374270",
"$	c #BABABA",
"%	c #C8C8C8",
"&	c #2A2E58",
"*	c #D8D8D8",
"=	c #262626",
"-	c #E6E6E6",
";	c #666666",
">	c #8A8A8A",
",	c #EAEAEA",
"'	c #1E1E1E",
")	c #EEEEEE",
"!	c #4B5986",
"~	c #9F9F9F",
"{	c #141426",
"]	c #F2F2F2",
"^	c #6C7AAC",
"/	c #434E7D",
"(	c #F6F6F6",
"_	c #6A6A6A",
":	c #333E6B",
"<	c #7A8AC2",
"[	c #0E0E1E",
"}	c #2A2A2A",
"|	c #54628E",
"1	c #FAFAFA",
"2	c #090A0F",
"3	c #1E2241",
"4	c #1E1E3C",
"5	c #2E3662",
"6	c #929292",
"7	c #AAAAAA",
"8	c #B6B6B6",
"9	c #3B4874",
"0	c #E2E2E2",
"a	c #C2C2C2",
"b	c #5C6A96",
"c	c #22284E",
"d	c #FEFEFE",
"e	c #5E6696",
"f	c #161A2E",
"g	c #CECECE",
"h	c #2C325C",
"i	c #7A7A7A",
"j	c #455280",
"...........",
"-----------",
"$aag*-,,,,,",
"..'_8*)]]]]",
"|!932>-(111",
"<e!9h{61ddd",
"^^|/:c2-ddd",
"bb|!9hf>ddd",
"||!j#54}ddd",
"!!!/#h3.ddd",
"jjj9:h4=]((",
"//9#5&{@0--",
"9#:5&32$***",
"55h&3[i%%%%",
"&&cf2@$$$$$",
"..';78+++++",
"$$8++~~~~~~",
"66666666666",
"..........."};
