/* XPM */
static char * title_3_active_xpm[] = {
"10 19 34 1",
" 	c None",
".	c #000000",
"+	c #E5E5E5",
"@	c #BBBBBB",
"#	c #6370A0",
"$	c #6073A1",
"%	c #6373A0",
"&	c #6172A2",
"*	c #798BC0",
"=	c #6F7DAE",
"-	c #6F7BAE",
";	c #707CAB",
">	c #707EAB",
",	c #5F6A96",
"'	c #5F6996",
")	c #56648D",
"!	c #56628D",
"~	c #4C5A85",
"{	c #4D5986",
"]	c #465381",
"^	c #465481",
"/	c #444F7B",
"(	c #434E7E",
"_	c #43507E",
":	c #3A4775",
"<	c #3A4575",
"[	c #3C4675",
"}	c #303865",
"|	c #313866",
"1	c #292D58",
"2	c #282C57",
"3	c #2A2E57",
"4	c #B8B8B8",
"5	c #919191",
"..........",
"++++++++++",
"@@@@@@@@@@",
"..........",
"#$%&&&&&&&",
"**********",
"=-;>>>>>>>",
",'',,,,,,,",
")!!!!!!!!!",
"~~~{{{{{{{",
"]^^^^^^^^^",
"/(________",
":<[[[[[[[[",
"}}||||||||",
"1233333333",
"..........",
"4444444444",
"5555555555",
".........."};
