/* XPM */
static char * title_4_inactive_xpm[] = {
"11 19 49 1",
" 	c None",
".	c #020202",
"+	c #666666",
"@	c #929292",
"#	c #B2B2B2",
"$	c #424242",
"%	c #C2C2C2",
"&	c #2E2E2E",
"*	c #D6D6D6",
"=	c #E6E6E6",
"-	c #222222",
";	c #EAEAEA",
">	c #4A4A4A",
",	c #8B8B8B",
"'	c #AEAEAE",
")	c #1E1E1E",
"!	c #EEEEEE",
"~	c #525252",
"{	c #181818",
"]	c #9E9E9E",
"^	c #727272",
"/	c #F2F2F2",
"(	c #5E5E5E",
"_	c #F6F6F6",
":	c #353535",
"<	c #0B0B0B",
"[	c #FAFAFA",
"}	c #B6B6B6",
"|	c #3E3E3E",
"1	c #AAAAAA",
"2	c #7A7A7A",
"3	c #CBCBCB",
"4	c #565656",
"5	c #E2E2E2",
"6	c #292929",
"7	c #6E6E6E",
"8	c #BABABA",
"9	c #FEFEFE",
"0	c #464646",
"a	c #6A6A6A",
"b	c #626262",
"c	c #5A5A5A",
"d	c #767676",
"e	c #DADADA",
"f	c #969696",
"g	c #C6C6C6",
"h	c #4E4E4E",
"i	c #BEBEBE",
"j	c #A2A2A2",
"...........",
"===========",
"8%%3e=;;;;;",
"..)a}e!////",
"^+46<,=_[[[",
"]2ac|{f[999",
",,^b~:<=999",
"2d^+~>-,999",
"^7ab40&6999",
"a++(~0:.999",
"bbbch$66/__",
"((c~0|)^5==",
"44h0$&<i***",
">0$$&{2gg33",
"$|:-<d88888",
"..)+1}#''''",
"88}#'j]]]]]",
"@@@@@@@@@@@",
"..........."};
