/* XPM */
static char * hide_inactive_xpm[] = {
"23 20 23 1",
" 	c None",
".	c #FFFFFF",
"+	c #EEEEEE",
"@	c #EDEDED",
"#	c #ECECEC",
"$	c #EAEAEA",
"%	c #E9E9E9",
"&	c #E8E8E8",
"*	c #E7E7E7",
"=	c #E5E5E5",
"-	c #E4E4E4",
";	c #E2E2E2",
">	c #C1C1C1",
",	c #969696",
"'	c #E1E1E1",
")	c #E0E0E0",
"!	c #DFDFDF",
"~	c #BFBFBF",
"{	c #959595",
"]	c #DDDDDD",
"^	c #DCDCDC",
"/	c #DBDBDB",
"(	c #DADADA",
".......................",
"+++++++++++++++++++++++",
"@@@@@@@@@@@@@@@@@@@@@@@",
"#######################",
"$$$$$$$$$$$$$$$$$$$$$$$",
"%%%%%%%%%%%%%%%%%%%%%%%",
"&&&&&&&&&&&&&&&&&&&&&&&",
"***********************",
"***********************",
"=======================",
"-----------------------",
";;;;;;>,,,,,,,,>;;;;;;;",
"'''''',,,,,,,,,,'''''''",
")))))),,,,,,,,,,)))))))",
"!!!!!!~{{{{{{{{~!!!!!!!",
"]]]]]]]]]]]]]]]]]]]]]]]",
"^^^^^^^^^^^^^^^^^^^^^^^",
"^^^^^^^^^^^^^^^^^^^^^^^",
"///////////////////////",
"((((((((((((((((((((((("};
