/* XPM */
static char * hide_pressed_xpm[] = {
"23 20 4 1",
" 	c None",
".	c #C9C9C9",
"+	c #8C8C8C",
"@	c #3D3D3D",
".......................",
".......................",
".......................",
".......................",
".......................",
".......................",
".......................",
".......................",
".......................",
".......................",
".......................",
"......+@@@@@@@@+.......",
"......@@@@@@@@@@.......",
"......@@@@@@@@@@.......",
"......+@@@@@@@@+.......",
".......................",
".......................",
".......................",
".......................",
"......................."};
