/* XPM */
static char * shade_active_xpm[] = {
"18 20 54 1",
" 	c None",
".	c #FFFFFF",
"+	c #A1A1A1",
"@	c #B2B2B2",
"#	c #B7B7B7",
"$	c #BBBBBB",
"%	c #C0C0C0",
"&	c #C4C4C4",
"*	c #C9C9C9",
"=	c #CDCDCD",
"-	c #D2D2D2",
";	c #D6D6D6",
">	c #DBDBDB",
",	c #DFDFDF",
"'	c #E4E4E4",
")	c #E8E8E8",
"!	c #EDEDED",
"~	c #F1F1F1",
"{	c #F6F6F6",
"]	c #FAFAFA",
"^	c #CBCBCB",
"/	c #CCCCCC",
"(	c #CECECE",
"_	c #CFCFCF",
":	c #D0D0D0",
"<	c #D3D3D3",
"[	c #D5D5D5",
"}	c #D8D8D8",
"|	c #D9D9D9",
"1	c #DCDCDC",
"2	c #DDDDDD",
"3	c #E0E0E0",
"4	c #E2E2E2",
"5	c #E3E3E3",
"6	c #E5E5E5",
"7	c #E6E6E6",
"8	c #404040",
"9	c #434343",
"0	c #444444",
"a	c #E7E7E7",
"b	c #414141",
"c	c #454545",
"d	c #E9E9E9",
"e	c #424242",
"f	c #EAEAEA",
"g	c #ECECEC",
"h	c #EFEFEF",
"i	c #F0F0F0",
"j	c #F2F2F2",
"k	c #F3F3F3",
"l	c #F4F4F4",
"m	c #F7F7F7",
"n	c #F9F9F9",
"o	c #FCFCFC",
".................+",
"@#$%&*=-;>,')!~{]+",
"^/(_:-<[;}|>12,34+",
"/(_:-<[;}|>12,345+",
"(_:-<[;}|>12,3456+",
"_:-<[;}|>12,34567+",
":-88;}|>12904567a+",
"-88bb|>12900c67ad+",
"<8bbee12900cc7adf+",
"[;beee9900cc7adfg+",
"}|>e9900cccadfg!h+",
"|>12900cccadfg!hi+",
">12,30cccadfg!hij+",
"12,345ccadfg!hijk+",
"2,34567adfg!hijkl+",
",34567adfg!hijkl{+",
"34567adfg!hijkl{m+",
"4567adfg!hijkl{mn+",
"567adfg!hijkl{mn]+",
"67adfg!hijkl{mn]o+"};
