/* XPM */
static char * title_2_inactive_xpm[] = {
"6 22 24 1",
" 	c None",
".	c #000000",
"+	c #CBCBCB",
"@	c #FFFFFF",
"#	c #ECECEC",
"$	c #EBEBEB",
"%	c #EAEAEA",
"&	c #E9E9E9",
"*	c #E8E8E8",
"=	c #E7E7E7",
"-	c #E6E6E6",
";	c #E5E5E5",
">	c #E4E4E4",
",	c #E3E3E3",
"'	c #E1E1E1",
")	c #E0E0E0",
"!	c #DFDFDF",
"~	c #DEDEDE",
"{	c #DDDDDD",
"]	c #DCDCDC",
"^	c #DBDBDB",
"/	c #DADADA",
"(	c #D9D9D9",
"_	c #8F8F8F",
"......",
"+@@@@@",
"+#####",
"+$$$$$",
"+%%%%%",
"+&&&&&",
"+*****",
"+=====",
"+-----",
"+;;;;;",
"+>>>>>",
"+,,,,,",
"+'''''",
"+)))))",
"+!!!!!",
"+~~~~~",
"+{{{{{",
"+]]]]]",
"+^^^^^",
"+/////",
"+(((((",
"______"};
