/* XPM */
static char * title_4_active_xpm[] = {
"9 22 27 1",
" 	c None",
".	c #000000",
"+	c #96AAD6",
"@	c #8FA4D4",
"#	c #283C67",
"$	c #4464AC",
"%	c #4363AB",
"&	c #4464AB",
"*	c #4565AC",
"=	c #4768AE",
"-	c #4667AD",
";	c #4F6EB2",
">	c #4E6DB1",
",	c #5774B6",
"'	c #5774B5",
")	c #5673B5",
"!	c #5D78B9",
"~	c #5D78B8",
"{	c #5D79B9",
"]	c #5C78B8",
"^	c #637FBB",
"/	c #6480BB",
"(	c #728AC2",
"_	c #7B93C8",
":	c #8EA3D2",
"<	c #A1B3DA",
"[	c #0B0B0C",
".........",
"+++++++@#",
"$$$$$$$%#",
"$$$$$$$%#",
"$$$$$$&%#",
"$$&$$&*%#",
"$$*$$*$%#",
"$$$$$$$%#",
"$$$$$$$%#",
"$$$$$$&%#",
"$$&$$&*%#",
"$$*$$*$%#",
"=======-#",
";;;;;;;>#",
",,,,,,')#",
"!!~!!~{]#",
"^^/^^/^^#",
"((((((((#",
"________#",
"::::::::#",
"<<<<<<<<#",
"[[[[[[[[#"};
