/* XPM */
static char * title_3_active_xpm[] = {
"3 22 20 1",
" 	c None",
".	c #000000",
"+	c #96AAD6",
"@	c #4464AC",
"#	c #4464AB",
"$	c #4565AC",
"%	c #4768AE",
"&	c #4F6EB2",
"*	c #5774B6",
"=	c #5774B5",
"-	c #5D78B9",
";	c #5D78B8",
">	c #5D79B9",
",	c #637FBB",
"'	c #6480BB",
")	c #728AC2",
"!	c #7B93C8",
"~	c #8EA3D2",
"{	c #A1B3DA",
"]	c #0B0B0C",
"...",
"+++",
"@@@",
"@@@",
"@@#",
"@#$",
"@$@",
"@@@",
"@@@",
"@@#",
"@#$",
"@$@",
"%%%",
"&&&",
"**=",
"-;>",
",',",
")))",
"!!!",
"~~~",
"{{{",
"]]]"};
