/* XPM */
static char * title_4_inactive_xpm[] = {
"9 22 22 1",
" 	c None",
".	c #000000",
"+	c #FFFFFF",
"@	c #CBCBCB",
"#	c #EEEEEE",
"$	c #EDEDED",
"%	c #ECECEC",
"&	c #EAEAEA",
"*	c #E9E9E9",
"=	c #E8E8E8",
"-	c #E7E7E7",
";	c #E5E5E5",
">	c #E4E4E4",
",	c #E2E2E2",
"'	c #E1E1E1",
")	c #E0E0E0",
"!	c #DFDFDF",
"~	c #DDDDDD",
"{	c #DCDCDC",
"]	c #DBDBDB",
"^	c #DADADA",
"/	c #8F8F8F",
".........",
"++++++++@",
"########@",
"$$$$$$$$@",
"%%%%%%%%@",
"&&&&&&&&@",
"********@",
"========@",
"--------@",
"--------@",
";;;;;;;;@",
">>>>>>>>@",
",,,,,,,,@",
"''''''''@",
"))))))))@",
"!!!!!!!!@",
"~~~~~~~~@",
"{{{{{{{{@",
"{{{{{{{{@",
"]]]]]]]]@",
"^^^^^^^^@",
"/////////"};
