/* XPM */
static char *hide-pressed[] = {
/* width height num_colors chars_per_pixel */
"    16    19      256            2",
/* colors */
"`` c #4a4d4a",
"`. c #313031",
"`# c #f6f1ed",
"`a c #f0ece5",
"`b c #bebbb6",
"`c c #7f7e66",
"`d c #878579",
"`e c #ecebe1",
"`f c #d9e5ca",
"`g c #dbe5cc",
"`h c #eeebe3",
"`i c #e9e5dc",
"`j c #85837b",
"`k c #fbfb49",
"`l c #807f3c",
"`m c #d8e0c9",
"`n c #78c75a",
"`o c #36b60d",
"`p c #2db500",
"`q c #2fb600",
"`r c #3eb912",
"`s c #86cc66",
"`t c #dee2cf",
"`u c #e2dfd4",
"`v c #868569",
"`w c #fcf94c",
"`x c #6d7628",
"`y c #3db714",
"`z c #30b600",
"`A c #33b900",
"`B c #36ba00",
"`C c #38bc00",
"`D c #37bc00",
"`E c #4fc01f",
"`F c #cfdbbc",
"`G c #dcd8cb",
"`H c #8c8b5c",
"`I c #fcf44c",
"`J c #5f6d13",
"`K c #33b800",
"`L c #3cbe00",
"`M c #3fc000",
"`N c #41c200",
"`O c #40c200",
"`P c #3ec000",
"`Q c #5dc42a",
"`R c #dad7c8",
"`S c #d6d2c3",
"`T c #919054",
"`U c #fced4d",
"`V c #6d6b15",
"`W c #3abd00",
"`X c #3fc100",
"`Y c #44c400",
"`Z c #47c600",
"`0 c #4ac800",
"`1 c #46bd00",
"`2 c #369002",
"`3 c #317909",
"`4 c #2d6e0b",
"`5 c #81916d",
"`6 c #d0ccba",
"`7 c #97964e",
"`8 c #fee54e",
".` c #937f1a",
".. c #39a900",
".# c #43bb00",
".a c #399701",
".b c #3a770d",
".c c #627922",
".d c #968a3d",
".e c #d2b755",
".f c #f7ce5a",
".g c #ffc94b",
".h c #b9891f",
".i c #7b7769",
".j c #c9c6b2",
".k c #979149",
".l c #ffdd4f",
".m c #edc526",
".n c #82761a",
".o c #9a8c3a",
".p c #cdb753",
".q c #f9d661",
".r c #ffd061",
".s c #ffc554",
".t c #febe3e",
".u c #feb92c",
".v c #feb520",
".w c #f8ad17",
".x c #705828",
".y c #c2c0a9",
".z c #8d803e",
".A c #ffd44a",
".B c #fecb24",
".C c #ffcb29",
".D c #ffc93f",
".E c #fec33c",
".F c #febe2e",
".G c #feba21",
".H c #feb71a",
".I c #fdb318",
".J c #fdaf16",
".K c #feac14",
".L c #f9a613",
".M c #795a22",
".N c #bcbaa1",
".O c #6b6446",
".P c #f7c132",
".Q c #fec220",
".R c #febf1e",
".S c #febc1c",
".T c #fdb81b",
".U c #fbb319",
".V c #f5ac17",
".W c #e79f14",
".X c #b57b0f",
".Y c #97650b",
".Z c #e1920f",
".0 c #f79d0f",
".1 c #705221",
".2 c #b6b398",
".3 c #a09d85",
".4 c #68541e",
".5 c #e7aa19",
".6 c #f5b119",
".7 c #f1ab17",
".8 c #d69513",
"#` c #8e620c",
"#. c #595506",
"## c #437201",
"#a c #53a400",
"#b c #5dc100",
"#c c #785d16",
"#d c #f69619",
"#e c #69512a",
"#f c #b0ad90",
"#g c #9f9d81",
"#h c #3a6111",
"#i c #4e5d05",
"#j c #476104",
"#k c #3b7b00",
"#l c #5fc000",
"#m c #77e600",
"#n c #7ce900",
"#o c #76e500",
"#p c #6ddf00",
"#q c #716c23",
"#r c #f48e25",
"#s c #5f5237",
"#t c #a9a687",
"#u c #96ad6c",
"#v c #58ca0a",
"#w c #5bd300",
"#x c #63d800",
"#y c #6cde00",
"#z c #73e200",
"#A c #76e400",
"#B c #72e200",
"#C c #72d70f",
"#D c #7f622e",
"#E c #ea801e",
"#F c #5c5947",
"#G c #a2a07f",
"#H c #98a570",
"#I c #73bf2d",
"#J c #61d303",
"#K c #66da00",
"#L c #6bdd00",
"#M c #6fdb05",
"#N c #82c434",
"#O c #9aa273",
"#P c #884d21",
"#Q c #bc610b",
"#R c #706f58",
"#S c #9c9a76",
"#T c #999c71",
"#U c #92a462",
"#V c #93a463",
"#W c #9a9b72",
"#X c #979572",
"#Y c #514832",
"#Z c #4f452d",
"#0 c #8f8d6c",
"#1 c #96946e",
"#2 c #000000",
"#3 c #000000",
"#4 c #000000",
"#5 c #000000",
"#6 c #000000",
"#7 c #000000",
"#8 c #000000",
"a` c #000000",
"a. c #000000",
"a# c #000000",
"aa c #000000",
"ab c #000000",
"ac c #000000",
"ad c #000000",
"ae c #000000",
"af c #000000",
"ag c #000000",
"ah c #000000",
"ai c #000000",
"aj c #000000",
"ak c #000000",
"al c #000000",
"am c #000000",
"an c #000000",
"ao c #000000",
"ap c #000000",
"aq c #000000",
"ar c #000000",
"as c #000000",
"at c #000000",
"au c #000000",
"av c #000000",
"aw c #000000",
"ax c #000000",
"ay c #000000",
"az c #000000",
"aA c #000000",
"aB c #000000",
"aC c #000000",
"aD c #000000",
"aE c #000000",
"aF c #000000",
"aG c #000000",
"aH c #000000",
"aI c #000000",
"aJ c #000000",
"aK c #000000",
"aL c #000000",
"aM c #000000",
"aN c #000000",
"aO c #000000",
"aP c #000000",
"aQ c #000000",
"aR c #000000",
"aS c #000000",
"aT c #000000",
"aU c #000000",
"aV c #000000",
"aW c #000000",
"aX c #000000",
"aY c #000000",
"aZ c #000000",
"a0 c #000000",
"a1 c #000000",
"a2 c #000000",
"a3 c #000000",
"a4 c #000000",
"a5 c #000000",
"a6 c #000000",
"a7 c #000000",
"a8 c #000000",
/* pixels */
"````````````````````````````````",
"`.`.`.`.`.`.`.`.`.`.`.`.`.`.`.`.",
"`#`#`#`#`#`#`#`#`#`#`#`#`#`#`#`#",
"`a`b`c`d`a`a`e`f`g`h`a`a`a`a`a`a",
"`i`j`k`l`m`n`o`p`q`r`s`t`i`i`i`i",
"`u`v`w`x`y`z`A`B`C`C`D`E`F`u`u`u",
"`G`H`I`J`K`C`L`M`N`N`O`P`Q`R`G`G",
"`S`T`U`V`W`X`Y`Z`0`1`2`3`4`5`S`S",
"`6`7`8.`...#.a.b.c.d.e.f.g.h.i`6",
".j.k.l.m.n.o.p.q.r.s.t.u.v.w.x.j",
".y.z.A.B.C.D.E.F.G.H.I.J.K.L.M.y",
".N.O.P.Q.R.S.T.U.V.W.X.Y.Z.0.1.N",
".2.3.4.5.6.7.8#`#.###a#b#c#d#e.2",
"#f#f#g#h#i#j#k#l#m#n#o#p#q#r#s#f",
"#t#t#t#u#v#w#x#y#z#A#B#C#D#E#F#t",
"#G#G#G#G#H#I#J#K#L#M#N#O#P#Q#R#G",
"#S#S#S#S#S#S#T#U#V#W#S#X#Y#Z#0#S",
"#1#1#1#1#1#1#1#1#1#1#1#1#1#1#1#1",
"`.`.`.`.`.`.`.`.`.`.`.`.`.`.`.`."
};
