/* XPM */
static char *title-4-active[] = {
/* width height num_colors chars_per_pixel */
"    11    19      256            2",
/* colors */
"`` c #4a4d4a",
"`. c #303030",
"`# c #313031",
"`a c #1b7409",
"`b c #25561a",
"`c c #323531",
"`d c #9a9795",
"`e c #f6f1ed",
"`f c #1d8800",
"`g c #207a08",
"`h c #2e392b",
"`i c #aaa8a3",
"`j c #f0ece5",
"`k c #258c00",
"`l c #296f0f",
"`m c #3f3f3e",
"`n c #e3dfd7",
"`o c #e9e5dc",
"`p c #2d9100",
"`q c #303f29",
"`r c #adaaa2",
"`s c #e2dfd4",
"`t c #359600",
"`u c #32591c",
"`v c #8b8982",
"`w c #dcd8cb",
"`x c #3d9a00",
"`y c #355b1c",
"`z c #87867e",
"`A c #d6d2c3",
"`B c #459e00",
"`C c #459d00",
"`D c #334029",
"`E c #9f9d90",
"`F c #d0ccba",
"`G c #4da200",
"`H c #437d0f",
"`I c #3c3c3a",
"`J c #c4c1ae",
"`K c #c9c6b2",
"`L c #55a600",
"`M c #4f9407",
"`N c #333b2b",
"`O c #8d8b7c",
"`P c #c2c0a9",
"`Q c #5eaa00",
"`R c #5da901",
"`S c #37422a",
"`T c #747367",
"`U c #bcbaa1",
"`V c #66ae00",
"`W c #5b950a",
"`X c #3d3c3a",
"`Y c #b4b196",
"`Z c #b6b398",
"`0 c #6eb200",
"`1 c #62990a",
"`2 c #aeab8e",
"`3 c #b0ad90",
"`4 c #76b700",
"`5 c #75b501",
"`6 c #3b442a",
"`7 c #6c6a5b",
"`8 c #a7a586",
".` c #82806c",
".. c #55544b",
".# c #5c5a50",
".a c #97957a",
".b c #a9a687",
".c c #7ebc00",
".d c #72a508",
".e c #3d452a",
".f c #3c3b38",
".g c #3a402b",
".h c #5d7f15",
".i c #526b1c",
".j c #3d3c39",
".k c #9e9c7c",
".l c #86c000",
".m c #85be01",
".n c #76a30a",
".o c #3b412b",
".p c #848266",
".q c #8ec400",
".r c #8dc101",
".s c #6f9310",
".t c #343432",
".u c #8d8b68",
".v c #313025",
".w c #313028",
".x c #000000",
".y c #000000",
".z c #000000",
".A c #000000",
".B c #000000",
".C c #000000",
".D c #000000",
".E c #000000",
".F c #000000",
".G c #000000",
".H c #000000",
".I c #000000",
".J c #000000",
".K c #000000",
".L c #000000",
".M c #000000",
".N c #000000",
".O c #000000",
".P c #000000",
".Q c #000000",
".R c #000000",
".S c #000000",
".T c #000000",
".U c #000000",
".V c #000000",
".W c #000000",
".X c #000000",
".Y c #000000",
".Z c #000000",
".0 c #000000",
".1 c #000000",
".2 c #000000",
".3 c #000000",
".4 c #000000",
".5 c #000000",
".6 c #000000",
".7 c #000000",
".8 c #000000",
"#` c #000000",
"#. c #000000",
"## c #000000",
"#a c #000000",
"#b c #000000",
"#c c #000000",
"#d c #000000",
"#e c #000000",
"#f c #000000",
"#g c #000000",
"#h c #000000",
"#i c #000000",
"#j c #000000",
"#k c #000000",
"#l c #000000",
"#m c #000000",
"#n c #000000",
"#o c #000000",
"#p c #000000",
"#q c #000000",
"#r c #000000",
"#s c #000000",
"#t c #000000",
"#u c #000000",
"#v c #000000",
"#w c #000000",
"#x c #000000",
"#y c #000000",
"#z c #000000",
"#A c #000000",
"#B c #000000",
"#C c #000000",
"#D c #000000",
"#E c #000000",
"#F c #000000",
"#G c #000000",
"#H c #000000",
"#I c #000000",
"#J c #000000",
"#K c #000000",
"#L c #000000",
"#M c #000000",
"#N c #000000",
"#O c #000000",
"#P c #000000",
"#Q c #000000",
"#R c #000000",
"#S c #000000",
"#T c #000000",
"#U c #000000",
"#V c #000000",
"#W c #000000",
"#X c #000000",
"#Y c #000000",
"#Z c #000000",
"#0 c #000000",
"#1 c #000000",
"#2 c #000000",
"#3 c #000000",
"#4 c #000000",
"#5 c #000000",
"#6 c #000000",
"#7 c #000000",
"#8 c #000000",
"a` c #000000",
"a. c #000000",
"a# c #000000",
"aa c #000000",
"ab c #000000",
"ac c #000000",
"ad c #000000",
"ae c #000000",
"af c #000000",
"ag c #000000",
"ah c #000000",
"ai c #000000",
"aj c #000000",
"ak c #000000",
"al c #000000",
"am c #000000",
"an c #000000",
"ao c #000000",
"ap c #000000",
"aq c #000000",
"ar c #000000",
"as c #000000",
"at c #000000",
"au c #000000",
"av c #000000",
"aw c #000000",
"ax c #000000",
"ay c #000000",
"az c #000000",
"aA c #000000",
"aB c #000000",
"aC c #000000",
"aD c #000000",
"aE c #000000",
"aF c #000000",
"aG c #000000",
"aH c #000000",
"aI c #000000",
"aJ c #000000",
"aK c #000000",
"aL c #000000",
"aM c #000000",
"aN c #000000",
"aO c #000000",
"aP c #000000",
"aQ c #000000",
"aR c #000000",
"aS c #000000",
"aT c #000000",
"aU c #000000",
"aV c #000000",
"aW c #000000",
"aX c #000000",
"aY c #000000",
"aZ c #000000",
"a0 c #000000",
"a1 c #000000",
"a2 c #000000",
"a3 c #000000",
"a4 c #000000",
"a5 c #000000",
"a6 c #000000",
"a7 c #000000",
"a8 c #000000",
/* pixels */
"``````````````````````",
"`.`.`#`#`#`#`#`#`#`#`#",
"`a`b`c`d`e`e`e`e`e`e`e",
"`f`f`g`h`i`j`j`j`j`j`j",
"`k`k`k`l`m`n`o`o`o`o`o",
"`p`p`p`p`q`r`s`s`s`s`s",
"`t`t`t`t`u`v`w`w`w`w`w",
"`x`x`x`x`y`z`A`A`A`A`A",
"`B`B`B`C`D`E`F`F`F`F`F",
"`G`G`G`H`I`J`K`K`K`K`K",
"`L`L`M`N`O`P`P`P`P`P`P",
"`Q`R`S`T`U`U`U`U`U`U`U",
"`V`W`X`Y`Z`Z`Z`Z`Z`Z`Z",
"`0`1`X`2`3`3`3`3`3`3`3",
"`4`5`6`7`8`8.`...#.a.b",
".c.c.d.e.f.f.g.h.i.j.k",
".l.l.l.m.n.n.m.l.l.o.p",
".q.q.q.q.q.q.q.r.s.t.u",
".v.v.v.v.v.v.v.w`#`#`#"
};
