/* XPM */
static char *title-2-active[] = {
/* width height num_colors chars_per_pixel */
"    11    19      256            2",
/* colors */
"`` c #4a4d4a",
"`. c #313031",
"`# c #2a3027",
"`a c #f6f1ed",
"`b c #e2deda",
"`c c #656363",
"`d c #24551b",
"`e c #f0ece5",
"`f c #dedad5",
"`g c #c3c0bb",
"`h c #a7a4a1",
"`i c #2c4824",
"`j c #e9e5dc",
"`k c #888683",
"`l c #343433",
"`m c #303f29",
"`n c #6e6c6a",
"`o c #a4a19c",
"`p c #4a4848",
"`q c #2a6415",
"`r c #e2dfd4",
"`s c #a29f99",
"`t c #313c2b",
"`u c #2e8307",
"`v c #2d9100",
"`w c #2e8605",
"`x c #305b1b",
"`y c #314b24",
"`z c #2f6715",
"`A c #2d9000",
"`B c #dcd8cb",
"`C c #656360",
"`D c #336a15",
"`E c #359600",
"`F c #d6d2c3",
"`G c #63615d",
"`H c #386d15",
"`I c #3d9a00",
"`J c #d0ccba",
"`K c #959388",
"`L c #333c2c",
"`M c #429006",
"`N c #459e00",
"`O c #c9c6b2",
"`P c #747269",
"`Q c #344328",
"`R c #4c9e01",
"`S c #4da200",
"`T c #c2c0a9",
"`U c #c0bda8",
"`V c #4d4c48",
"`W c #447115",
"`X c #55a600",
"`Y c #bcbaa1",
"`Z c #8b8979",
"`0 c #394826",
"`1 c #5eaa00",
"`2 c #b6b398",
"`3 c #a9a78e",
"`4 c #31332e",
"`5 c #66ae00",
"`6 c #b0ad90",
"`7 c #a4a287",
"`8 c #32342e",
".` c #6eb200",
".. c #a9a687",
".# c #7f7d69",
".a c #3e4b26",
".b c #76b700",
".c c #a2a07f",
".d c #a19f7e",
".e c #474640",
".f c #5b7d15",
".g c #7ebc00",
".h c #9c9a76",
".i c #9b9975",
".j c #605f50",
".k c #3e4828",
".l c #83bb01",
".m c #86c000",
".n c #8d8b68",
".o c #737259",
".p c #44443d",
".q c #404928",
".r c #83b206",
".s c #8ec400",
".t c #303030",
".u c #313028",
".v c #313025",
".w c #000000",
".x c #000000",
".y c #000000",
".z c #000000",
".A c #000000",
".B c #000000",
".C c #000000",
".D c #000000",
".E c #000000",
".F c #000000",
".G c #000000",
".H c #000000",
".I c #000000",
".J c #000000",
".K c #000000",
".L c #000000",
".M c #000000",
".N c #000000",
".O c #000000",
".P c #000000",
".Q c #000000",
".R c #000000",
".S c #000000",
".T c #000000",
".U c #000000",
".V c #000000",
".W c #000000",
".X c #000000",
".Y c #000000",
".Z c #000000",
".0 c #000000",
".1 c #000000",
".2 c #000000",
".3 c #000000",
".4 c #000000",
".5 c #000000",
".6 c #000000",
".7 c #000000",
".8 c #000000",
"#` c #000000",
"#. c #000000",
"## c #000000",
"#a c #000000",
"#b c #000000",
"#c c #000000",
"#d c #000000",
"#e c #000000",
"#f c #000000",
"#g c #000000",
"#h c #000000",
"#i c #000000",
"#j c #000000",
"#k c #000000",
"#l c #000000",
"#m c #000000",
"#n c #000000",
"#o c #000000",
"#p c #000000",
"#q c #000000",
"#r c #000000",
"#s c #000000",
"#t c #000000",
"#u c #000000",
"#v c #000000",
"#w c #000000",
"#x c #000000",
"#y c #000000",
"#z c #000000",
"#A c #000000",
"#B c #000000",
"#C c #000000",
"#D c #000000",
"#E c #000000",
"#F c #000000",
"#G c #000000",
"#H c #000000",
"#I c #000000",
"#J c #000000",
"#K c #000000",
"#L c #000000",
"#M c #000000",
"#N c #000000",
"#O c #000000",
"#P c #000000",
"#Q c #000000",
"#R c #000000",
"#S c #000000",
"#T c #000000",
"#U c #000000",
"#V c #000000",
"#W c #000000",
"#X c #000000",
"#Y c #000000",
"#Z c #000000",
"#0 c #000000",
"#1 c #000000",
"#2 c #000000",
"#3 c #000000",
"#4 c #000000",
"#5 c #000000",
"#6 c #000000",
"#7 c #000000",
"#8 c #000000",
"a` c #000000",
"a. c #000000",
"a# c #000000",
"aa c #000000",
"ab c #000000",
"ac c #000000",
"ad c #000000",
"ae c #000000",
"af c #000000",
"ag c #000000",
"ah c #000000",
"ai c #000000",
"aj c #000000",
"ak c #000000",
"al c #000000",
"am c #000000",
"an c #000000",
"ao c #000000",
"ap c #000000",
"aq c #000000",
"ar c #000000",
"as c #000000",
"at c #000000",
"au c #000000",
"av c #000000",
"aw c #000000",
"ax c #000000",
"ay c #000000",
"az c #000000",
"aA c #000000",
"aB c #000000",
"aC c #000000",
"aD c #000000",
"aE c #000000",
"aF c #000000",
"aG c #000000",
"aH c #000000",
"aI c #000000",
"aJ c #000000",
"aK c #000000",
"aL c #000000",
"aM c #000000",
"aN c #000000",
"aO c #000000",
"aP c #000000",
"aQ c #000000",
"aR c #000000",
"aS c #000000",
"aT c #000000",
"aU c #000000",
"aV c #000000",
"aW c #000000",
"aX c #000000",
"aY c #000000",
"aZ c #000000",
"a0 c #000000",
"a1 c #000000",
"a2 c #000000",
"a3 c #000000",
"a4 c #000000",
"a5 c #000000",
"a6 c #000000",
"a7 c #000000",
"a8 c #000000",
/* pixels */
"``````````````````````",
"`.`.`.`.`.`.`.`.`.`.`#",
"`a`a`a`a`a`a`a`a`b`c`d",
"`e`e`e`e`f`g`f`e`e`h`i",
"`j`j`j`k`l`m`l`n`o`p`q",
"`r`r`s`t`u`v`w`x`y`z`A",
"`B`B`C`D`E`E`E`E`E`E`E",
"`F`F`G`H`I`I`I`I`I`I`I",
"`J`J`K`L`M`N`N`N`N`N`N",
"`O`O`O`P`Q`R`S`S`S`S`S",
"`T`T`T`U`V`W`X`X`X`X`X",
"`Y`Y`Y`Y`Z`0`1`1`1`1`1",
"`2`2`2`2`3`4`5`5`5`5`5",
"`6`6`6`6`7`8.`.`.`.`.`",
".........#.a.b.b.b.b.b",
".c.c.c.d.e.f.g.g.g.g.g",
".h.h.i.j.k.l.m.m.m.m.m",
".n.o.p.q.r.s.s.s.s.s.s",
".t.t.t.u.v.v.v.v.v.v.v"
};
