/* XPM */
static char * hide_pressed_xpm[] = {
"16 19 184 2",
"  	c None",
". 	c #4D4B4A",
"+ 	c #303031",
"@ 	c #F6F1ED",
"# 	c #F0ECE5",
"$ 	c #BEBAB6",
"% 	c #7F7E66",
"& 	c #878579",
"* 	c #ECEAE1",
"= 	c #E5D0CA",
"- 	c #E5D1CC",
"; 	c #EEEBE3",
"> 	c #E9E4DC",
", 	c #85837A",
"' 	c #FAFB48",
") 	c #807E3C",
"! 	c #E0CDC9",
"~ 	c #C7815A",
"{ 	c #B64D0D",
"] 	c #B54400",
"^ 	c #B64300",
"/ 	c #B94F12",
"( 	c #CC8966",
"_ 	c #E2D0CF",
": 	c #E2DED4",
"< 	c #868569",
"[ 	c #FCF84C",
"} 	c #762C28",
"| 	c #B75114",
"1 	c #B94300",
"2 	c #BA4200",
"3 	c #BC4200",
"4 	c #C0571F",
"5 	c #DBC2BC",
"6 	c #DCD7CB",
"7 	c #8C8B5C",
"8 	c #FCF44C",
"9 	c #6D1913",
"0 	c #B84200",
"a 	c #BE4100",
"b 	c #C04000",
"c 	c #C24000",
"d 	c #C24100",
"e 	c #C04100",
"f 	c #C45D29",
"g 	c #DAD7C8",
"h 	c #D6D1C3",
"i 	c #918F54",
"j 	c #FCEC4D",
"k 	c #6D6A14",
"l 	c #BD4100",
"m 	c #C14100",
"n 	c #C44000",
"o 	c #C63F00",
"p 	c #C83F00",
"q 	c #BD3B00",
"r 	c #902F01",
"s 	c #792D08",
"t 	c #6E2B0A",
"u 	c #91756D",
"v 	c #D0CBBA",
"w 	c #97964D",
"x 	c #FEE44E",
"y 	c #937F19",
"z 	c #A93800",
"A 	c #BB3C00",
"B 	c #973000",
"C 	c #772B0C",
"D 	c #792D21",
"E 	c #968A3D",
"F 	c #D2B755",
"G 	c #F7CD5A",
"H 	c #FFC94B",
"I 	c #B9881F",
"J 	c #7B7669",
"K 	c #C9C5B2",
"L 	c #979048",
"M 	c #FFDD4F",
"N 	c #EDC426",
"O 	c #827519",
"P 	c #9A8C3A",
"Q 	c #CDB653",
"R 	c #F9D560",
"S 	c #FFCF61",
"T 	c #FFC453",
"U 	c #FEBD3E",
"V 	c #FEB92C",
"W 	c #FEB420",
"X 	c #F8AC17",
"Y 	c #705727",
"Z 	c #C2C0A9",
"` 	c #8D7F3E",
" .	c #FFD44A",
"..	c #FECB23",
"+.	c #FFCA28",
"@.	c #FFC93F",
"#.	c #FEC33C",
"$.	c #FEBD2E",
"%.	c #FEB920",
"&.	c #FEB719",
"*.	c #FDB318",
"=.	c #FDAF16",
"-.	c #FEAC13",
";.	c #F9A612",
">.	c #795A21",
",.	c #BCBAA1",
"'.	c #6B6346",
").	c #F7C032",
"!.	c #FEC120",
"~.	c #FEBF1E",
"{.	c #FEBB1C",
"].	c #FDB81A",
"^.	c #FBB219",
"/.	c #F5AB17",
"(.	c #E79E14",
"_.	c #B57A0F",
":.	c #97640A",
"<.	c #E1920E",
"[.	c #F79C0F",
"}.	c #705220",
"|.	c #B6B398",
"1.	c #A09D85",
"2.	c #68531E",
"3.	c #E7A919",
"4.	c #F5B119",
"5.	c #F1AA16",
"6.	c #D69412",
"7.	c #8E620C",
"8.	c #595506",
"9.	c #721800",
"0.	c #A42800",
"a.	c #C13200",
"b.	c #785C16",
"c.	c #F69618",
"d.	c #69502A",
"e.	c #B0AC90",
"f.	c #9F9D81",
"g.	c #612410",
"h.	c #5D0C04",
"i.	c #611103",
"j.	c #7B2000",
"k.	c #C03000",
"l.	c #E63700",
"m.	c #E93600",
"n.	c #E53700",
"o.	c #DF3900",
"p.	c #716C23",
"q.	c #F48E25",
"r.	c #5F5137",
"s.	c #A9A587",
"t.	c #AD776B",
"u.	c #CA4309",
"v.	c #D33C00",
"w.	c #D83A00",
"x.	c #DE3900",
"y.	c #E23700",
"z.	c #E43700",
"A.	c #E23800",
"B.	c #D7410F",
"C.	c #7F612E",
"D.	c #EA7F1D",
"E.	c #5C5947",
"F.	c #A29F7F",
"G.	c #A57670",
"H.	c #BF532D",
"I.	c #D33C02",
"J.	c #DA3A00",
"K.	c #DD3900",
"L.	c #DB3B05",
"M.	c #C45534",
"N.	c #A27673",
"O.	c #884D21",
"P.	c #BC600A",
"Q.	c #706F58",
"R.	c #9C9976",
"S.	c #9C7271",
"T.	c #A46B62",
"U.	c #A46B63",
"V.	c #9B7272",
"W.	c #979572",
"X.	c #514832",
"Y.	c #4F442D",
"Z.	c #8F8C6C",
"`.	c #96946E",
". . . . . . . . . . . . . . . . ",
"+ + + + + + + + + + + + + + + + ",
"@ @ @ @ @ @ @ @ @ @ @ @ @ @ @ @ ",
"# $ % & # # * = - ; # # # # # # ",
"> , ' ) ! ~ { ] ^ / ( _ > > > > ",
": < [ } | ^ 1 2 3 3 3 4 5 : : : ",
"6 7 8 9 0 3 a b c c d e f g 6 6 ",
"h i j k l m n o p q r s t u h h ",
"v w x y z A B C D E F G H I J v ",
"K L M N O P Q R S T U V W X Y K ",
"Z `  ...+.@.#.$.%.&.*.=.-.;.>.Z ",
",.'.).!.~.{.].^./.(._.:.<.[.}.,.",
"|.1.2.3.4.5.6.7.8.9.0.a.b.c.d.|.",
"e.e.f.g.h.i.j.k.l.m.n.o.p.q.r.e.",
"s.s.s.t.u.v.w.x.y.z.A.B.C.D.E.s.",
"F.F.F.F.G.H.I.J.K.L.M.N.O.P.Q.F.",
"R.R.R.R.R.R.S.T.U.V.R.W.X.Y.Z.R.",
"`.`.`.`.`.`.`.`.`.`.`.`.`.`.`.`.",
"+ + + + + + + + + + + + + + + + "};
