/* XPM */
static char * maximize_pressed_xpm[] = {
"16 19 181 2",
"  	c None",
". 	c #4D4B4A",
"+ 	c #303031",
"@ 	c #F6F1ED",
"# 	c #F0ECE5",
"$ 	c #D9D5CF",
"% 	c #888579",
"& 	c #8C8B50",
"* 	c #939242",
"= 	c #93913F",
"- 	c #8C894B",
"; 	c #858276",
"> 	c #E9E4DC",
", 	c #A7A39E",
"' 	c #8B8C43",
") 	c #F4F369",
"! 	c #FFFB69",
"~ 	c #FFF658",
"{ 	c #FFF24E",
"] 	c #FFEE49",
"^ 	c #F2DB3E",
"/ 	c #84752B",
"( 	c #A5A29B",
"_ 	c #E2DED4",
": 	c #A8A59D",
"< 	c #A6A744",
"[ 	c #FDF961",
"} 	c #F7EC43",
"| 	c #F2E233",
"1 	c #F4DF32",
"2 	c #F9E02F",
"3 	c #FDDF2F",
"4 	c #FEDC2D",
"5 	c #FCD72B",
"6 	c #987F1F",
"7 	c #A5A39B",
"8 	c #DCD7CB",
"9 	c #D3CFC3",
"0 	c #7E7F3B",
"a 	c #F8F146",
"b 	c #A9A026",
"c 	c #62150F",
"d 	c #691C06",
"e 	c #691A06",
"f 	c #63100E",
"g 	c #BCA120",
"h 	c #FBD328",
"i 	c #FDD127",
"j 	c #FACA25",
"k 	c #6E5A21",
"l 	c #D6D1C3",
"m 	c #858379",
"n 	c #DCD535",
"o 	c #696D15",
"p 	c #842B00",
"q 	c #C13D00",
"r 	c #C43C00",
"s 	c #C63B00",
"t 	c #C73B00",
"u 	c #812400",
"v 	c #847113",
"w 	c #FDCA23",
"x 	c #FDC421",
"y 	c #D09E1A",
"z 	c #827E75",
"A 	c #D0CBBA",
"B 	c #746F48",
"C 	c #90871E",
"D 	c #943000",
"E 	c #C13C00",
"F 	c #AF3500",
"G 	c #782908",
"H 	c #782808",
"I 	c #B53200",
"J 	c #CF3900",
"K 	c #922800",
"L 	c #AE8617",
"M 	c #FEC01E",
"N 	c #F5B31B",
"O 	c #6E6041",
"P 	c #C9C5B2",
"Q 	c #766D31",
"R 	c #5E1A04",
"S 	c #C03D00",
"T 	c #A83300",
"U 	c #813030",
"V 	c #F5E363",
"W 	c #F5CE4F",
"X 	c #74651A",
"Y 	c #B22E00",
"Z 	c #D43700",
"` 	c #65120A",
" .	c #FFBE1F",
"..	c #F8B018",
"+.	c #725A29",
"@.	c #C2C0A9",
"#.	c #504929",
"$.	c #852A00",
"%.	c #C33B00",
"&.	c #74270E",
"*.	c #FBE663",
"=.	c #FFCE4E",
"-.	c #FEC62C",
";.	c #F0B71E",
">.	c #6A1502",
",.	c #DA3500",
"'.	c #882404",
").	c #EBAE2F",
"!.	c #F7A915",
"~.	c #6F5526",
"{.	c #BCBAA1",
"].	c #AEAC95",
"^.	c #BD4E1E",
"/.	c #722210",
"(.	c #FFD141",
"_.	c #FEC422",
":.	c #FDBE1D",
"<.	c #EDAF1A",
"[.	c #680F03",
"}.	c #DF3400",
"|.	c #9D2802",
"1.	c #E0A33E",
"2.	c #F19E13",
"3.	c #665634",
"4.	c #B6B398",
"5.	c #BA6A4F",
"6.	c #922A01",
"7.	c #AA8117",
"8.	c #F6B61B",
"9.	c #F0AF19",
"0.	c #9A6E0E",
"a.	c #9E2100",
"b.	c #E43200",
"c.	c #86250A",
"d.	c #F3AA42",
"e.	c #CC7F0C",
"f.	c #6D6A59",
"g.	c #B0AC90",
"h.	c #AE8888",
"i.	c #C5430F",
"j.	c #CE3900",
"k.	c #8A2300",
"l.	c #5F0806",
"m.	c #5E0706",
"n.	c #921E00",
"o.	c #E93000",
"p.	c #E33100",
"q.	c #686A1F",
"r.	c #F69C2E",
"s.	c #654310",
"t.	c #A7A488",
"u.	c #A9A587",
"v.	c #AD756B",
"w.	c #CA3E09",
"x.	c #D33700",
"y.	c #D83500",
"z.	c #DE3300",
"A.	c #E23100",
"B.	c #E43100",
"C.	c #7E1D06",
"D.	c #D48B29",
"E.	c #92570A",
"F.	c #75725D",
"G.	c #A29F7F",
"H.	c #A57470",
"I.	c #BF4F2D",
"J.	c #D33702",
"K.	c #DA3400",
"L.	c #C42D00",
"M.	c #640E01",
"N.	c #B46F0B",
"O.	c #7C4B0B",
"P.	c #6C6A53",
"Q.	c #9C9976",
"R.	c #989C71",
"S.	c #A2665F",
"T.	c #2C1E04",
"U.	c #684410",
"V.	c #564B31",
"W.	c #888566",
"X.	c #96946E",
". . . . . . . . . . . . . . . . ",
"+ + + + + + + + + + + + + + + + ",
"@ @ @ @ @ @ @ @ @ @ @ @ @ @ @ @ ",
"# # # # $ % & * = - ; $ # # # # ",
"> > > , ' ) ! ~ { ] ^ / ( > > > ",
"_ _ : < [ } | 1 2 3 4 5 6 7 _ _ ",
"8 9 0 a b c d e f g h i j k 9 8 ",
"l m n o p q r s t u v w x y z l ",
"A B C D E F G H I J K L M N O A ",
"P Q R S T U V W X Y Z `  ...+.P ",
"@.#.$.%.&.*.=.-.;.>.,.'.).!.~.@.",
"{.].^.s /.(._.:.<.[.}.|.1.2.3.{.",
"4.4.5.t 6.7.8.9.0.a.b.c.d.e.f.4.",
"g.g.h.i.j.k.l.m.n.o.p.q.r.s.t.g.",
"u.u.u.v.w.x.y.z.A.B.C.D.E.F.u.u.",
"G.G.G.G.H.I.J.K.L.M.N.O.P.G.G.G.",
"Q.Q.Q.Q.Q.Q.R.S.T.U.V.W.Q.Q.Q.Q.",
"X.X.X.X.X.X.X.X.X.X.X.X.X.X.X.X.",
"+ + + + + + + + + + + + + + + + "};
