/* XPM */
static char * shade_pressed_xpm[] = {
"16 19 162 2",
"  	c None",
". 	c #4D4B4A",
"+ 	c #303031",
"@ 	c #F6F1ED",
"# 	c #F0ECE5",
"$ 	c #ECEAE1",
"% 	c #E5CDCA",
"& 	c #A9A7A1",
"* 	c #85846E",
"= 	c #8B887F",
"- 	c #E3DFD9",
"; 	c #E9E4DC",
"> 	c #E0CAC9",
", 	c #C7795A",
"' 	c #B6400D",
") 	c #7E2804",
"! 	c #B7B84B",
"~ 	c #FEFF61",
"{ 	c #E8E53A",
"] 	c #686545",
"^ 	c #E2DED4",
"/ 	c #D7B6AF",
"( 	c #B74414",
"_ 	c #B63500",
": 	c #B93400",
"< 	c #752517",
"[ 	c #FFFD6C",
"} 	c #FEF447",
"| 	c #FBEF37",
"1 	c #837C1D",
"2 	c #CDB7B6",
"3 	c #DCD7CB",
"4 	c #D2CEC1",
"5 	c #6E362A",
"6 	c #77862B",
"7 	c #751C1A",
"8 	c #8A2500",
"9 	c #70200C",
"0 	c #F4E541",
"a 	c #FBE833",
"b 	c #F1DC30",
"c 	c #656313",
"d 	c #BF4F2A",
"e 	c #DAD7C8",
"f 	c #D6D1C3",
"g 	c #797862",
"h 	c #ECEA62",
"i 	c #FFF262",
"j 	c #FDE937",
"k 	c #7D7418",
"l 	c #9B2500",
"m 	c #5C0F0F",
"n 	c #95841B",
"o 	c #6D6414",
"p 	c #801E01",
"q 	c #C43000",
"r 	c #CC8D7F",
"s 	c #D0CBBA",
"t 	c #838142",
"u 	c #FFED6A",
"v 	c #FEDF35",
"w 	c #FDDC2D",
"x 	c #CAAF23",
"y 	c #851D00",
"z 	c #CC2C00",
"A 	c #B22600",
"B 	c #C32A00",
"C 	c #CC2D00",
"D 	c #C92E00",
"E 	c #C75939",
"F 	c #C9C5B2",
"G 	c #6B231D",
"H 	c #FCD63D",
"I 	c #FDD428",
"J 	c #F7CE27",
"K 	c #9E8218",
"L 	c #A12100",
"M 	c #D42A00",
"N 	c #C92800",
"O 	c #CE2900",
"P 	c #D12B00",
"Q 	c #CE2C00",
"R 	c #C9431D",
"S 	c #C2C0A9",
"T 	c #9B2F08",
"U 	c #635D11",
"V 	c #B59119",
"W 	c #947615",
"X 	c #630F03",
"Y 	c #AD2301",
"Z 	c #722121",
"` 	c #9C883C",
" .	c #8F7429",
"..	c #651108",
"+.	c #C72800",
"@.	c #CB401A",
"#.	c #BCBAA1",
"$.	c #BE441E",
"%.	c #BB2D00",
"&.	c #962100",
"*.	c #AC2300",
"=.	c #C42500",
"-.	c #7D7831",
";.	c #FECF72",
">.	c #FFBE56",
",.	c #FFB930",
"'.	c #EAA718",
").	c #5A0802",
"!.	c #CA4D2F",
"~.	c #B6B398",
"{.	c #BA644F",
"].	c #C72F00",
"^.	c #CD2C00",
"/.	c #D32A00",
"(.	c #861E07",
"_.	c #EDBD64",
":.	c #FEB251",
"<.	c #FEAE18",
"[.	c #FEAD13",
"}.	c #FCA813",
"|.	c #8B5D09",
"1.	c #AA675F",
"2.	c #B0AC90",
"3.	c #AAAE88",
"4.	c #C5380F",
"5.	c #7B200B",
"6.	c #FEB35C",
"7.	c #FEA629",
"8.	c #FEA410",
"9.	c #FEA30F",
"0.	c #FCA00F",
"a.	c #9C6209",
"b.	c #928F77",
"c.	c #A9A587",
"d.	c #AD716B",
"e.	c #CA3309",
"f.	c #9E1F01",
"g.	c #C27D33",
"h.	c #FD9B1D",
"i.	c #FE9B0A",
"j.	c #FD9909",
"k.	c #F29008",
"l.	c #66400D",
"m.	c #A4A083",
"n.	c #A29F7F",
"o.	c #A57170",
"p.	c #BF462D",
"q.	c #D32A02",
"r.	c #610D08",
"s.	c #BF6F08",
"t.	c #F18806",
"u.	c #E78105",
"v.	c #834B04",
"w.	c #6B6952",
"x.	c #9C9976",
"y.	c #989C71",
"z.	c #A26461",
"A.	c #66654D",
"B.	c #564B31",
"C.	c #554E35",
"D.	c #7D7B5E",
"E.	c #96946E",
". . . . . . . . . . . . . . . . ",
"+ + + + + + + + + + + + + + + + ",
"@ @ @ @ @ @ @ @ @ @ @ @ @ @ @ @ ",
"# # # # # # $ % & * = - # # # # ",
"; ; ; ; > , ' ) ! ~ { ] ; ; ; ; ",
"^ ^ ^ / ( _ : < [ } | 1 2 ^ ^ ^ ",
"3 3 4 5 6 7 8 9 0 a b c d e 3 3 ",
"f f g h i j k l m n o p q r f f ",
"s s t u v w x y z A B C D E s s ",
"F F G H I J K L M N O P Q R F F ",
"S S T U V W X Y Z `  ...+.@.S S ",
"#.#.$.%.&.*.=.-.;.>.,.'.).!.#.#.",
"~.~.{.].^./.(._.:.<.[.}.|.1.~.~.",
"2.2.3.4.Q M 5.6.7.8.9.0.a.b.2.2.",
"c.c.c.d.e./.f.g.h.i.j.k.l.m.c.c.",
"n.n.n.n.o.p.q.r.s.t.u.v.w.n.n.n.",
"x.x.x.x.x.x.y.z.A.B.C.D.x.x.x.x.",
"E.E.E.E.E.E.E.E.E.E.E.E.E.E.E.E.",
"+ + + + + + + + + + + + + + + + "};
