/* XPM */
static char * close_active_xpm[] = {
"18 22 146 2",
"  	c None",
". 	c #23262A",
"+ 	c #0D0D0F",
"@ 	c #020202",
"# 	c #010102",
"$ 	c #0C0C0E",
"% 	c #212328",
"& 	c #1E2024",
"* 	c #0D0901",
"= 	c #6C4C07",
"- 	c #B47E0B",
"; 	c #D1930C",
"> 	c #C98E0B",
", 	c #9F7009",
"' 	c #563D04",
") 	c #070500",
"! 	c #1A1C20",
"~ 	c #16171A",
"{ 	c #422E04",
"] 	c #E5A212",
"^ 	c #FEB51A",
"/ 	c #FEB417",
"( 	c #FAB010",
"_ 	c #F1A90E",
": 	c #E5A20D",
"< 	c #D99A0C",
"[ 	c #B37F09",
"} 	c #291D02",
"| 	c #111215",
"1 	c #412E04",
"2 	c #F8B016",
"3 	c #FFBC31",
"4 	c #FFC040",
"5 	c #FFBE39",
"6 	c #FFB720",
"7 	c #F9AF10",
"8 	c #ECA60E",
"9 	c #DF9D0C",
"0 	c #D1940B",
"a 	c #BB8509",
"b 	c #251B02",
"c 	c #181A1E",
"d 	c #0C0901",
"e 	c #E19E0E",
"f 	c #FFB925",
"g 	c #D1A03D",
"h 	c #9F7E40",
"i 	c #BD9341",
"j 	c #FFBC34",
"k 	c #DA9910",
"l 	c #9C6E09",
"m 	c #A57409",
"n 	c #D4960B",
"o 	c #C68C09",
"p 	c #9D7007",
"q 	c #040300",
"r 	c #684906",
"s 	c #FFB927",
"t 	c #AD8534",
"u 	c #FFFFFF",
"v 	c #EBAE31",
"w 	c #C98E0F",
"x 	c #E1B758",
"y 	c #B88308",
"z 	c #3D2C02",
"A 	c #AC790A",
"B 	c #F5AC0F",
"C 	c #FEB519",
"D 	c #CB962A",
"E 	c #DEB14D",
"F 	c #C48B09",
"G 	c #B68207",
"H 	c #6F5004",
"I 	c #060708",
"J 	c #C78C0B",
"K 	c #EEA70E",
"L 	c #F8AF0F",
"M 	c #EBA81C",
"N 	c #E5B854",
"O 	c #CE920A",
"P 	c #C08909",
"Q 	c #B38007",
"R 	c #845F04",
"S 	c #000000",
"T 	c #BF870A",
"U 	c #E4A10D",
"V 	c #EDA70E",
"W 	c #C0870B",
"X 	c #DCAB3D",
"Y 	c #C78D09",
"Z 	c #BB8508",
"` 	c #AE7C06",
" .	c #805B04",
"..	c #0A0B0C",
"+.	c #976B08",
"@.	c #DA9A0C",
"#.	c #E19F0C",
"$.	c #956908",
"%.	c #D5B15E",
"&.	c #B48007",
"*.	c #A87806",
"=.	c #644803",
"-.	c #040505",
";.	c #513904",
">.	c #A07208",
",.	c #DBA52C",
"'.	c #D39B1D",
").	c #CAA54D",
"!.	c #AB7A06",
"~.	c #A07305",
"{.	c #312301",
"].	c #1B1C20",
"^.	c #A97808",
"/.	c #CA8F0A",
"(.	c #DAB051",
"_.	c #D9AE4C",
":.	c #CF9D2B",
"<.	c #CD9F34",
"[.	c #D4B05E",
"}.	c #B28519",
"|.	c #A27405",
"1.	c #7D5A03",
"2.	c #271C02",
"3.	c #B17E07",
"4.	c #BC8608",
"5.	c #BE8708",
"6.	c #BD8608",
"7.	c #A97906",
"8.	c #A17405",
"9.	c #8F6604",
"0.	c #181101",
"a.	c #231901",
"b.	c #956A06",
"c.	c #AF7D07",
"d.	c #AD7B06",
"e.	c #A47505",
"f.	c #9E7105",
"g.	c #7C5903",
"h.	c #3A2A02",
"i.	c #6A4C03",
"j.	c #7F5B04",
"k.	c #7C5904",
"l.	c #624603",
"m.	c #020100",
"n.	c #121111",
"o.	c #0F0F0E",
"                                    ",
"                                    ",
"                                    ",
"                                    ",
"                                    ",
"            . + @ # $ %             ",
"        & * = - ; > , ' ) !         ",
"      ~ { ] ^ / ( _ : < [ } |       ",
"    & 1 2 3 4 5 6 7 8 9 0 a b c     ",
"    d e f g h i j k l m n o p q     ",
"  & r 7 s t u u v w u u x o y z c   ",
"  + A B C D u u u u u u E F G H I   ",
"  # J K L / M u u u u N O P Q R S   ",
"  # T U V W W u u u u X Y Z `  .S   ",
"  ..+.@.#.$.u u u u u u %.&.*.=.-.  ",
"  % ;.O n >.u u ,.'.u u ).!.~.{.].  ",
"    ) ^.Y /.(._.:.<.[.).}.|.1.)     ",
"      2.3.4.5.6.Z G 3.7.8.9.0.      ",
"        a.b.c.c.d.7.e.f.g.0.        ",
"          q h.i.j.k.l.{.m.          ",
"              n.S S o.              ",
"                                    "};
