/* XPM */
static char * close_pressed_xpm[] = {
"18 22 120 2",
"  	c None",
". 	c #23262A",
"+ 	c #0D0D0F",
"@ 	c #020202",
"# 	c #010102",
"$ 	c #0C0C0E",
"% 	c #212328",
"& 	c #1E2024",
"* 	c #0D0901",
"= 	c #A15300",
"- 	c #E47000",
"; 	c #FE8300",
"> 	c #F78000",
", 	c #CF6B00",
"' 	c #8C4800",
") 	c #070500",
"! 	c #1A1C20",
"~ 	c #16171A",
"{ 	c #422E04",
"] 	c #FF8F16",
"^ 	c #FF9733",
"/ 	c #FF9631",
"( 	c #FF9627",
"_ 	c #FF911C",
": 	c #FF8D12",
"< 	c #FF8706",
"[ 	c #E17400",
"} 	c #291D02",
"| 	c #111215",
"1 	c #412E04",
"2 	c #FD9B25",
"3 	c #FFA248",
"4 	c #FFA854",
"5 	c #FFA650",
"6 	c #FF9A39",
"7 	c #FF9525",
"8 	c #FF9018",
"9 	c #FF890A",
"0 	c #E97900",
"a 	c #251B02",
"b 	c #181A1E",
"c 	c #0C0901",
"d 	c #FF8B0E",
"e 	c #FF9D3F",
"f 	c #FF932B",
"g 	c #EB7914",
"h 	c #FB8C20",
"i 	c #FFAF40",
"j 	c #FF830A",
"k 	c #CE6A00",
"l 	c #D66E00",
"m 	c #FF8400",
"n 	c #F17D00",
"o 	c #040300",
"p 	c #9E5100",
"q 	c #FF9E40",
"r 	c #FF7F02",
"s 	c #FFFFFF",
"t 	c #FF9937",
"u 	c #F98100",
"v 	c #FFAB50",
"w 	c #E67700",
"x 	c #733E00",
"y 	c #DC7100",
"z 	c #FF9423",
"A 	c #FF8814",
"B 	c #FFA443",
"C 	c #EF7C00",
"D 	c #A15700",
"E 	c #060708",
"F 	c #F67F00",
"G 	c #FF911A",
"H 	c #FF9025",
"I 	c #EC7A00",
"J 	c #DF7300",
"K 	c #B46100",
"L 	c #000000",
"M 	c #FF8C10",
"N 	c #EE7B00",
"O 	c #FF9C33",
"P 	c #F47E00",
"Q 	c #E77800",
"R 	c #AF5B00",
"S 	c #0A0B0C",
"T 	c #C76700",
"U 	c #FF8808",
"V 	c #FF8A0C",
"W 	c #C66600",
"X 	c #FAA94D",
"Y 	c #965100",
"Z 	c #040505",
"` 	c #864500",
" .	c #D76F00",
"..	c #CE6F00",
"+.	c #673800",
"@.	c #1B1C20",
"#.	c #C07304",
"$.	c #FFA23F",
"%.	c #FF921E",
"&.	c #FFA84B",
"*.	c #F99D36",
"=.	c #D88209",
"-.	c #AE5E00",
";.	c #271C02",
">.	c #DE7200",
",.	c #BE6200",
"'.	c #181101",
").	c #231901",
"!.	c #B26702",
"~.	c #D97000",
"{.	c #CC6E00",
"].	c #AC5D00",
"^.	c #3A2A02",
"/.	c #9C5400",
"(.	c #AF5F00",
"_.	c #944C00",
":.	c #312301",
"<.	c #020100",
"[.	c #121111",
"}.	c #0F0F0E",
"                                    ",
"                                    ",
"                                    ",
"                                    ",
"                                    ",
"            . + @ # $ %             ",
"        & * = - ; > , ' ) !         ",
"      ~ { ] ^ / ( _ : < [ } |       ",
"    & 1 2 3 4 5 6 7 8 9 ; 0 a b     ",
"    c d e f g h i j k l m n k o     ",
"  & p 7 q r s s t u s s v n w x b   ",
"  + y z ^ A s s s s s s B C [ D E   ",
"  # F G 7 / H s s s s v u I J K L   ",
"  # I M 8 N N s s s s O P Q y R L   ",
"  S T U V W s s s s s s X J l Y Z   ",
"  % ` u m , s s 7 M s s O  ...+.@.  ",
"    ) #.P > B $.8 %.&.*.=...-.)     ",
"      ;.>.0 0 0 Q [ >.l ..,.'.      ",
"        ).!.y y ~.l , {.].'.        ",
"          o ^./.(.-._.:.<.          ",
"              [.L L }.              ",
"                                    "};
