/* XPM */
static char * close_inactive_xpm[] = {
"18 22 173 2",
"  	c None",
". 	c #23262A",
"+ 	c #0D0D0F",
"@ 	c #020202",
"# 	c #010102",
"$ 	c #0C0C0E",
"% 	c #212328",
"& 	c #0D0901",
"* 	c #6C4C07",
"= 	c #B47E0B",
"- 	c #D1930C",
"; 	c #C98E0B",
"> 	c #9F7009",
", 	c #563D04",
"' 	c #070500",
") 	c #1F2125",
"! 	c #16171A",
"~ 	c #422E04",
"{ 	c #E5A212",
"] 	c #FEB51A",
"^ 	c #FEB417",
"/ 	c #FAB010",
"( 	c #F1A90E",
"_ 	c #E5A20D",
": 	c #D99A0C",
"< 	c #B37F09",
"[ 	c #291D02",
"} 	c #111215",
"| 	c #412E04",
"1 	c #F8B016",
"2 	c #FFBC31",
"3 	c #FFC040",
"4 	c #FFBE39",
"5 	c #FFB720",
"6 	c #F9AF10",
"7 	c #ECA60E",
"8 	c #DF9D0C",
"9 	c #D1940B",
"0 	c #BB8509",
"a 	c #251B02",
"b 	c #1D1F22",
"c 	c #0C0901",
"d 	c #E19E0E",
"e 	c #FFB925",
"f 	c #E7B144",
"g 	c #CEA352",
"h 	c #DDAC4C",
"i 	c #FFBC34",
"j 	c #EBA511",
"k 	c #C58B0B",
"l 	c #C3890B",
"m 	c #D4960B",
"n 	c #C68C09",
"o 	c #9D7007",
"p 	c #040300",
"q 	c #684906",
"r 	c #FFB927",
"s 	c #D5A340",
"t 	c #FEE5B5",
"u 	c #FEE3AD",
"v 	c #F5B533",
"w 	c #E3A011",
"x 	c #F7D486",
"y 	c #F0CF86",
"z 	c #DAA632",
"A 	c #B88308",
"B 	c #3D2C02",
"C 	c #AC790A",
"D 	c #F5AC0F",
"E 	c #FEB519",
"F 	c #E5A930",
"G 	c #FFE0A3",
"H 	c #FFDF9F",
"I 	c #FFDB91",
"J 	c #FCD787",
"K 	c #F6D386",
"L 	c #EFCE85",
"M 	c #D8A32C",
"N 	c #C48B09",
"O 	c #B68207",
"P 	c #6F5004",
"Q 	c #060708",
"R 	c #C78C0B",
"S 	c #EEA70E",
"T 	c #F8AF0F",
"U 	c #F5AF1D",
"V 	c #FFDA8D",
"W 	c #FDD888",
"X 	c #F8D486",
"Y 	c #F3D186",
"Z 	c #DFA930",
"` 	c #CE920A",
" .	c #C08909",
"..	c #B38007",
"+.	c #845F04",
"@.	c #000000",
"#.	c #BF870A",
"$.	c #E4A10D",
"%.	c #EDA70E",
"&.	c #D9980D",
"*.	c #DA9A0D",
"=.	c #FAD587",
"-.	c #EECE85",
";.	c #D7A024",
">.	c #C78D09",
",.	c #BB8508",
"'.	c #AE7C06",
").	c #805B04",
"!.	c #976B08",
"~.	c #DA9A0C",
"{.	c #E19F0C",
"].	c #BD850A",
"^.	c #F1CF86",
"/.	c #EECD85",
"(.	c #E9CA85",
"_.	c #E4C784",
":.	c #CA9D34",
"<.	c #B48007",
"[.	c #A87806",
"}.	c #644803",
"|.	c #050606",
"1.	c #513904",
"2.	c #BC8509",
"3.	c #ECCC85",
"4.	c #D89E1C",
"5.	c #D19713",
"6.	c #E4C684",
"7.	c #DFC384",
"8.	c #C0942A",
"9.	c #AB7A06",
"0.	c #A07305",
"a.	c #312301",
"b.	c #1B1C20",
"c.	c #A97808",
"d.	c #CA8F0A",
"e.	c #D3A02D",
"f.	c #D29F2B",
"g.	c #CB951B",
"h.	c #C8951F",
"i.	c #C89B33",
"j.	c #BF932A",
"k.	c #AF800F",
"l.	c #A27405",
"m.	c #7D5A03",
"n.	c #020100",
"o.	c #271C02",
"p.	c #B17E07",
"q.	c #BC8608",
"r.	c #BE8708",
"s.	c #BD8608",
"t.	c #A97906",
"u.	c #A17405",
"v.	c #8F6604",
"w.	c #181101",
"x.	c #181A1D",
"y.	c #231901",
"z.	c #956A06",
"A.	c #AF7D07",
"B.	c #AD7B06",
"C.	c #A47505",
"D.	c #9E7105",
"E.	c #7C5903",
"F.	c #0D0E10",
"G.	c #4E4D4B",
"H.	c #3A2A02",
"I.	c #6A4C03",
"J.	c #7F5B04",
"K.	c #7C5904",
"L.	c #624603",
"M.	c #424140",
"N.	c #121111",
"O.	c #0F0F0E",
"P.	c #494746",
"                                    ",
"                                    ",
"                                    ",
"                                    ",
"                                    ",
"            . + @ # $ %             ",
"        . & * = - ; > , ' )         ",
"      ! ~ { ] ^ / ( _ : < [ }       ",
"    . | 1 2 3 4 5 6 7 8 9 0 a b     ",
"    c d e f g h i j k l m n o p     ",
"  . q 6 r s t u v w x y z n A B b   ",
"  + C D E F G H I J K L M N O P Q   ",
"  @ R S T ^ U V W X Y Z `  ...+.@.  ",
"  # #.$.%.&.*.=.x Y -.;.>.,.'.).@.  ",
"  $ !.~.{.].Y Y ^./.(._.:.<.[.}.|.  ",
"  % 1.` m 2.3.3.4.5.6.7.8.9.0.a.b.  ",
"    ' c.>.d.e.f.g.h.i.j.k.l.m.n.    ",
"    ) o.p.q.r.s.,.O p.t.u.v.w.x.    ",
"      } y.z.A.A.B.t.C.D.E.w.F.      ",
"        G.p H.I.J.K.L.a.n.M.        ",
"            G.N.@.@.O.P.            ",
"                                    "};
