/* XPM */
static char * hide_pressed_xpm[] = {
"18 22 124 2",
"  	c None",
". 	c #23262A",
"+ 	c #0D0D0F",
"@ 	c #020202",
"# 	c #010102",
"$ 	c #0C0C0E",
"% 	c #212328",
"& 	c #1E2024",
"* 	c #0D0901",
"= 	c #A15300",
"- 	c #E47000",
"; 	c #FE8300",
"> 	c #F78000",
", 	c #CF6B00",
"' 	c #8C4800",
") 	c #070500",
"! 	c #1A1C20",
"~ 	c #16171A",
"{ 	c #422E04",
"] 	c #FF8F16",
"^ 	c #FF9733",
"/ 	c #FF9631",
"( 	c #FF9627",
"_ 	c #FF911C",
": 	c #FF8D12",
"< 	c #FF8706",
"[ 	c #E17400",
"} 	c #291D02",
"| 	c #111215",
"1 	c #412E04",
"2 	c #FF932B",
"3 	c #F49437",
"4 	c #DF6E00",
"5 	c #FFB56C",
"6 	c #D66900",
"7 	c #FF9525",
"8 	c #FF9018",
"9 	c #FF890A",
"0 	c #F38703",
"a 	c #E97900",
"b 	c #251B02",
"c 	c #181A1E",
"d 	c #0C0901",
"e 	c #FF8B0E",
"f 	c #FF9D3F",
"g 	c #FFFFFF",
"h 	c #CD9C6C",
"i 	c #FFD0A2",
"j 	c #FF8400",
"k 	c #F17D00",
"l 	c #BF6C02",
"m 	c #040300",
"n 	c #9E5100",
"o 	c #FF9E40",
"p 	c #FFBC7B",
"q 	c #CA9D75",
"r 	c #FFD8B2",
"s 	c #E67700",
"t 	c #733E00",
"u 	c #DC7100",
"v 	c #FF9423",
"w 	c #C66100",
"x 	c #FBF9F8",
"y 	c #F8B879",
"z 	c #C46500",
"A 	c #FF8A0C",
"B 	c #F48703",
"C 	c #EF7C00",
"D 	c #A15700",
"E 	c #060708",
"F 	c #F67F00",
"G 	c #FF911A",
"H 	c #FFCE9F",
"I 	c #E0C8B1",
"J 	c #EC7A00",
"K 	c #DF7300",
"L 	c #B46100",
"M 	c #000000",
"N 	c #FF8C10",
"O 	c #FF9321",
"P 	c #FFAB50",
"Q 	c #E77800",
"R 	c #AF5B00",
"S 	c #0A0B0C",
"T 	c #BD6802",
"U 	c #FF8808",
"V 	c #FF8E14",
"W 	c #CC6900",
"X 	c #F7A956",
"Y 	c #F49937",
"Z 	c #FFA94C",
"` 	c #D66E00",
" .	c #965100",
"..	c #040505",
"+.	c #864500",
"@.	c #F98100",
"#.	c #FF8604",
"$.	c #FFA647",
"%.	c #D76F00",
"&.	c #CE6F00",
"*.	c #673800",
"=.	c #1B1C20",
"-.	c #F47E00",
";.	c #FD9E38",
">.	c #9A5C01",
",.	c #271C02",
"'.	c #D07602",
").	c #D97301",
"!.	c #BE6200",
"~.	c #181101",
"{.	c #231901",
"].	c #D67301",
"^.	c #D37201",
"/.	c #CC6E00",
"(.	c #945B01",
"_.	c #3A2A02",
":.	c #9C5400",
"<.	c #AF5F00",
"[.	c #AE5E00",
"}.	c #944C00",
"|.	c #312301",
"1.	c #020100",
"2.	c #121111",
"3.	c #0F0F0E",
"                                    ",
"                                    ",
"                                    ",
"                                    ",
"                                    ",
"            . + @ # $ %             ",
"        & * = - ; > , ' ) !         ",
"      ~ { ] ^ / ( _ : < [ } |       ",
"    & 1 2 3 4 5 6 7 8 9 0 a b c     ",
"    d e f - g h g i _ e j k l m     ",
"  & n 7 o p q g g r _ e j k s t c   ",
"  + u v ^ w g g x y z A B C [ D E   ",
"  # F G 7 / H I g g g g 7 J K L M   ",
"  # J N 8 O v 6 g g g g P Q u R M   ",
"  S T U A : V W g X Y g Z K `  ...  ",
"  % +.@.j #.U < g g g g $.%.&.*.=.  ",
"    ) %.-.> > > O P Z $.;.&.>.)     ",
"      ,.'.a a a Q [ ).` &.!.~.      ",
"        {.z ].].^.` , /.(.~.        ",
"          m _.:.<.[.}.|.1.          ",
"              2.M M 3.              ",
"                                    "};
