/* XPM */
static char * title_3_active_xpm[] = {
"8 22 7 1",
" 	c None",
".	c #000000",
"+	c #DFDFDF",
"@	c #CECECE",
"#	c #838383",
"$	c #494E58",
"%	c #555B66",
"........",
"++++++++",
"@@@@@@@@",
"########",
"$$$$$$$$",
"%%%%%%%%",
"$$$$$$$$",
"%%%%%%%%",
"$$$$$$$$",
"%%%%%%%%",
"$$$$$$$$",
"%%%%%%%%",
"$$$$$$$$",
"%%%%%%%%",
"$$$$$$$$",
"%%%%%%%%",
"$$$$$$$$",
"%%%%%%%%",
"$$$$$$$$",
"%%%%%%%%",
"$$$$$$$$",
"%%%%%%%%"};
