/* XPM */
static char *title-5-inactive[] = {
/* columns rows colors chars-per-pixel */
"8 18 2 1",
"  c #494e58",
". c #555b66",
/* pixels */
"        ",
"........",
"        ",
"........",
"        ",
"........",
"        ",
"........",
"        ",
"........",
"        ",
"........",
"        ",
"........",
"        ",
"........",
"        ",
"........"
};
