/* XPM */
static char * bottom_left_active_xpm[] = {
"22 22 7 1",
"  	c None",
"+	c #FFFFFFFFFFFF",
".	c #000000000000",
"X	c #AEBAB2CAAEBA",
"o	c #E79DE79DE79D",
"@	c #E5E5E5",
"#	c #B2B2B2",
".....                 ",
".+@#.                 ",
".+@#.                 ",
".+@#.                 ",
".+@#.                 ",
".+@#.                 ",
".+@#.                 ",
".+@#.                 ",
".+@#.                 ",
".+@#.                 ",
".+@#.                 ",
".+@#.                 ",
".+@#.                 ",
".+@#.                 ",
".+@#.                 ",
".+@#.                 ",
".+@#.                 ",
".+o+..................",
".+o+++++++++++++++++.+",
".+ooooooooooooooooo+.o",
".+XXXXXXXXXXXXXXXXXo.X",
"......................"};
