/* XPM */
static char * close_active_xpm[] = {
"15 15 21 1",
" 	c None",
".	c #B2B2B2",
"+	c #000000",
"@	c #FFFFFF",
"#	c #B1B1B1",
"$	c #B6B6B6",
"%	c #BABABA",
"&	c #BEBEBE",
"*	c #C3C3C3",
"=	c #C7C7C7",
"-	c #CBCBCB",
";	c #CFCFCF",
">	c #D4D4D4",
",	c #D8D8D8",
"'	c #DCDCDC",
")	c #E1E1E1",
"!	c #E5E5E5",
"~	c #E9E9E9",
"{	c #EDEDED",
"]	c #F2F2F2",
"^	c #F6F6F6",
"....... .......",
".+++++++++++++@",
".+@@@@@@@@@@@+@",
".+@#$%&*=-;>.+@",
".+@$++*=-++,.+@",
".+@%+++-+++'.+@",
".+@&*+++++').+@",
".+@*=-+++')!.+@",
".+@=-+++++!~.+@",
".+@-+++'+++{.+@",
".+@;++')!++].+@",
".+@>,')!~{]^.+@",
".+@..........+@",
".+++++++++++++@",
"@@@@@@@ @@@@@@@"};
