/* XPM */
static char * top_right_inactive_xpm[] = {
"21 31 22 1",
" 	c None",
".	c #000000",
"+	c #FFFFFF",
"@	c #B1B1B1",
"#	c #B2B2B2",
"$	c #B4B4B4",
"%	c #B7B7B7",
"&	c #BABABA",
"*	c #BDBDBD",
"=	c #C0C0C0",
"-	c #C2C2C2",
";	c #C5C5C5",
">	c #C8C8C8",
",	c #CBCBCB",
"'	c #CECECE",
")	c #D1D1D1",
"!	c #D3D3D3",
"~	c #D6D6D6",
"{	c #D9D9D9",
"]	c #DCDCDC",
"^	c #DFDFDF",
"/	c #E5E5E5",
".....................",
"+++++++++.++++++++++.",
"@@@@@@@@#.+@@@@@@@@#.",
"$$$$$$$$#.+$$$$$$$$#.",
"%%%%%%%%#.+%%%%%%%%#.",
"&&&&&&&&#.+&&&&&&&&#.",
"********#.+********#.",
"========#.+========#.",
"--------#.+--------#.",
";;;;;;;;#.+;;;;;;;;#.",
">>>>>>>>#.+>>>>>>>>#.",
",,,,,,,,#.+,,,,,,,,#.",
"''''''''#.+''''''''#.",
"))))))))#.+))))))))#.",
"!!!!!!!!#.+!!!!!!!!#.",
"~~~~~~~~#.+~~~~~~~~#.",
"{{{{{{{{#.+{{{{{{{{#.",
"]]]]]]]]#.+]]]]]]]]#.",
"^^^^^^^^#.+^^^^^^^^#.",
"#########.+#######/#.",
".................+/#.",
"                .+/#.",
"                .+/#.",
"                .+/#.",
"                .+/#.",
"                .+/#.",
"                .+/#.",
"                .+/#.",
"                .+##.",
"                .....",
"                .+++."};
