/* XPM */
static char * top_left_active_xpm[] = {
"21 31 22 1",
" 	c None",
".	c #000000",
"+	c #FFFFFF",
"@	c #B0B0B0",
"#	c #B2B2B2",
"$	c #B3B3B3",
"%	c #B6B6B6",
"&	c #B9B9B9",
"*	c #BCBCBC",
"=	c #BFBFBF",
"-	c #C2C2C2",
";	c #C5C5C5",
">	c #C8C8C8",
",	c #CACACA",
"'	c #CDCDCD",
")	c #D0D0D0",
"!	c #D3D3D3",
"~	c #D6D6D6",
"{	c #D9D9D9",
"]	c #DCDCDC",
"^	c #DFDFDF",
"/	c #E5E5E5",
".....................",
".++++++++++.+++++++++",
".+@@@@@@@@#.+@@@@@@@@",
".+$$$$$$$$#.+$$$$$$$$",
".+%%%%%%%%#.+%%%%%%%%",
".+&&&&&&&&#.+&&&&&&&&",
".+********#.+********",
".+========#.+========",
".+--------#.+--------",
".+;;;;;;;;#.+;;;;;;;;",
".+>>>>>>>>#.+>>>>>>>>",
".+,,,,,,,,#.+,,,,,,,,",
".+''''''''#.+''''''''",
".+))))))))#.+))))))))",
".+!!!!!!!!#.+!!!!!!!!",
".+~~~~~~~~#.+~~~~~~~~",
".+{{{{{{{{#.+{{{{{{{{",
".+]]]]]]]]#.+]]]]]]]]",
".+^^^^^^^^#.+^^^^^^^^",
".+/########.+########",
".+/#.................",
".+/#.                ",
".+/#.                ",
".+/#.                ",
".+/#.                ",
".+/#.                ",
".+/#.                ",
".+/#.                ",
".+##.                ",
".....                ",
".+++.                "};
