/* XPM */
static char * maximize_pressed_xpm[] = {
"11 15 49 1",
" 	c None",
".	c #020202",
"+	c #3E4262",
"@	c #7A7A7A",
"#	c #8C9CBE",
"$	c #BBBBBB",
"%	c #323232",
"&	c #C2CEEA",
"*	c #2E2E2E",
"=	c #7682A2",
"-	c #DEDEDE",
";	c #262626",
">	c #4E566A",
",	c #E2E2E2",
"'	c #B3B3B3",
")	c #96A6D2",
"!	c #F3F3F3",
"~	c #C4C4C4",
"{	c #969696",
"]	c #9F9F9F",
"^	c #7A86AE",
"/	c #2E3249",
"(	c #626A92",
"_	c #AEAEAE",
":	c #464D6E",
"<	c #E6E6E6",
"[	c #8692AE",
"}	c #586185",
"|	c #323652",
"1	c #A6B6DE",
"2	c #AEBEE2",
"3	c #BACAEA",
"4	c #92A2C2",
"5	c #D2D2D2",
"6	c #69729B",
"7	c #EAEAEA",
"8	c #CACACA",
"9	c #DADADA",
"0	c #565E72",
"a	c #262A3E",
"b	c #393D5A",
"c	c #8995C1",
"d	c #A2AED6",
"e	c #727AA6",
"f	c #EEEEEE",
"g	c #5E6692",
"h	c #4A5276",
"i	c #424663",
"j	c #4E567A",
"77<,---,<77",
"f798$'$897!",
"!,~@;.;@~,!",
"!8./|b:i.8!",
"!./bbb+:}.!",
"]/+a...b(i]",
"%+i.....6^%",
".h:.6e^.c).",
"*}}.(gj.d#*",
"{>6:...}30{",
"<.=ccd2&[.<",
"-5.0#140.5-",
"8-7{*.*{7-8",
"'$57f!f75$'",
"]]_$~~~$_]]"};
