/* XPM */
static char * shade_active_xpm[] = {
"11 15 41 1",
" 	c None",
".	c #020202",
"+	c #2E2E2E",
"@	c #727272",
"#	c #969696",
"$	c #AEAEAE",
"%	c #C2C2C2",
"&	c #D2D2D2",
"*	c #666666",
"=	c #DADADA",
"-	c #E2E2E2",
";	c #262626",
">	c #525252",
",	c #EAEAEA",
"'	c #929292",
")	c #EEEEEE",
"!	c #3E3E3E",
"~	c #B2B2B2",
"{	c #868686",
"]	c #9E9E9E",
"^	c #161616",
"/	c #B6B6B6",
"(	c #F2F2F2",
"_	c #C6C6C6",
":	c #7A7A7A",
"<	c #BABABA",
"[	c #6E6E6E",
"}	c #A2A2A2",
"|	c #DEDEDE",
"1	c #E6E6E6",
"2	c #F6F6F6",
"3	c #CACACA",
"4	c #BEBEBE",
"5	c #9A9A9A",
"6	c #323232",
"7	c #767676",
"8	c #D6D6D6",
"9	c #7E7E7E",
"0	c #A6A6A6",
"a	c #424242",
"b	c #565656",
",,1-|||-1,,",
"),=3</<3=,(",
"(-_:;.;:_-(",
"23.'=2='.32",
"(./2((()~.(",
"]:())7,11[]",
"6%,,~^_|=}6",
".31-{.@=&#.",
"+#4=...85*+",
"#>5041&~7!#",
"1.[{9777b.1",
"|&.a*7*!.&|",
"3|,#+.+#,|3",
"~4&,)(),&4~",
"]}$<%_%<$}]"};
