/* XPM */
static char * shade_pressed_xpm[] = {
"11 15 49 1",
" 	c None",
".	c #020202",
"+	c #484E71",
"@	c #7A7A7A",
"#	c #99A9D2",
"$	c #BEBEBE",
"%	c #06060A",
"&	c #CACACA",
"*	c #D2D2D2",
"=	c #262626",
"-	c #DEDEDE",
";	c #7A8AA6",
">	c #616995",
",	c #343652",
"'	c #7E8ABA",
")	c #E2E2E2",
"!	c #8B99C4",
"~	c #AEAEAE",
"{	c #F3F3F3",
"]	c #4E566A",
"^	c #8A9ABA",
"/	c #3A3E59",
"(	c #9EAED6",
"_	c #2E324A",
":	c #7682A8",
"<	c #1E2232",
"[	c #E6E6E6",
"}	c #565E72",
"|	c #969696",
"1	c #9F9F9F",
"2	c #B2B2B2",
"3	c #424A6A",
"4	c #2F2F2F",
"5	c #576086",
"6	c #3E4262",
"7	c #69729E",
"8	c #EAEAEA",
"9	c #B9B9B9",
"0	c #2E3246",
"a	c #DADADA",
"b	c #92A2C2",
"c	c #C4C4C4",
"d	c #EEEEEE",
"e	c #424665",
"f	c #7A89B3",
"g	c #666E9A",
"h	c #8E9EC2",
"i	c #A6B6DE",
"j	c #4D5577",
"88[)---)[88",
"d8a&999&a8{",
"{)c@=.=@c){",
"{&._,/+e.&{",
"{._///6+5.{",
"10666<3j>e1",
"46ee,%j5>f4",
".j++_./>g#.",
"4555...:f^4",
"|]777!!##}|",
"[.:!f'!(;.[",
"-*.}hib}.*-",
"&-8|4.4|8-&",
"2$*8d{d8*$2",
"11~9ccc9~11"};
