/* XPM */
static char * title_2_active_xpm[] = {
"10 19 49 1",
" 	c None",
".	c #020202",
"+	c #4D5C88",
"@	c #929292",
"#	c #B2B2B2",
"$	c #343F6D",
"%	c #BEBEBE",
"&	c #2A2A2A",
"*	c #D2D2D2",
"=	c #F2F2F2",
"-	c #262626",
";	c #888888",
">	c #AEAEAE",
",	c #1E1E1E",
"'	c #767676",
")	c #161A2E",
"!	c #D6D6D6",
"~	c #3A4773",
"{	c #DADADA",
"]	c #9F9F9F",
"^	c #686868",
"/	c #262E42",
"(	c #6979AA",
"_	c #F6F6F6",
":	c #0E101A",
"<	c #495680",
"[	c #6E7EAE",
"}	c #E2E2E2",
"|	c #566290",
"1	c #2F3763",
"2	c #C6C6C6",
"3	c #EBEBEB",
"4	c #1E223A",
"5	c #445080",
"6	c #0A0A11",
"7	c #FAFAFA",
"8	c #AAAAAA",
"9	c #BABABA",
"0	c #5E6A96",
"a	c #262D53",
"b	c #727272",
"c	c #7A8AC2",
"d	c #CBCBCB",
"e	c #FEFEFE",
"f	c #E6E6E6",
"g	c #222648",
"h	c #2A325E",
"i	c #3F4A78",
"j	c #3A4266",
"..........",
"ffffffffff",
"3333f{2%%9",
"===3!2#^,.",
"77_f*;:/<|",
"ee_3@)j+(c",
"ee7}61<(([",
"eee;4i+|00",
"eee&ai<+||",
"ee7.a~5<++",
"==3-g$i555",
"}}*b)1$ii5",
"!!d>6g1$j~",
"dd29':gh11",
"99999'6)ga",
">>>>#98^,.",
"]]]]]]>#99",
"@@@@@@@@@@",
".........."};
