/* XPM */
static char * maximize_pressed_xpm[] = {
"18 18 6 1",
" 	c None",
".  c #FFCB00 s active_color_1",
"+  c #FF9800 s active_color_2",
"@  c #FFFF66 s active_hilight_1",
"$  c #FFE346 s active_hilight_2",
"#  c #FFAF13 s active_shadow_2",
"..................",
"..................",
"..++++++++........",
"..+@@@@@@@@.......",
"..+@###..+@.......",
"..+@#..$.+@+++++..",
"..+@..$.$+@@@@@@..",
"..+@.$.$$+@###+@..",
"..+@..$$@+@$$$+@..",
"..+@++++++@.$$+@..",
"...@@@@@@@@$.$+@..",
".....+@#$.$.$$+@..",
".....+@#$$.$$$+@..",
".....+@#$$$$$$+@..",
".....+@++++++++@..",
".....+@@@@@@@@@@..",
"..................",
".................."};
