/* XPM */
static char * bottom_right_inactive_xpm[] = {
"11 11 17 1",
" 	c None",
".	c #FFFFFF",
"+	c #D3D2D1",
"@	c #737272",
"#	c #000000",
"$	c #D1D0D1",
"%	c #6F6F6F",
"&	c #777678",
"*	c #727171",
"=	c #7A797A",
"-	c #727272",
";	c #7B7B7C",
">	c #DFDFDF",
",	c #737273",
"'	c #717171",
")	c #706F71",
"!	c #414141",
"       .+@#",
"       .$%#",
"       .$&#",
"       .$*#",
"       .$=#",
"       .$-#",
"       .$@#",
"........$;#",
">>$$$$$$$,#",
"''@@')'')!#",
"###########"};
