/* XPM */
static char * close_pressed_xpm[] = {
"17 16 184 2",
"  	c None",
". 	c #B5B4B5",
"+ 	c #B2B2B1",
"@ 	c #AFAEAC",
"# 	c #B0AFB0",
"$ 	c #989798",
"% 	c #646364",
"& 	c #474746",
"* 	c #3C3C3C",
"= 	c #424242",
"- 	c #515050",
"; 	c #6E6D6D",
"> 	c #989796",
", 	c #ABABA9",
"' 	c #AEADAC",
") 	c #ABABAB",
"! 	c #A09F9E",
"~ 	c #A1A0A0",
"{ 	c #9E9D9C",
"] 	c #5A5B59",
"^ 	c #333232",
"/ 	c #454544",
"( 	c #555454",
"_ 	c #5D5C5C",
": 	c #636463",
"< 	c #666564",
"[ 	c #666665",
"} 	c #5B5B5B",
"| 	c #747473",
"1 	c #A3A2A1",
"2 	c #A6A5A4",
"3 	c #A6A5A5",
"4 	c #B0AFAE",
"5 	c #ADADAC",
"6 	c #4E4E4D",
"7 	c #40403F",
"8 	c #5C5C5B",
"9 	c #818080",
"0 	c #B8B8B7",
"a 	c #D0D0D0",
"b 	c #CDCDCD",
"c 	c #BABABA",
"d 	c #9D9D9D",
"e 	c #828181",
"f 	c #757474",
"g 	c #767574",
"h 	c #A3A3A0",
"i 	c #A5A5A3",
"j 	c #A8A7A7",
"k 	c #A8A8A8",
"l 	c #5E5E5D",
"m 	c #3E3D3D",
"n 	c #616161",
"o 	c #ACACAC",
"p 	c #F6F6F6",
"q 	c #F5F5F5",
"r 	c #DEDEDE",
"s 	c #C9C9C9",
"t 	c #BEBEBE",
"u 	c #B6B6B6",
"v 	c #A3A3A3",
"w 	c #8A8A89",
"x 	c #898987",
"y 	c #8C8C8A",
"z 	c #A8A7A5",
"A 	c #AAABAB",
"B 	c #969594",
"C 	c #373736",
"D 	c #5C5B5B",
"E 	c #AEADAD",
"F 	c #FDFDFD",
"G 	c #FBFBFB",
"H 	c #E9E9E9",
"I 	c #AFAFAF",
"J 	c #A7A7A7",
"K 	c #959595",
"L 	c #858585",
"M 	c #969696",
"N 	c #A9AAAA",
"O 	c #ACABAB",
"P 	c #494949",
"Q 	c #818180",
"R 	c #EBEBEB",
"S 	c #CFCFCF",
"T 	c #AAAAAA",
"U 	c #989898",
"V 	c #7C7C7C",
"W 	c #909090",
"X 	c #A8A7A8",
"Y 	c #A8A8A7",
"Z 	c #444544",
"` 	c #595A58",
" .	c #B7B8B7",
"..	c #BFBFBF",
"+.	c #B7B7B7",
"@.	c #B0B0B0",
"#.	c #A5A5A5",
"$.	c #9F9F9F",
"%.	c #828282",
"&.	c #6E6E6D",
"*.	c #A4A4A1",
"=.	c #A5A4A4",
"-.	c #3A3A3A",
";.	c #5F5F5F",
">.	c #DFDFDF",
",.	c #CECECE",
"'.	c #B1B1B1",
").	c #A6A6A6",
"!.	c #A0A0A0",
"~.	c #9B9B9B",
"{.	c #929292",
"].	c #5A5A5A",
"^.	c #434343",
"/.	c #6C6B6B",
"(.	c #CACACA",
"_.	c #A1A1A1",
":.	c #9C9C9C",
"<.	c #8D8D8D",
"[.	c #4F4F4F",
"}.	c #C1C2C1",
"|.	c #A0A09F",
"1.	c #4A4A4A",
"2.	c #656464",
"3.	c #BBBBBB",
"4.	c #979797",
"5.	c #919191",
"6.	c #868686",
"7.	c #737373",
"8.	c #505050",
"9.	c #AFAEAE",
"0.	c #676666",
"a.	c #696868",
"b.	c #9F9E9E",
"c.	c #191919",
"d.	c #333333",
"e.	c #4C4C4C",
"f.	c #CCCCCC",
"g.	c #7D7D7D",
"h.	c #626262",
"i.	c #717071",
"j.	c #BFBEBE",
"k.	c #B6B5B6",
"l.	c #9F9E9F",
"m.	c #666566",
"n.	c #8D8C8D",
"o.	c #A4A4A4",
"p.	c #FFFFFF",
"q.	c #6D6D6D",
"r.	c #4E4E4E",
"s.	c #B1B2B1",
"t.	c #B8B9B8",
"u.	c #B4B3B5",
"v.	c #7E7D7E",
"w.	c #808081",
"x.	c #908F90",
"y.	c #999999",
"z.	c #8B8B8B",
"A.	c #C9C7CA",
"B.	c #B8B6B8",
"C.	c #B2B1B1",
"D.	c #7F7E7E",
"E.	c #8C8B8B",
"F.	c #858584",
"G.	c #838383",
"H.	c #B8B7B5",
"I.	c #A7A7A5",
"J.	c #B0B1B1",
"K.	c #ADAEAE",
"L.	c #919091",
"M.	c #949395",
"N.	c #8D8D8E",
"O.	c #727272",
"P.	c #5C5C5C",
"Q.	c #525252",
"R.	c #AAAAAB",
"S.	c #B8B7B9",
"T.	c #A4A3A4",
"U.	c #ACABAC",
"V.	c #AAA9AA",
"W.	c #ADAEAD",
"X.	c #B9BAB9",
"Y.	c #BCBDBB",
"Z.	c #BDBEBC",
"`.	c #AAA8A9",
". + + @ # $ % & * = - ; > , ' ' ) ",
"! ~ ! { ] ^ / ( _ : < [ } | 1 2 3 ",
"+ 4 5 6 7 8 9 0 a b c d e f g h i ",
"j k l m n o p q r s t u v w x y z ",
"A B C D E F G H b t u I J K L M N ",
"O n P Q p G R S t u I T v U V W X ",
"Y Z `  .p H S ..+.@.) #.$.M %.&.*.",
"=.-.;.a >.,.t +.'.) ).!.~.{.%.].! ",
"# ^./.,.(...u @.) )._.:.M <.V [.}.",
"|.1.2.3.t u @.) )._.:.4.5.6.7.8.9.",
"=.0.a.b.u c.d.e.e.e.e.e.f.g.h.i.j.",
"k.l.m.n.o.f.p.p.p.p.p.p.p.q.r.s.t.",
"u.u.v.w.x.M y.M {.<.6.g.q.8.z.A.B.",
"# C.E D.E.F.g.G.%.V 7.h.r.9 H.I.k ",
"u.J.J.K.L.M.N.O.P.8.Q.O.R.S.=.T.T.",
"A ' ' k U.o.l.V.W.X.Y.Z.'.E A k `."};
