/* XPM */
static char * right_active_xpm[] = {
"4 241 235 2",
"  	c None",
". 	c #FFFFFF",
"+ 	c #A0A0A0",
"@ 	c #727171",
"# 	c #000000",
"$ 	c #D8D8D8",
"% 	c #7A797A",
"& 	c #D1D1D1",
"* 	c #727272",
"= 	c #D0D0D0",
"- 	c #737272",
"; 	c #D9D8D9",
"> 	c #7B7B7C",
", 	c #D3D3D3",
"' 	c #737273",
") 	c #D0CFD0",
"! 	c #706F71",
"~ 	c #DAD9DA",
"{ 	c #7E7D7F",
"] 	c #D4D4D4",
"^ 	c #787878",
"/ 	c #717171",
"( 	c #CCCCCC",
"_ 	c #6B6A6B",
": 	c #CECECE",
"< 	c #6B6A6A",
"[ 	c #CFCECE",
"} 	c #6E6D6D",
"| 	c #D1D0D0",
"1 	c #CFCFCF",
"2 	c #6D6C6D",
"3 	c #CACACA",
"4 	c #6A686A",
"5 	c #B9B9B8",
"6 	c #4F4F4F",
"7 	c #B6B6B6",
"8 	c #4D4D4E",
"9 	c #BCBCBC",
"0 	c #535355",
"a 	c #CFCFD1",
"b 	c #706F72",
"c 	c #C0C0C2",
"d 	c #5A5B5D",
"e 	c #C3C2C5",
"f 	c #5E5D5F",
"g 	c #BBBBBD",
"h 	c #535353",
"i 	c #C5C4C7",
"j 	c #626164",
"k 	c #C7C5C8",
"l 	c #646366",
"m 	c #BCBBBC",
"n 	c #C3C2C3",
"o 	c #615F5F",
"p 	c #C8C6C7",
"q 	c #656364",
"r 	c #CAC9C9",
"s 	c #666665",
"t 	c #C5C2C3",
"u 	c #C5C3C3",
"v 	c #C3C1C1",
"w 	c #5F5D5C",
"x 	c #C2C1C0",
"y 	c #5D5B5A",
"z 	c #C8C6C5",
"A 	c #656462",
"B 	c #C7C6C5",
"C 	c #636361",
"D 	c #C6C5C5",
"E 	c #61605F",
"F 	c #C2C2C1",
"G 	c #5F5F5C",
"H 	c #C7C7C6",
"I 	c #626161",
"J 	c #C9C8C7",
"K 	c #666664",
"L 	c #C4C4C2",
"M 	c #5F5F5D",
"N 	c #C5C5C3",
"O 	c #C7C7C5",
"P 	c #626361",
"Q 	c #BFBFBD",
"R 	c #565755",
"S 	c #C6C6C4",
"T 	c #616161",
"U 	c #BEBEBB",
"V 	c #575855",
"W 	c #C8C8C7",
"X 	c #636462",
"Y 	c #5F5F5E",
"Z 	c #636461",
"` 	c #646462",
" .	c #5F605E",
"..	c #C7C7C7",
"+.	c #D2D1D2",
"@.	c #CECDCD",
"#.	c #6A6A6A",
"$.	c #CDCCCC",
"%.	c #6C6B6B",
"&.	c #D3D2D3",
"*.	c #747374",
"=.	c #CAC9CA",
"-.	c #666666",
";.	c #6D6D6B",
">.	c #CBCACA",
",.	c #6D6C6C",
"'.	c #6E6D6C",
").	c #686868",
"!.	c #D1D0CF",
"~.	c #706F6F",
"{.	c #D2D1D1",
"].	c #737271",
"^.	c #D0CFCE",
"/.	c #706F6E",
"(.	c #CCCBCA",
"_.	c #6C6B68",
":.	c #CECDCC",
"<.	c #6F6E6C",
"[.	c #CACAC7",
"}.	c #686865",
"|.	c #C9C8C6",
"1.	c #666662",
"2.	c #C9C9C7",
"3.	c #686764",
"4.	c #C5C5C2",
"5.	c #62615F",
"6.	c #CFCECC",
"7.	c #6E6D6A",
"8.	c #C7C6C3",
"9.	c #64645F",
"0.	c #C8C8C5",
"a.	c #656461",
"b.	c #CECDCA",
"c.	c #6C6C6A",
"d.	c #C0C1BF",
"e.	c #585856",
"f.	c #BFBFBC",
"g.	c #71716F",
"h.	c #D1D1CF",
"i.	c #CCCCCA",
"j.	c #CFCFCE",
"k.	c #CBCAC8",
"l.	c #6A6866",
"m.	c #6A6865",
"n.	c #CECECC",
"o.	c #6F6E6A",
"p.	c #CBCAC7",
"q.	c #D1D1CE",
"r.	c #72716D",
"s.	c #CDCCC8",
"t.	c #6C6A65",
"u.	c #6A6A64",
"v.	c #D6D4D1",
"w.	c #777671",
"x.	c #D0CFCC",
"y.	c #706F6A",
"z.	c #706F6B",
"A.	c #D1CFCE",
"B.	c #716F6C",
"C.	c #D4D4D1",
"D.	c #767672",
"E.	c #D1D0CE",
"F.	c #74736F",
"G.	c #CCCBC9",
"H.	c #D5D4D3",
"I.	c #767673",
"J.	c #CECDCB",
"K.	c #D6D6D4",
"L.	c #7A7977",
"M.	c #D6D5D3",
"N.	c #787874",
"O.	c #D9D8D7",
"P.	c #7B7A78",
"Q.	c #D4D4D2",
"R.	c #767472",
"S.	c #D3D2D1",
"T.	c #D9D9D8",
"U.	c #7C7B7A",
"V.	c #D7D6D6",
"W.	c #7B7A7A",
"X.	c #D6D5D4",
"Y.	c #797877",
"Z.	c #D8D6D6",
"`.	c #7C7C7A",
" +	c #7F7E7E",
".+	c #D3D3D2",
"++	c #767473",
"@+	c #D6D5D5",
"#+	c #D8D7D7",
"$+	c #D5D5D5",
"%+	c #777676",
"&+	c #727271",
"*+	c #70716F",
"=+	c #6F6E6E",
"-+	c #CECECD",
";+	c #6F6F6E",
">+	c #6A6A68",
",+	c #C9C9C9",
"'+	c #686866",
")+	c #CACAC9",
"!+	c #C6C6C5",
"~+	c #DAD9D9",
"{+	c #7F7F7F",
"]+	c #D4D3D3",
"^+	c #767674",
"/+	c #D3D3D1",
"(+	c #747372",
"_+	c #7B7978",
":+	c #7E7D7E",
"<+	c #D9D9D9",
"[+	c #7C7C7C",
"}+	c #D6D6D5",
"|+	c #797878",
"1+	c #D9D8D8",
"2+	c #7B7B7A",
"3+	c #DCDBDC",
"4+	c #7F7F81",
"5+	c #DEDDDE",
"6+	c #838283",
"7+	c #747373",
"8+	c #737171",
"9+	c #787877",
"0+	c #6F6D6D",
"a+	c #767475",
"b+	c #D8D8D7",
"c+	c #7A7A7A",
"d+	c #D1D1D0",
"e+	c #CDCCCD",
"f+	c #D3D2D2",
"g+	c #D7D6D7",
"h+	c #7B7C7B",
"i+	c #DBDADB",
"j+	c #7F7E7F",
"k+	c #D1D0D1",
"l+	c #6F6F6F",
". + @ # ",
". $ % # ",
". & * # ",
". = - # ",
". ; > # ",
". , ' # ",
". ) ! # ",
". ~ { # ",
". = @ # ",
". ] ^ # ",
". & / # ",
". ( _ # ",
". : < # ",
". [ } # ",
". | / # ",
". 1 2 # ",
". 3 4 # ",
". 5 6 # ",
". 7 8 # ",
". 9 0 # ",
". a b # ",
". c d # ",
". e f # ",
". g h # ",
". i j # ",
". k l # ",
". m h # ",
". n o # ",
". p q # ",
". r s # ",
". t o # ",
". u o # ",
". v w # ",
". x y # ",
". z A # ",
". B C # ",
". D E # ",
". F G # ",
". H I # ",
". J K # ",
". L M # ",
". N I # ",
". O P # ",
". Q R # ",
". S P # ",
". O T # ",
". U V # ",
". W X # ",
". L Y # ",
". N Z # ",
". O P # ",
". H ` # ",
". O A # ",
". N  .# ",
". W Z # ",
". ..T # ",
". +.@ # ",
". @.#.# ",
". [ } # ",
". $.%.# ",
". &.*.# ",
". =.-.# ",
". H P # ",
". ( ;.# ",
". >.< # ",
". : ,.# ",
". ( '.# ",
". >.).# ",
". !.~.# ",
". 3 ).# ",
". {.].# ",
". ( < # ",
". ^./.# ",
". !./.# ",
". (._.# ",
". :.<.# ",
". [.}.# ",
". |.1.# ",
". 2.3.# ",
". 4.5.# ",
". 6.7.# ",
". 8.9.# ",
". 0.a.# ",
". b.c.# ",
". |.a.# ",
". B A # ",
". H X # ",
". d.e.# ",
". O ` # ",
". H P # ",
". f.e.# ",
". W X # ",
". L Y # ",
". N Z # ",
". O P # ",
". H ` # ",
". O A # ",
". N  .# ",
". W Z # ",
". ..T # ",
". +.@ # ",
". @.#.# ",
". [ } # ",
". $.%.# ",
". &.*.# ",
". =.-.# ",
". H P # ",
". ( ;.# ",
". >.< # ",
". : ,.# ",
". ( '.# ",
". >.).# ",
". !.~.# ",
". 3 ).# ",
". {.].# ",
". ( < # ",
". !.g.# ",
". h.g.# ",
". i.7.# ",
". j.g.# ",
". k.l.# ",
". k.m.# ",
". n.o.# ",
". p.m.# ",
". q.r.# ",
". s.t.# ",
". s.u.# ",
". v.w.# ",
". x.y.# ",
". 6.z.# ",
". A.B.# ",
". C.D.# ",
". E.F.# ",
". G._.# ",
". H.I.# ",
". J.7.# ",
". K.L.# ",
". M.N.# ",
". O.P.# ",
". Q.R.# ",
". S.].# ",
". T.U.# ",
". V.W.# ",
". X.Y.# ",
". Z.`.# ",
". T. +# ",
". .+++# ",
". S.].# ",
". @+Y.# ",
". #+W.# ",
". !.@ # ",
". $+%+# ",
". {.&+# ",
". [ '.# ",
". !.*+# ",
". [ =+# ",
". -+;+# ",
". i.>+# ",
". ,+'+# ",
". )+l.# ",
". !+I # ",
". W Z # ",
". ..T # ",
". +.@ # ",
". @.#.# ",
". [ } # ",
". $.%.# ",
". &.*.# ",
". =.-.# ",
". H P # ",
". ( ;.# ",
". >.< # ",
". : ,.# ",
". ( '.# ",
". >.).# ",
". !.~.# ",
". 3 ).# ",
". {.].# ",
". ( < # ",
". !.g.# ",
". h.g.# ",
". i.7.# ",
". j.g.# ",
". k.l.# ",
". k.m.# ",
". n.o.# ",
". p.m.# ",
". q.r.# ",
". s.t.# ",
". s.u.# ",
". v.w.# ",
". x.y.# ",
". 6.z.# ",
". A.B.# ",
". C.D.# ",
". E.F.# ",
". G._.# ",
". H.I.# ",
". J.7.# ",
". K.L.# ",
". M.N.# ",
". O.P.# ",
". Q.R.# ",
". S.].# ",
". T.U.# ",
". V.W.# ",
". X.Y.# ",
". Z.`.# ",
". ~+{+# ",
". ]+^+# ",
". /+(+# ",
". V._+# ",
". ~ :+# ",
". ]+%+# ",
". <+[+# ",
". }+|+# ",
". 1+W.# ",
". #+2+# ",
". 3+4+# ",
". 5+6+# ",
". #+W.# ",
". {.7+# ",
". ~ :+# ",
". {.8+# ",
". @+9+# ",
". :.0+# ",
". ] a+# ",
". {.- # ",
". .+&+# ",
". S.7+# ",
". b+c+# ",
". ~ :+# ",
". d+&+# ",
". >.#.# ",
". @+9+# ",
". e+%.# ",
". f+- # ",
". g+h+# ",
". i+j+# ",
". S.- # ",
". k+l+# "};
