/* XPM */
static char * shade_inactive_xpm[] = {
"11 16 119 2",
"  	c None",
". 	c #A5A4A3",
"+ 	c #A1A1A0",
"@ 	c #6C6C6B",
"# 	c #595858",
"$ 	c #585858",
"% 	c #595859",
"& 	c #777777",
"* 	c #ABABA9",
"= 	c #A8A8A5",
"- 	c #686867",
"; 	c #9F9F9F",
"> 	c #A7A7A7",
", 	c #9C9C9C",
"' 	c #8D8D8D",
") 	c #797979",
"! 	c #5B5B5B",
"~ 	c #4B4B4B",
"{ 	c #3A3A3A",
"] 	c #9E9E9D",
"^ 	c #A2A1A0",
"/ 	c #545453",
"( 	c #B7B7B7",
"_ 	c #FEFEFE",
": 	c #DDDDDD",
"< 	c #BBBBBB",
"[ 	c #A0A0A0",
"} 	c #787878",
"| 	c #515151",
"1 	c #090909",
"2 	c #AFAEAD",
"3 	c #ACABAC",
"4 	c #585957",
"5 	c #E0E0E0",
"6 	c #989898",
"7 	c #878787",
"8 	c #595959",
"9 	c #484848",
"0 	c #070707",
"a 	c #B0B0AF",
"b 	c #AAABA9",
"c 	c #585757",
"d 	c #9A9A9A",
"e 	c #C2C2C2",
"f 	c #909090",
"g 	c #767676",
"h 	c #565656",
"i 	c #464646",
"j 	c #AEAFAD",
"k 	c #BAB9B8",
"l 	c #606060",
"m 	c #8A8A8A",
"n 	c #ABABAB",
"o 	c #888888",
"p 	c #424242",
"q 	c #C1C2C1",
"r 	c #A1A09F",
"s 	c #535352",
"t 	c #939393",
"u 	c #5C5C5C",
"v 	c #535353",
"w 	c #4A4A4A",
"x 	c #3E3E3E",
"y 	c #BAB9B9",
"z 	c #9F9E9E",
"A 	c #525251",
"B 	c #6F6F6F",
"C 	c #8B8B8B",
"D 	c #545454",
"E 	c #444444",
"F 	c #363636",
"G 	c #B9B9B9",
"H 	c #BEBCBE",
"I 	c #646463",
"J 	c #686868",
"K 	c #818181",
"L 	c #2D2D2D",
"M 	c #DAD8D9",
"N 	c #AAA8AB",
"O 	c #585857",
"P 	c #616161",
"Q 	c #737373",
"R 	c #383838",
"S 	c #313131",
"T 	c #282828",
"U 	c #C7C7C7",
"V 	c #585959",
"W 	c #2F2F2F",
"X 	c #262626",
"Y 	c #C4C3C2",
"Z 	c #2A2A2A",
"` 	c #232323",
" .	c #D0CFCE",
"..	c #A2A1A1",
"+.	c #C3C4C4",
"@.	c #AFAEAE",
"#.	c #616060",
"$.	c #212121",
"%.	c #1A1A1A",
"&.	c #050505",
"*.	c #D2D1D2",
"=.	c #B2B1B2",
"-.	c #848485",
";.	c #3C3C3C",
">.	c #060606",
",.	c #040404",
"'.	c #403F40",
").	c #D3D1D4",
"!.	c #B0AFB1",
"~.	c #ABA9A9",
"{.	c #ABA9AA",
"].	c #B6B5B6",
"^.	c #B8B7B7",
"/.	c #BCBBBC",
"(.	c #C1C0C0",
"_.	c #C5C4C6",
":.	c #C8C7C9",
"<.	c #C6C5C7",
"[.	c #AEADAE",
". + @ # $ $ % % % & * ",
"= - ; > , ' ) ! ~ { ] ",
"^ / ( _ : < [ } | 1 2 ",
"3 4 > 5 [ 6 7 8 9 0 a ",
"b c d e 6 f g h i 0 j ",
"k l m n o & 8 | p 0 q ",
"r s g t u 8 v w x 0 y ",
"z A B C D | w E F 0 G ",
"H I J K ~ 9 p { L 0 M ",
"N O P Q p x R S T 0 U ",
"n V ! P F S W L X 0 Y ",
"n 8 h w S W L Z ` 0  .",
"..v | F W L Z Z ` 0 +.",
"@.#.p T ` $.$.$.%.&.*.",
"=.-.;.>.&.&.&.&.,.'.).",
"!.~.{.].^./.(._.:.<.[."};
