/* XPM */
static char * title_4_active_xpm[] = {
"10 20 115 2",
"  	c None",
". 	c #FFFFFF",
"+ 	c #E0E0DF",
"@ 	c #DFDEDE",
"# 	c #E0DFDF",
"$ 	c #E1E0E0",
"% 	c #E2E1E1",
"& 	c #E3E2E2",
"* 	c #E4E3E3",
"= 	c #E4E4E4",
"- 	c #4E4E4E",
"; 	c #494949",
"> 	c #575757",
", 	c #858584",
"' 	c #ABABAB",
") 	c #ACABAC",
"! 	c #B5B4B6",
"~ 	c #C4C4C4",
"{ 	c #AAAAAA",
"] 	c #949494",
"^ 	c #828282",
"/ 	c #6F6F6F",
"( 	c #6A6969",
"_ 	c #A2A1A0",
": 	c #A6A5A5",
"< 	c #A8A8A8",
"[ 	c #A2A3A1",
"} 	c #989898",
"| 	c #919191",
"1 	c #8B8B8B",
"2 	c #878787",
"3 	c #8A8A8A",
"4 	c #797978",
"5 	c #A1A1A1",
"6 	c #B2B3B1",
"7 	c #B3B3B3",
"8 	c #B0B0B0",
"9 	c #ADADAD",
"0 	c #A9A9A9",
"a 	c #A2A2A2",
"b 	c #929292",
"c 	c #999999",
"d 	c #898989",
"e 	c #A8A7A7",
"f 	c #969696",
"g 	c #939393",
"h 	c #8F8F8F",
"i 	c #838383",
"j 	c #7F7F7F",
"k 	c #9B9A9A",
"l 	c #AAABAB",
"m 	c #A7A7A7",
"n 	c #A4A4A4",
"o 	c #9C9C9C",
"p 	c #888888",
"q 	c #979797",
"r 	c #A8A8A7",
"s 	c #909090",
"t 	c #8E8E8E",
"u 	c #868686",
"v 	c #7B7B7B",
"w 	c #777777",
"x 	c #BDBDBD",
"y 	c #AAABA8",
"z 	c #A5A5A5",
"A 	c #9B9B9B",
"B 	c #707070",
"C 	c #C8C8C8",
"D 	c #8D8D8D",
"E 	c #8C8C8C",
"F 	c #848484",
"G 	c #797979",
"H 	c #626262",
"I 	c #D7D7D7",
"J 	c #B2B1B1",
"K 	c #A6A6A6",
"L 	c #858585",
"M 	c #7E7E7E",
"N 	c #D9D9D9",
"O 	c #A1A0A0",
"P 	c #7D7D7D",
"Q 	c #6C6C6C",
"R 	c #D4D4D3",
"S 	c #A4A3A3",
"T 	c #A3A3A3",
"U 	c #818181",
"V 	c #E7E7E7",
"W 	c #BBBBBB",
"X 	c #7C7C7C",
"Y 	c #717171",
"Z 	c #7A7A7A",
"` 	c #D0D0D0",
" .	c #DBDBDB",
"..	c #A1A0A1",
"+.	c #B2B2B3",
"@.	c #757575",
"#.	c #959595",
"$.	c #EBEBEB",
"%.	c #AFAEAF",
"&.	c #AFAEAD",
"*.	c #696969",
"=.	c #767676",
"-.	c #CBCBCB",
";.	c #E9E9E9",
">.	c #E2E3E3",
",.	c #B4B5B5",
"'.	c #B2B3B3",
").	c #DEDEDE",
"!.	c #D9D8D9",
"~.	c #BBBABA",
"{.	c #AEADAD",
"].	c #AEADAE",
"^.	c #ABABAC",
"/.	c #79787A",
"(.	c #000000",
". . . . . . . . . . ",
"+ @ # # $ % & * = * ",
"- - ; > , ' ) ) ) ! ",
"~ { ] ^ / ( _ : < [ ",
"} ] | 1 2 3 4 5 : 6 ",
"7 8 9 0 a b c d e : ",
"f g | h 1 i j a k l ",
"8 9 { m n o p q { r ",
"] b s t 1 u v w x y ",
"9 { < z a A h B C r ",
"| s D E d F G H I J ",
"0 K n 5 o ] L M N O ",
"h D 3 p i P Q 8 R S ",
"T 5 o q s U L V W ! ",
"p L U X Y Z `  ...+.",
"b t i @.#.I $.%.) &.",
"*.=.] -.;.>.,.'.'.+.",
").).N !.~.) {.].].^.",
"/./././././././././.",
"(.(.(.(.(.(.(.(.(.(."};
