/* XPM */
static char * title_3_inactive_xpm[] = {
"10 20 48 1",
" 	c None",
".	c #FFFFFF",
"+	c #E3E3E3",
"@	c #E4E4E3",
"#	c #E4E4E2",
"$	c #E3E3E2",
"%	c #E4E3E3",
"&	c #3F3E3E",
"*	c #3E3D3D",
"=	c #3D3D3C",
"-	c #3C3C3C",
";	c #3C3C3B",
">	c #DADADA",
",	c #D9D9D9",
"'	c #9F9F9F",
")	c #9F9F9E",
"!	c #9E9E9E",
"~	c #9E9D9D",
"{	c #9E9D9E",
"]	c #BABABA",
"^	c #BABAB9",
"/	c #B9B9B8",
"(	c #B9B8B8",
"_	c #797979",
":	c #7A7979",
"<	c #A6A5A6",
"[	c #A6A6A6",
"}	c #6E6D6E",
"|	c #6D6D6D",
"1	c #9C9C9C",
"2	c #9B9B9B",
"3	c #9A9A9A",
"4	c #636363",
"5	c #909090",
"6	c #555555",
"7	c #818181",
"8	c #808081",
"9	c #808080",
"0	c #454445",
"a	c #454545",
"b	c #585858",
"c	c #595858",
"d	c #595959",
"e	c #1D1D1D",
"f	c #1C1C1C",
"g	c #CECDCE",
"h	c #747475",
"i	c #000000",
"..........",
"++++@@#$$%",
"&&**==-;;-",
">>>>,,,,,,",
"''))''!~~{",
"]]]]]]^//(",
"__::______",
"<<<<<<<<<[",
"}}||||||||",
"1111111123",
"4444444444",
"5555555555",
"6666666666",
"7788999997",
"00aa000000",
"bbcccccddd",
"eeeeeeffff",
"gggggggggg",
"hhhhhhhhhh",
"iiiiiiiiii"};
