/* XPM */
static char * title_5_active_xpm[] = {
"10 19 20 1",
" 	c None",
".	c #000000",
"+	c #E5E5E5",
"@	c #EAEAEA",
"#	c #F1F1F1",
"$	c #F8F8F8",
"%	c #FCFCFC",
"&	c #FDFDFD",
"*	c #FEFEFE",
"=	c #F2F2F2",
"-	c #E2E2E2",
";	c #D5D5D5",
">	c #C8C8C8",
",	c #BABABA",
"'	c #ADADAD",
")	c #9F9F9F",
"!	c #929292",
"~	c #949494",
"{	c #979797",
"]	c #919191",
"..........",
"++++++++++",
"@@@@@@@@@@",
"##########",
"$$$$$$$$$$",
"%%%%%%%%%%",
"&&&&&&&&&&",
"**********",
"**********",
"%%%%%%%%%%",
"==========",
"----------",
";;;;;;;;;;",
">>>>>>>>>>",
",,,,,,,,,,",
"''''''''''",
"))))))))))",
"!~{{{~!]]]",
".........."};
