/* XPM */
static char * top_right_active_xpm[] = {
"5 19 44 1",
" 	c None",
".	c #000000",
"+	c #E5E5E5",
"@	c #E4E4E4",
"#	c #E0E0E0",
"$	c #EAEAEA",
"%	c #E8E8E8",
"&	c #E2E2E2",
"*	c #F1F1F1",
"=	c #EFEFEF",
"-	c #E9E9E9",
";	c #F7F7F7",
">	c #FAFAFA",
",	c #FCFCFC",
"'	c #F5F5F5",
")	c #FDFDFD",
"!	c #F3F3F3",
"~	c #EDEDED",
"{	c #FBFBFB",
"]	c #F9F9F9",
"^	c #F6F6F6",
"/	c #D9D9D9",
"(	c #ECECEC",
"_	c #CACACA",
":	c #E6E6E6",
"<	c #DDDDDD",
"[	c #BABABA",
"}	c #DCDCDC",
"|	c #D1D1D1",
"1	c #ADADAD",
"2	c #CECECE",
"3	c #C7C7C7",
"4	c #A2A2A2",
"5	c #BDBDBD",
"6	c #C1C1C1",
"7	c #9A9A9A",
"8	c #BFBFBF",
"9	c #949494",
"0	c #B1B1B1",
"a	c #D2D2D2",
"b	c #919191",
"c	c #B9B9B9",
"d	c #DEDEDE",
"e	c #909090",
".....",
"++@#.",
"$$%&.",
"**=-.",
";;;*.",
">>,'.",
",,)!.",
",,)~.",
",,{@.",
"]]^/.",
"**(_.",
"::<[.",
"}}|1.",
"2234.",
"5567.",
"1189.",
"0a3b.",
"cd2e.",
".(|b."};
