/* XPM */
static char *close-pressed[] = {
/* width height num_colors chars_per_pixel */
"    16    19      256            2",
/* colors */
"`` c #4a4d4a",
"`. c #313031",
"`# c #f6f1ed",
"`a c #f0ece5",
"`b c #c2bfb9",
"`c c #66652d",
"`d c #959287",
"`e c #ecebe1",
"`f c #d9e5ca",
"`g c #dbe5cc",
"`h c #eeebe3",
"`i c #cac6c0",
"`j c #646241",
"`k c #c1beb9",
"`l c #e9e5dc",
"`m c #bcb9b2",
"`n c #7f7f42",
"`o c #fdfc5f",
"`p c #aba32d",
"`q c #2c840e",
"`r c #2db500",
"`s c #2fb600",
"`t c #3aab12",
"`u c #7d8140",
"`v c #fbed52",
"`w c #736629",
"`x c #bbb8b1",
"`y c #e2dfd4",
"`z c #b6b4ab",
"`A c #7e7e40",
"`B c #fdfa72",
"`C c #fef04d",
"`D c #fbe733",
"`E c #7f7a1a",
"`F c #2c9900",
"`G c #36b500",
"`H c #506e20",
"`I c #f8ec6d",
"`J c #ffd94d",
"`K c #f8ce28",
"`L c #6d5c21",
"`M c #b5b3aa",
"`N c #dcd8cb",
"`O c #62613d",
"`P c #fcf850",
"`Q c #feec49",
"`R c #fee632",
"`S c #fee230",
"`T c #f9db2d",
"`U c #5e6212",
"`V c #3e6715",
"`W c #ede267",
"`X c #ffd657",
"`Y c #fece27",
"`Z c #fdca24",
"`0 c #eebb20",
"`1 c #4f4018",
"`2 c #d6d2c3",
"`3 c #adaa9e",
"`4 c #867924",
"`5 c #fcdf2f",
"`6 c #fede2e",
"`7 c #fedb2c",
"`8 c #fed72a",
".` c #f5ce29",
".. c #e2cd57",
".# c #ffd45f",
".a c #feca28",
".b c #fec722",
".c c #f7be1f",
".d c #a57e14",
".e c #847f70",
".f c #d0ccba",
".g c #489525",
".h c #7e7515",
".i c #fcd42a",
".j c #fed328",
".k c #fed026",
".l c #fecd25",
".m c #feca33",
".n c #fec627",
".o c #fec220",
".p c #f7ba1d",
".q c #a97e13",
".r c #4e6e2d",
".s c #c9c6b2",
".t c #3fbb09",
".u c #309200",
".v c #877414",
".w c #fdcb24",
".x c #fec823",
".y c #fec521",
".z c #fec21f",
".A c #febe1d",
".B c #f8b71b",
".C c #ab7d12",
".D c #367301",
".E c #61c91d",
".F c #c2c0a9",
".G c #42be08",
".H c #44c300",
".I c #2f7d01",
".J c #c19f25",
".K c #fec222",
".L c #febd1d",
".M c #feba1b",
".N c #feb71a",
".O c #e09f16",
".P c #305901",
".Q c #59d300",
".R c #64cb1b",
".S c #bcbaa1",
".T c #57be1e",
".U c #41b600",
".V c #6f772c",
".W c #fdce65",
".X c #feba2a",
".Y c #feb619",
".Z c #feb317",
".0 c #feaf16",
".1 c #faaa14",
".2 c #815d09",
".3 c #4eb000",
".4 c #76ca30",
".5 c #b6b398",
".6 c #7cb34f",
".7 c #566b20",
".8 c #f9cc6e",
"#` c #feb74b",
"#. c #feb219",
"## c #fcad15",
"#a c #fcaa14",
"#b c #fea812",
"#c c #fea410",
"#d c #f99e0f",
"#e c #645206",
"#f c #8bad5c",
"#g c #b0ad90",
"#h c #afac8f",
"#i c #645d40",
"#j c #eec162",
"#k c #ffb555",
"#l c #fead1a",
"#m c #f9a713",
"#n c #bc7c0e",
"#o c #a0680a",
"#p c #fc9f0e",
"#q c #fe9d0c",
"#r c #fd9a0b",
"#s c #ee8d09",
"#t c #594221",
"#u c #aaa78b",
"#v c #a9a687",
"#w c #a3a082",
"#x c #65501e",
"#y c #fbaf39",
"#z c #fea91a",
"#A c #f9a311",
"#B c #bc790c",
"#C c #3f6801",
"#D c #4d9500",
"#E c #a56507",
"#F c #fc9509",
"#G c #fc9107",
"#H c #e88305",
"#I c #57350b",
"#J c #99977a",
"#K c #a2a07f",
"#L c #828166",
"#M c #65450f",
"#N c #f0990e",
"#O c #bd760a",
"#P c #3b6302",
"#Q c #65d900",
"#R c #6bdd00",
"#S c #4b8a05",
"#T c #a75e03",
"#U c #e77e03",
"#V c #5a3609",
"#W c #828066",
"#X c #9c9a76",
"#Y c #7d7b5e",
"#Z c #51360c",
"#0 c #564c31",
"#1 c #989b70",
"#2 c #92a462",
"#3 c #93a463",
"#4 c #9a9b72",
"#5 c #646048",
"#6 c #462a09",
"#7 c #96946e",
"#8 c #000000",
"a` c #000000",
"a. c #000000",
"a# c #000000",
"aa c #000000",
"ab c #000000",
"ac c #000000",
"ad c #000000",
"ae c #000000",
"af c #000000",
"ag c #000000",
"ah c #000000",
"ai c #000000",
"aj c #000000",
"ak c #000000",
"al c #000000",
"am c #000000",
"an c #000000",
"ao c #000000",
"ap c #000000",
"aq c #000000",
"ar c #000000",
"as c #000000",
"at c #000000",
"au c #000000",
"av c #000000",
"aw c #000000",
"ax c #000000",
"ay c #000000",
"az c #000000",
"aA c #000000",
"aB c #000000",
"aC c #000000",
"aD c #000000",
"aE c #000000",
"aF c #000000",
"aG c #000000",
"aH c #000000",
"aI c #000000",
"aJ c #000000",
"aK c #000000",
"aL c #000000",
"aM c #000000",
"aN c #000000",
"aO c #000000",
"aP c #000000",
"aQ c #000000",
"aR c #000000",
"aS c #000000",
"aT c #000000",
"aU c #000000",
"aV c #000000",
"aW c #000000",
"aX c #000000",
"aY c #000000",
"aZ c #000000",
"a0 c #000000",
"a1 c #000000",
"a2 c #000000",
"a3 c #000000",
"a4 c #000000",
"a5 c #000000",
"a6 c #000000",
"a7 c #000000",
"a8 c #000000",
/* pixels */
"````````````````````````````````",
"`.`.`.`.`.`.`.`.`.`.`.`.`.`.`.`.",
"`#`#`#`#`#`#`#`#`#`#`#`#`#`#`#`#",
"`a`a`a`b`c`d`e`f`g`h`i`j`k`a`a`a",
"`l`l`m`n`o`p`q`r`s`t`u`v`w`x`l`l",
"`y`z`A`B`C`D`E`F`G`H`I`J`K`L`M`y",
"`N`O`P`Q`R`S`T`U`V`W`X`Y`Z`0`1`N",
"`2`3`4`5`6`7`8.`...#.a.b.c.d.e`2",
".f.f.g.h.i.j.k.l.m.n.o.p.q.r.f.f",
".s.s.t.u.v.w.x.y.z.A.B.C.D.E.s.s",
".F.F.G.H.I.J.K.L.M.N.O.P.Q.R.F.F",
".S.S.T.U.V.W.X.Y.Z.0.1.2.3.4.S.S",
".5.5.6.7.8#`#.###a#b#c#d#e#f.5.5",
"#g#h#i#j#k#l#m#n#o#p#q#r#s#t#u#g",
"#v#w#x#y#z#A#B#C#D#E#F#G#H#I#J#v",
"#K#K#L#M#N#O#P#Q#R#S#T#U#V#W#K#K",
"#X#X#X#Y#Z#0#1#2#3#4#5#6#Y#X#X#X",
"#7#7#7#7#7#7#7#7#7#7#7#7#7#7#7#7",
"`.`.`.`.`.`.`.`.`.`.`.`.`.`.`.`."
};
