/* XPM */
static char * bottom_left_inactive_xpm[] = {
"22 22 5 1",
" 	c None",
".	c #000000",
"+	c #C7C7C7",
"@	c #AAAAAA",
"#	c #D5D5D5",
".+@@@@                ",
".####@                ",
".#+++@                ",
".#+++@                ",
".#+++@                ",
".#+++@                ",
".#+++@                ",
".#+++@                ",
".#+++@                ",
".#+++@                ",
".#+++@                ",
".#+++@                ",
".#+++@                ",
".#+++@                ",
".#+++@                ",
".#+++@                ",
".#++++@@@@@@@@@@@@@@@@",
" .#++++##############+",
" .#++++++++++++++++++@",
"  .@@++++++++++++++++@",
"   ..@@@@@@@@@@@@@@@@@",
"     ................."};
