/* XPM */
static char * close_active_xpm[] = {
"18 20 67 1",
" 	c None",
".	c #FFFFFF",
"+	c #A1A1A1",
"@	c #A5A5A5",
"#	c #A9A9A9",
"$	c #AEAEAE",
"%	c #B2B2B2",
"&	c #B7B7B7",
"*	c #BBBBBB",
"=	c #C0C0C0",
"-	c #C4C4C4",
";	c #C9C9C9",
">	c #CDCDCD",
",	c #D2D2D2",
"'	c #D6D6D6",
")	c #DBDBDB",
"!	c #DFDFDF",
"~	c #E4E4E4",
"{	c #E8E8E8",
"]	c #FDFDFD",
"^	c #C6C6C6",
"/	c #C8C8C8",
"(	c #CBCBCB",
"_	c #CCCCCC",
":	c #CECECE",
"<	c #CFCFCF",
"[	c #D0D0D0",
"}	c #D3D3D3",
"|	c #D5D5D5",
"1	c #D8D8D8",
"2	c #D9D9D9",
"3	c #DCDCDC",
"4	c #FCFCFC",
"5	c #DDDDDD",
"6	c #FBFBFB",
"7	c #FAFAFA",
"8	c #3F3F3F",
"9	c #404040",
"0	c #424242",
"a	c #E0E0E0",
"b	c #F9F9F9",
"c	c #414141",
"d	c #434343",
"e	c #E2E2E2",
"f	c #F8F8F8",
"g	c #444444",
"h	c #E3E3E3",
"i	c #F7F7F7",
"j	c #E5E5E5",
"k	c #F6F6F6",
"l	c #E6E6E6",
"m	c #F5F5F5",
"n	c #454545",
"o	c #E7E7E7",
"p	c #E9E9E9",
"q	c #F3F3F3",
"r	c #EAEAEA",
"s	c #F2F2F2",
"t	c #464646",
"u	c #ECECEC",
"v	c #F1F1F1",
"w	c #474747",
"x	c #EDEDED",
"y	c #F0F0F0",
"z	c #EFEFEF",
"A	c #EBEBEB",
"B	c #F4F4F4",
"..................",
".+@#$%&*=-;>,')!~{",
"]@^/;(_:<[,}|'12)3",
"4#/;(_:<[,}|'12)35",
"6$;(_:<[,}|'12)35!",
"7%(_:<[89|'12005!a",
"b&_:<[899c1200ddae",
"f*:<[,99cc000ddgeh",
"i=<[,}|cc000ddgehj",
"k-[,}|'1000ddgehjl",
"m;}|'12)0ddggnjlop",
"q>|'12)0ddggnnnopr",
"s,'12)0ddggnnnttru",
"v'12)3ddgghjnttwux",
"y)2)35!gghjlotwuxz",
"z!)35!aehjlopruxzy",
"x~35!aehjlopruxzys",
"u{5!aehjlopruxzysq",
"Ax!aehjlopruxzysqB",
"rvaehjlopruxzysqBk"};
