/* XPM */
static char * bottom_active_xpm[] = {
"39 4 33 1",
" 	c None",
".	c #FFFFFF",
"+	c #E8E8E9",
"@	c #E8E7E8",
"#	c #E7E7E8",
"$	c #E8E8E8",
"%	c #E7E6E7",
"&	c #E6E6E6",
"*	c #E7E7E7",
"=	c #E6E6E7",
"-	c #E5E5E5",
";	c #E4E4E5",
">	c #E4E4E4",
",	c #E3E3E3",
"'	c #E2E2E3",
")	c #E2E2E2",
"!	c #E1E1E1",
"~	c #E0E0E0",
"{	c #E1E0E0",
"]	c #E0DFDF",
"^	c #767676",
"/	c #747373",
"(	c #747475",
"_	c #767476",
":	c #747374",
"<	c #787878",
"[	c #7A7A7A",
"}	c #79787A",
"|	c #7B7B7C",
"1	c #7B7B7B",
"2	c #7A797A",
"3	c #7C7C7D",
"4	c #000000",
".......................................",
"+@#$#$@%&#*=&---;;>,,,'')!!!!~{!!!]~~~~",
"^^/((_::(^^<<[[[}|<<[<}[[[[}12}}13221[}",
"444444444444444444444444444444444444444"};
