/* XPM */
static char * close_active_xpm[] = {
"17 16 173 2",
"  	c None",
". 	c #B5B4B5",
"+ 	c #B2B2B1",
"@ 	c #AFAEAC",
"# 	c #B0AFB0",
"$ 	c #989798",
"% 	c #646364",
"& 	c #474746",
"* 	c #3C3C3C",
"= 	c #424242",
"- 	c #515050",
"; 	c #6E6D6D",
"> 	c #989796",
", 	c #ABABA9",
"' 	c #AEADAC",
") 	c #ABABAB",
"! 	c #A09F9E",
"~ 	c #A1A0A0",
"{ 	c #9E9D9C",
"] 	c #5A5B59",
"^ 	c #454444",
"/ 	c #9B9B9A",
"( 	c #C8C8C8",
"_ 	c #D3D3D3",
": 	c #C5C5C5",
"< 	c #AEAEAE",
"[ 	c #888887",
"} 	c #606060",
"| 	c #747473",
"1 	c #A3A2A1",
"2 	c #A6A5A4",
"3 	c #A6A5A5",
"4 	c #B0AFAE",
"5 	c #ADADAC",
"6 	c #4E4E4D",
"7 	c #7D7D7D",
"8 	c #F1F1F1",
"9 	c #FCFCFC",
"0 	c #E9E9E9",
"a 	c #D0D0D0",
"b 	c #C3C3C3",
"c 	c #BBBBBB",
"d 	c #B3B3B3",
"e 	c #9B9B9B",
"f 	c #787777",
"g 	c #767574",
"h 	c #A3A3A0",
"i 	c #A5A5A3",
"j 	c #A8A7A7",
"k 	c #A8A8A8",
"l 	c #5E5E5D",
"m 	c #7C7C7C",
"n 	c #FDFDFD",
"o 	c #FFFFFF",
"p 	c #F7F7F7",
"q 	c #D7D7D7",
"r 	c #C4C4C4",
"s 	c #BABABA",
"t 	c #B4B4B4",
"u 	c #ADADAD",
"v 	c #A5A5A5",
"w 	c #8E8E8E",
"x 	c #7B7B79",
"y 	c #8C8C8A",
"z 	c #A8A7A5",
"A 	c #AAABAB",
"B 	c #969594",
"C 	c #484847",
"D 	c #F9F9F9",
"E 	c #DADADA",
"F 	c #A9A9A9",
"G 	c #A2A2A2",
"H 	c #969696",
"I 	c #737373",
"J 	c #8D8D8D",
"K 	c #A9AAAA",
"L 	c #ACABAB",
"M 	c #616161",
"N 	c #9D9D9D",
"O 	c #AFAFAF",
"P 	c #AAAAAA",
"Q 	c #A4A4A4",
"R 	c #9E9E9E",
"S 	c #959595",
"T 	c #7E7E7E",
"U 	c #6B6B6B",
"V 	c #A8A7A8",
"W 	c #A8A8A7",
"X 	c #444544",
"Y 	c #C9CAC9",
"Z 	c #EAEAEA",
"` 	c #D8D8D8",
" .	c #B5B5B5",
"..	c #A0A0A0",
"+.	c #919191",
"@.	c #818181",
"#.	c #535353",
"$.	c #A4A4A1",
"%.	c #A5A4A4",
"&.	c #3A3A3A",
"*.	c #D4D4D4",
"=.	c #D1D1D1",
"-.	c #A6A6A6",
";.	c #A1A1A1",
">.	c #9C9C9C",
",.	c #4D4D4D",
"'.	c #434343",
").	c #C6C6C6",
"!.	c #979797",
"~.	c #929292",
"{.	c #878787",
"].	c #767676",
"^.	c #454545",
"/.	c #C1C2C1",
"(.	c #A0A09F",
"_.	c #4A4A4A",
":.	c #AFAEAE",
"<.	c #989898",
"[.	c #939393",
"}.	c #8C8C8C",
"|.	c #808080",
"1.	c #404040",
"2.	c #676666",
"3.	c #8A8989",
"4.	c #191919",
"5.	c #333333",
"6.	c #4C4C4C",
"7.	c #CCCCCC",
"8.	c #565656",
"9.	c #505050",
"0.	c #BFBEBE",
"a.	c #B6B5B6",
"b.	c #9F9E9F",
"c.	c #6A696A",
"d.	c #636363",
"e.	c #A4A5A4",
"f.	c #B8B9B8",
"g.	c #B4B3B5",
"h.	c #7E7D7E",
"i.	c #908F90",
"j.	c #888888",
"k.	c #414141",
"l.	c #6C6C6C",
"m.	c #C9C7CA",
"n.	c #B8B6B8",
"o.	c #B2B1B1",
"p.	c #AEADAD",
"q.	c #7F7E7E",
"r.	c #7D7C7C",
"s.	c #757575",
"t.	c #7F7F7F",
"u.	c #666565",
"v.	c #B8B7B5",
"w.	c #A7A7A5",
"x.	c #B0B1B1",
"y.	c #ADAEAE",
"z.	c #919091",
"A.	c #8B8A8C",
"B.	c #6A6A6B",
"C.	c #555555",
"D.	c #464646",
"E.	c #515151",
"F.	c #9E9E9F",
"G.	c #B8B7B9",
"H.	c #A4A3A4",
"I.	c #ACABAC",
"J.	c #AAA9AA",
"K.	c #ADAEAD",
"L.	c #B9BAB9",
"M.	c #BCBDBB",
"N.	c #BDBEBC",
"O.	c #B1B1B1",
"P.	c #AAA8A9",
". + + @ # $ % & * = - ; > , ' ' ) ",
"! ~ ! { ] ^ / ( _ : < [ } | 1 2 3 ",
"+ 4 5 6 7 8 9 0 a b c d e f g h i ",
"j k l m n o p q r s t u v w x y z ",
"A B C 8 o D E r s d < F G H I J K ",
"L M N n p E r c t O P Q R S T U V ",
"W X Y Z ` r c  .O P v ..e +.@.#.$.",
"%.&.*.=.r s t O ) -.;.>.H J 7 ,.! ",
"# '.).b c t O P -.;.>.!.~.{.].^./.",
"(._.:.c t < P v ;.>.<.[.}.|.U 1.:.",
"%.2.3.d < 4.5.6.6.6.6.6.7.].8.9.0.",
"a.b.c.N v 7.o o o o o o o d.* e.f.",
"g.g.h.|.i.!.S ~.J j.|.].d.k.l.m.n.",
"# o.p.q.r.s.t.@.7 ].U 8.* u.v.w.k ",
"g.x.x.y.z.A.B.C.,.D.1.E.F.G.%.H.H.",
"A ' ' k I.Q b.J.K.L.M.N.O.p.A k P."};
