/* XPM */
static char * left_inactive_xpm[] = {
"4 241 304 2",
"  	c None",
". 	c #EAE9EA",
"+ 	c #D4D3D4",
"@ 	c #767476",
"# 	c #000000",
"$ 	c #EDEDED",
"% 	c #DBDBDC",
"& 	c #7F7F81",
"* 	c #EAEAEB",
"= 	c #D6D6D7",
"- 	c #777677",
"; 	c #E8E7E8",
"> 	c #D1D0D1",
", 	c #727272",
"' 	c #E9E9E9",
") 	c #D4D4D4",
"! 	c #767676",
"~ 	c #ECEBEC",
"{ 	c #D9D8D9",
"] 	c #7B7B7C",
"^ 	c #E7E7E7",
"/ 	c #CECECE",
"( 	c #6F6F6F",
"_ 	c #ECECEC",
": 	c #D9D9DA",
"< 	c #7B7A7B",
"[ 	c #D5D4D5",
"} 	c #767677",
"| 	c #E9E8E8",
"1 	c #D1D1D1",
"2 	c #727172",
"3 	c #E8E8E8",
"4 	c #D2D1D2",
"5 	c #737273",
"6 	c #747474",
"7 	c #E4E4E4",
"8 	c #C9C9C9",
"9 	c #6A6A6A",
"0 	c #D0CFD0",
"a 	c #747374",
"b 	c #E1E1E1",
"c 	c #C4C4C4",
"d 	c #616061",
"e 	c #DBDBDA",
"f 	c #B8B8B7",
"g 	c #50504F",
"h 	c #E3E3E3",
"i 	c #C7C7C8",
"j 	c #646466",
"k 	c #DEDEDF",
"l 	c #BDBDBF",
"m 	c #565556",
"n 	c #E2E2E3",
"o 	c #C7C6C9",
"p 	c #C5C5C7",
"q 	c #C7C6C8",
"r 	c #626165",
"s 	c #E4E4E5",
"t 	c #CACACC",
"u 	c #68686A",
"v 	c #C6C5C8",
"w 	c #636165",
"x 	c #E6E6E7",
"y 	c #CECCCE",
"z 	c #6C6A6D",
"A 	c #E2E1E2",
"B 	c #C5C3C5",
"C 	c #615F61",
"D 	c #C5C4C5",
"E 	c #E5E4E4",
"F 	c #CCCACB",
"G 	c #6B686A",
"H 	c #E3E2E3",
"I 	c #C9C7C9",
"J 	c #666363",
"K 	c #E0E0DF",
"L 	c #C2C1BF",
"M 	c #5D5B59",
"N 	c #CDCACB",
"O 	c #6B6A6A",
"P 	c #E4E2E3",
"Q 	c #C8C6C6",
"R 	c #656362",
"S 	c #E3E2E2",
"T 	c #C9C7C7",
"U 	c #656462",
"V 	c #CAC8C8",
"W 	c #686666",
"X 	c #E1E0E0",
"Y 	c #C4C2C2",
"Z 	c #615F5F",
"` 	c #666463",
" .	c #C2C1C0",
"..	c #5D5C5A",
"+.	c #E0E0E0",
"@.	c #5D5D5A",
"#.	c #DFDFDE",
"$.	c #C0BFBE",
"%.	c #5A5956",
"&.	c #E2E2E1",
"*.	c #C5C5C3",
"=.	c #5F5F5C",
"-.	c #BFBFBD",
";.	c #5A5958",
">.	c #C4C4C3",
",.	c #5F5F5D",
"'.	c #E4E4E3",
").	c #C7C7C6",
"!.	c #646462",
"~.	c #C0C0BE",
"{.	c #5A5B58",
"].	c #C1C1BF",
"^.	c #E2E1E1",
"/.	c #5F605D",
"(.	c #E7E7E6",
"_.	c #D0D0CF",
":.	c #71716F",
"<.	c #E6E6E5",
"[.	c #CCCCCC",
"}.	c #6B6B6A",
"|.	c #E3E3E2",
"1.	c #C8C8C6",
"2.	c #636461",
"3.	c #C9C9C7",
"4.	c #666664",
"5.	c #E5E5E4",
"6.	c #CACAC9",
"7.	c #686866",
"8.	c #C6C6C5",
"9.	c #61615F",
"0.	c #E6E6E6",
"a.	c #6E6E6D",
"b.	c #C7C7C7",
"c.	c #E5E5E5",
"d.	c #CBCACA",
"e.	c #656464",
"f.	c #CDCCCC",
"g.	c #6A686A",
"h.	c #CACACA",
"i.	c #E2E2E2",
"j.	c #C6C6C6",
"k.	c #646464",
"l.	c #CBCBCA",
"m.	c #6F6F6E",
"n.	c #E8E8E7",
"o.	c #D2D1D1",
"p.	c #747373",
"q.	c #727171",
"r.	c #E6E5E5",
"s.	c #E8E7E7",
"t.	c #D3D2D2",
"u.	c #747372",
"v.	c #D1D0D0",
"w.	c #D1D1D0",
"x.	c #D1D0CF",
"y.	c #706F6F",
"z.	c #C9C8C7",
"A.	c #646463",
"B.	c #CBCAC9",
"C.	c #6A6866",
"D.	c #6A6A68",
"E.	c #C9C8C6",
"F.	c #666662",
"G.	c #CCCCCA",
"H.	c #686865",
"I.	c #CCCBC9",
"J.	c #6A6A66",
"K.	c #CACAC8",
"L.	c #6A6865",
"M.	c #C6C5C3",
"N.	c #62615E",
"O.	c #E1E1E0",
"P.	c #C4C4C1",
"Q.	c #5F605B",
"R.	c #C2C2C0",
"S.	c #5E5D59",
"T.	c #636361",
"U.	c #C3C3C1",
"V.	c #C7C6C5",
"W.	c #62635F",
"X.	c #C8C8C7",
"Y.	c #656663",
"Z.	c #C0C1BF",
"`.	c #5B5C58",
" +	c #5D5D5B",
".+	c #656664",
"++	c #CDCCCB",
"@+	c #6C6B6A",
"#+	c #CACAC7",
"$+	c #686864",
"%+	c #E7E7E5",
"&+	c #CFCFCD",
"*+	c #6D6C6A",
"=+	c #E8E7E6",
"-+	c #D2D1CF",
";+	c #73726F",
">+	c #6A6864",
",+	c #D1D0CD",
"'+	c #72716D",
")+	c #E6E6E4",
"!+	c #CECDC9",
"~+	c #6D6B66",
"{+	c #E5E4E2",
"]+	c #CACAC6",
"^+	c #6A6862",
"/+	c #D1CFCC",
"(+	c #73716B",
"_+	c #D2D1CE",
":+	c #74726F",
"<+	c #E9E9E7",
"[+	c #D3D3CF",
"}+	c #74736F",
"|+	c #E6E5E4",
"1+	c #CECCCA",
"2+	c #6D6C68",
"3+	c #747471",
"4+	c #CECECB",
"5+	c #6E6D6A",
"6+	c #D0CFCD",
"7+	c #706F6C",
"8+	c #D1D0CE",
"9+	c #73716F",
"0+	c #E9E8E7",
"a+	c #D3D2D0",
"b+	c #71716E",
"c+	c #CFCFCC",
"d+	c #6F6E6B",
"e+	c #E9E9E8",
"f+	c #D3D3D0",
"g+	c #ECECEB",
"h+	c #DBDAD9",
"i+	c #7E7C7C",
"j+	c #EAE9E9",
"k+	c #D6D4D3",
"l+	c #787675",
"m+	c #EAEAE9",
"n+	c #D6D5D4",
"o+	c #777675",
"p+	c #D3D2D1",
"q+	c #D2D1D0",
"r+	c #747371",
"s+	c #DAD9D9",
"t+	c #747473",
"u+	c #D6D5D5",
"v+	c #787677",
"w+	c #EBEBEB",
"x+	c #D8D8D7",
"y+	c #7B7B7A",
"z+	c #747272",
"A+	c #737271",
"B+	c #CFCECE",
"C+	c #D0CFCF",
"D+	c #706F6E",
"E+	c #D4D4D3",
"F+	c #747475",
"G+	c #CECDCC",
"H+	c #6D6C6B",
"I+	c #CCCCCB",
"J+	c #C7C7C5",
"K+	c #626361",
"L+	c #EDECEC",
"M+	c #DBDADA",
"N+	c #767474",
"O+	c #D6D6D5",
"P+	c #797878",
"Q+	c #D9D9D8",
"R+	c #7D7C7B",
"S+	c #D4D3D2",
"T+	c #7F7E7E",
"U+	c #D4D3D3",
"V+	c #D3D3D3",
"W+	c #EBEAEB",
"X+	c #D6D6D6",
"Y+	c #787878",
"Z+	c #EAEAEA",
"`+	c #D7D6D7",
" @	c #7A7978",
".@	c #D8D8D8",
"+@	c #7B7B7B",
"@@	c #DDDDDD",
"#@	c #818081",
"$@	c #EEEEEE",
"%@	c #DEDEDE",
"&@	c #848384",
"*@	c #767675",
"=@	c #7D7C7E",
"-@	c #7E7D7D",
";@	c #CFCECD",
">@	c #6F6D6D",
",@	c #D7D6D5",
"'@	c #6C6B6B",
")@	c #70716F",
"!@	c #DCDBDB",
"~@	c #81807F",
"{@	c #CECECD",
"]@	c #6E6E6C",
"^@	c #777676",
"/@	c #ECEBEB",
"(@	c #D9D8D8",
"_@	c #D8D7D7",
":@	c #7B7C7C",
"<@	c #EDEDEC",
"[@	c #7F7F7F",
"}@	c #7C7C7D",
". + @ # ",
"$ % & # ",
"* = - # ",
"; > , # ",
"' ) ! # ",
"~ { ] # ",
"^ / ( # ",
"_ : < # ",
"' [ } # ",
"| ) - # ",
"' 1 2 # ",
"3 4 5 # ",
"3 4 6 # ",
"^ 1 5 # ",
"7 8 9 # ",
"^ 0 a # ",
"b c d # ",
"e f g # ",
"h i j # ",
"k l m # ",
"n o j # ",
"n p j # ",
"n q r # ",
"s t u # ",
"n v w # ",
"x y z # ",
"A B C # ",
"b D C # ",
"E F G # ",
"H I J # ",
"K L M # ",
"E N O # ",
"P Q R # ",
"S T U # ",
"7 V W # ",
"X Y Z # ",
"S T ` # ",
"K  ...# ",
"+.L @.# ",
"#.$.%.# ",
"&.*.=.# ",
"#.-.;.# ",
"b >.,.# ",
"'.).!.# ",
"#.~.{.# ",
"K ].@.# ",
"^.*./.# ",
"(._.:.# ",
"<.[.}.# ",
"b >.,.# ",
"|.1.2.# ",
"|.3.4.# ",
"5.6.7.# ",
"|.8.9.# ",
"|.).!.# ",
"0./ a.# ",
"S b.!.# ",
"c.d.O # ",
"h 8 e.# ",
"c.f.g.# ",
"7 h.9 # ",
"i.j.k.# ",
"c.l.7.# ",
"^ _.m.# ",
"5.d.O # ",
"n.o.p.# ",
"' o.q.# ",
"r.[.9 # ",
"s.t.u.# ",
"' ) ! # ",
"s.v.q.# ",
"s.w.:.# ",
"^ x.y.# ",
"'.z.A.# ",
"5.B.C.# ",
"E B.D.# ",
"'.E.F.# ",
"5.G.H.# ",
"E I.J.# ",
"'.3.F.# ",
"'.K.L.# ",
"&.M.N.# ",
"O.P.Q.# ",
"K R.S.# ",
"|.1.T.# ",
"O.U.=.# ",
"i.V.W.# ",
"7 X.Y.# ",
"#.Z.`.# ",
"+.R. +# ",
"^.*./.# ",
"(._.:.# ",
"<.[.}.# ",
"b >.,.# ",
"|.1.2.# ",
"|.3.4.# ",
"5.6.7.# ",
"|.8.9.# ",
"|.).!.# ",
"0./ a.# ",
"S b.!.# ",
"c.d.O # ",
"h 8 e.# ",
"c.f.g.# ",
"7 h.9 # ",
"i.j.k.# ",
"c.l.7.# ",
"^ _.m.# ",
"5.d.O # ",
"n.o.p.# ",
"' o.q.# ",
"r.[.9 # ",
"s.t.u.# ",
"' ) ! # ",
"s.v.q.# ",
"n.o.q.# ",
"s.w.:.# ",
"'.3..+# ",
"<.++@+# ",
"5.G.@+# ",
"'.#+$+# ",
"%+&+*+# ",
"=+-+;+# ",
"5.I.>+# ",
"=+,+'+# ",
")+!+~+# ",
"{+]+^+# ",
"%+/+(+# ",
"=+_+:+# ",
"<+[+}+# ",
"|+1+2+# ",
"n.-+3+# ",
"<.4+5+# ",
"=+6+7+# ",
"=+8+9+# ",
"0+a+b+# ",
"%+c+d+# ",
"e+f+}+# ",
"g+h+i+# ",
"j+k+l+# ",
"m+n+o+# ",
"0+p+;+# ",
"| q+r+# ",
"r.++*+# ",
"g+s+i+# ",
"e+o.t+# ",
"j+u+v+# ",
"w+x+y+# ",
"e+o.z+# ",
"w+x+y+# ",
"e+o.A+# ",
"0.B+m.# ",
"s.C+y.# ",
"^ x.D+# ",
"' ) ! # ",
"' E+F+# ",
"<.G+H+# ",
"5.l.7.# ",
"5.I+}.# ",
"<.I+}.# ",
"h J+K+# ",
"|.).!.# ",
"0./ a.# ",
"S b.!.# ",
"c.d.O # ",
"h 8 e.# ",
"c.f.g.# ",
"7 h.9 # ",
"i.j.k.# ",
"c.l.7.# ",
"^ _.m.# ",
"5.d.O # ",
"n.o.p.# ",
"' o.q.# ",
"r.[.9 # ",
"s.t.u.# ",
"' ) ! # ",
"s.v.q.# ",
"n.o.q.# ",
"s.w.:.# ",
"'.3..+# ",
"<.++@+# ",
"5.G.@+# ",
"'.#+$+# ",
"%+&+*+# ",
"=+-+;+# ",
"5.I.>+# ",
"=+,+'+# ",
")+!+~+# ",
"{+]+^+# ",
"%+/+(+# ",
"=+_+:+# ",
"<+[+}+# ",
"|+1+2+# ",
"n.-+3+# ",
"<.4+5+# ",
"=+6+7+# ",
"=+8+9+# ",
"0+a+b+# ",
"%+c+d+# ",
"e+f+}+# ",
"g+h+i+# ",
"j+k+l+# ",
"m+n+o+# ",
"0+p+;+# ",
"| q+r+# ",
"r.++*+# ",
"L+M+i+# ",
"' p+N+# ",
". O+P+# ",
"g+Q+R+# ",
"' S+N+# ",
"_ M+T+# ",
"j+U+N+# ",
"3 V+6 # ",
"W+X+Y+# ",
"Z+`+ @# ",
"w+.@+@# ",
"$ @@#@# ",
"$@%@&@# ",
"' V+*@# ",
"_ : =@# ",
"_ s+-@# ",
"(.;@>@# ",
"Z+,@ @# ",
"<.f.@+# ",
"5.f.'@# ",
"3 1 )@# ",
"3 p+A+# ",
"' E+*@# ",
"_ M+=@# ",
"$ !@~@# ",
"(.{@]@# ",
". [ - # ",
"' ) ^@# ",
"' V+! # ",
"/@(@+@# ",
"w+_@< # ",
"~ .@:@# ",
"<@e [@# ",
"~ { }@# "};
