/* XPM */
static char * top_right_inactive_xpm[] = {
"4 20 46 1",
" 	c None",
".	c #FFFFFF",
"+	c #000000",
"@	c #E0DFDF",
"#	c #DEDEDD",
"$	c #9A9A9A",
"%	c #ABABAB",
"&	c #767475",
"*	c #A6A5A5",
"=	c #A6A5A4",
"-	c #737272",
";	c #A5A5A3",
">	c #A8A8A7",
",	c #727271",
"'	c #A8A7A5",
")	c #A8A7A4",
"!	c #747373",
"~	c #A9AAAA",
"{	c #B2B2B1",
"]	c #7A7A7A",
"^	c #A8A7A8",
"/	c #B6B5B6",
"(	c #7E7D7E",
"_	c #A4A4A1",
":	c #A09F9E",
"<	c #999797",
"[	c #6A6A6A",
"}	c #C1C2C1",
"|	c #AEADAD",
"1	c #787877",
"2	c #AFAEAE",
"3	c #9C9B9C",
"4	c #6C6B6B",
"5	c #BFBEBE",
"6	c #A8A7A7",
"7	c #B8B9B8",
"8	c #B0AFB1",
"9	c #7B7C7B",
"0	c #B8B6B8",
"a	c #7F7E7F",
"b	c #A8A8A8",
"c	c #A4A3A4",
"d	c #6F6F6F",
"e	c #AAA8A9",
"f	c #797878",
"g	c #777678",
"...+",
"@#$+",
"%%&+",
"*=-+",
";>,+",
"')!+",
"~{]+",
"^/(+",
"_;,+",
":<[+",
"}|1+",
"234+",
"56-+",
"789+",
"00a+",
"b'-+",
"ccd+",
"ee&+",
"22f+",
"88g+"};
