/* XPM */
static char * bottom_left_active_xpm[] = {
"5 5 5 1",
" 	c None",
".	c #000000",
"+	c #FFFFFF",
"@	c #E2DEC6",
"#	c #A19D8C",
" .+@@",
" .+@@",
"  .##",
"   ..",
"     "};
