/* XPM */
static char * top_right_active_xpm[] = {
"6 20 6 1",
" 	c None",
".	c #000000",
"+	c #D0D575",
"@	c #ADB161",
"#	c #919451",
"$	c #FFFFFF",
".     ",
"+..   ",
"@++.  ",
"@@@#. ",
"@@@#. ",
"@@@@#.",
"@@@@#.",
"@@@@#.",
"@@@@#.",
"@@@@#.",
"@@@@#.",
"@@@@#.",
"@@@@#.",
"@@@@#.",
"@@@@#.",
"@@@@#.",
"@@@@#.",
"@@@@#.",
"#####.",
"$$$$@."};
