/* XPM */
static char * top_left_inactive_xpm[] = {
"6 20 6 1",
" 	c None",
".	c #000000",
"+	c #CDD575",
"@	c #AEB262",
"#	c #8E9652",
"$	c #FFFFFF",
"     .",
"   ..+",
"  .++@",
" .+@@@",
" .+@@@",
".+@@@@",
".+@@@@",
".+@@@@",
".+@@@@",
".+@@@@",
".+@@@@",
".+@@@@",
".+@@@@",
".+@@@@",
".+@@@@",
".+@@@@",
".+@@@@",
".+@@@@",
".#####",
".$$$$$"};
