/* XPM */
static char * bottom_right_active_xpm[] = {
"17 17 5 1",
" 	c None",
".	c #000000",
"+	c #FFFFFF",
"@	c #B2B2B2",
"#	c #E5E5E5",
"            .+@@.",
"            .....",
"            .+++.",
"            .+#@.",
"            .+#@.",
"            .+#@.",
"            .+#@.",
"            .+#@.",
"            .+#@.",
"            .+#@.",
"            .+#@.",
"            .+#@.",
".............+#@.",
"+.++++++++++++#@.",
"@.#############@.",
"@.@@@@@@@@@@@@@@.",
"................."};
