/* XPM */
static char * maximize_active_xpm[] = {
"23 20 67 1",
" 	c None",
".	c #FFFFFF",
"+	c #A1A1A1",
"@	c #A5A5A5",
"#	c #A9A9A9",
"$	c #AEAEAE",
"%	c #B2B2B2",
"&	c #B7B7B7",
"*	c #BBBBBB",
"=	c #C0C0C0",
"-	c #C4C4C4",
";	c #C9C9C9",
">	c #CDCDCD",
",	c #D2D2D2",
"'	c #D6D6D6",
")	c #DBDBDB",
"!	c #DFDFDF",
"~	c #E4E4E4",
"{	c #E8E8E8",
"]	c #EDEDED",
"^	c #F1F1F1",
"/	c #F6F6F6",
"(	c #FAFAFA",
"_	c #FDFDFD",
":	c #C6C6C6",
"<	c #C8C8C8",
"[	c #CBCBCB",
"}	c #CCCCCC",
"|	c #CECECE",
"1	c #CFCFCF",
"2	c #D0D0D0",
"3	c #D3D3D3",
"4	c #D5D5D5",
"5	c #D8D8D8",
"6	c #D9D9D9",
"7	c #DCDCDC",
"8	c #DDDDDD",
"9	c #E0E0E0",
"0	c #E2E2E2",
"a	c #FCFCFC",
"b	c #E3E3E3",
"c	c #FBFBFB",
"d	c #E5E5E5",
"e	c #3F3F3F",
"f	c #404040",
"g	c #414141",
"h	c #424242",
"i	c #434343",
"j	c #E6E6E6",
"k	c #F9F9F9",
"l	c #E7E7E7",
"m	c #F8F8F8",
"n	c #444444",
"o	c #E9E9E9",
"p	c #F7F7F7",
"q	c #EAEAEA",
"r	c #454545",
"s	c #ECECEC",
"t	c #F5F5F5",
"u	c #EFEFEF",
"v	c #F3F3F3",
"w	c #464646",
"x	c #F0F0F0",
"y	c #F2F2F2",
"z	c #474747",
"A	c #F4F4F4",
"B	c #EBEBEB",
"......................+",
".+@#$%&*=-;>,')!~{]^/(+",
"_@:<;[}|12,34'56)78!90+",
"a#<;[}|12,34'56)78!90b+",
"c$;[}|12,34'56)78!90bd+",
"(%[}|1eeffgghhhi!90bdj+",
"k&}|12effgghhhii90bdjl+",
"m*|12,ffgghhhiin0bdjlo+",
"p=12,3fgghhhiinnbdjloq+",
"/-2,34g56)78!90rdjloqs+",
"t;34'5h)78!90bdrloqs]u+",
"v>4'56h78!90bdjwoqs]ux+",
"y,'56)h8!90bdjlwqs]uxy+",
"^'56)7i!90bdjlozs]uxyv+",
"x)6)78innrrrwwzz]uxyvA+",
"u!)78!90bdjloqs]uxyvA/+",
"]~78!90bdjloqs]uxyvA/p+",
"s{8!90bdjloqs]uxyvA/pk+",
"B]!90bdjloqs]uxyvA/pk(+",
"q^90bdjloqs]uxyvA/pk(a+"};
