/* XPM */
static char * shade_pressed_xpm[] = {
"18 20 3 1",
" 	c None",
".	c #C9C9C9",
"+	c #3D3D3D",
"..................",
"..................",
"..................",
"..................",
"..................",
"..................",
"..++......++......",
".++++....++++.....",
".+++++..+++++.....",
"..++++++++++......",
"...++++++++.......",
"....++++++........",
".....++++.........",
"......++..........",
"..................",
"..................",
"..................",
"..................",
"..................",
".................."};
