/* XPM */
static char * close_active_xpm[] = {
"11 12 60 1",
" 	c None",
".	c #8E8E8E",
"+	c #8D8D8D",
"@	c #2B2B2B",
"#	c #313131",
"$	c #454545",
"%	c #3C3C3C",
"&	c #8A8A8A",
"*	c #202020",
"=	c #A0A0A0",
"-	c #707070",
";	c #B1B1B1",
">	c #888888",
",	c #272727",
"'	c #545454",
")	c #9F9F9F",
"!	c #929292",
"~	c #777777",
"{	c #A9A9A9",
"]	c #666666",
"^	c #303030",
"/	c #000000",
"(	c #858585",
"_	c #5D5D5D",
":	c #959595",
"<	c #969696",
"[	c #868686",
"}	c #757575",
"|	c #262626",
"1	c #838383",
"2	c #878787",
"3	c #A3A3A3",
"4	c #7F7F7F",
"5	c #6B6B6B",
"6	c #9D9D9D",
"7	c #808080",
"8	c #989898",
"9	c #818181",
"0	c #4C4C4C",
"a	c #7D7D7D",
"b	c #676767",
"c	c #737373",
"d	c #5E5E5E",
"e	c #A1A1A1",
"f	c #898989",
"g	c #484848",
"h	c #3B3B3B",
"i	c #B6B6B6",
"j	c #767676",
"k	c #232323",
"l	c #2D2D2D",
"m	c #656565",
"n	c #6A6A6A",
"o	c #7A7A7A",
"p	c #555555",
"q	c #353535",
"r	c #525252",
"s	c #333333",
"t	c #343434",
"u	c #373737",
"...........",
"+.@.....#$%",
"&*=&...-;%%",
">,')!.~{]^/",
"((,_:<[}|/(",
"1((,2<3*/((",
"4((567890((",
"a(b{c,defg(",
"ahijk/lmen}",
"o^p@/}}qrs/",
"~}t/}}}}u/}",
"}}/}}}}}/}}"};
