/* XPM */
static char * close_pressed_xpm[] = {
"11 12 65 1",
" 	c None",
".	c #8E8E8E",
"+	c #040404",
"@	c #2C2C2C",
"#	c #797979",
"$	c #808080",
"%	c #7F7F7F",
"&	c #787878",
"*	c #252525",
"=	c #212121",
"-	c #A4A4A4",
";	c #A6A6A6",
">	c #313131",
",	c #767676",
"'	c #7C7C7C",
")	c #2A2A2A",
"!	c #B4B4B4",
"~	c #9C9C9C",
"{	c #1A1A1A",
"]	c #7E7E7E",
"^	c #ABABAB",
"/	c #979797",
"(	c #363636",
"_	c #6E6E6E",
":	c #303030",
"<	c #888888",
"[	c #282828",
"}	c #B5B5B5",
"|	c #AEAEAE",
"1	c #646464",
"2	c #858585",
"3	c #828282",
"4	c #A5A5A5",
"5	c #818181",
"6	c #292929",
"7	c #838383",
"8	c #AAAAAA",
"9	c #A1A1A1",
"0	c #575757",
"a	c #ACACAC",
"b	c #4B4B4B",
"c	c #525252",
"d	c #7D7D7D",
"e	c #C9C9C9",
"f	c #D2D2D2",
"g	c #4E4E4E",
"h	c #4D4D4D",
"i	c #D1D1D1",
"j	c #454545",
"k	c #4C4C4C",
"l	c #DADADA",
"m	c #3F3F3F",
"n	c #3B3B3B",
"o	c #7A7A7A",
"p	c #343434",
"q	c #565656",
"r	c #E0E0E0",
"s	c #222222",
"t	c #333333",
"u	c #777777",
"v	c #5A5A5A",
"w	c #505050",
"x	c #272727",
"y	c #6C6C6C",
"z	c #757575",
".+@#$$%&*+.",
"=-;>,',)!~{",
"=]^/(_:;-]{",
"<[%}<+/|%=1",
"22:344$5622",
"777($89:777",
"%%%08$abc%%",
"ddde]$3fghd",
"dgi]j+k5lmc",
"ml5knopq%r:",
"s3qtuuuuv]{",
"w+xyzzzz=+q"};
