/* XPM */
static char * left_inactive_xpm[] = {
"5 72 5 1",
" 	c None",
".	c #000000",
"+	c #F0F0F0",
"@	c #D8D8D8",
"#	c #979797",
".+@#.",
".+@#.",
".+@#.",
".+@#.",
".+@#.",
".+@#.",
".+@#.",
".+@#.",
".+@#.",
".+@#.",
".+@#.",
".+@#.",
".+@#.",
".+@#.",
".+@#.",
".+@#.",
".+@#.",
".+@#.",
".+@#.",
".+@#.",
".+@#.",
".+@#.",
".+@#.",
".+@#.",
".+@#.",
".+@#.",
".+@#.",
".+@#.",
".+@#.",
".+@#.",
".+@#.",
".+@#.",
".+@#.",
".+@#.",
".+@#.",
".+@#.",
".+@#.",
".+@#.",
".+@#.",
".+@#.",
".+@#.",
".+@#.",
".+@#.",
".+@#.",
".+@#.",
".+@#.",
".+@#.",
".+@#.",
".+@#.",
".+@#.",
".+@#.",
".+@#.",
".+@#.",
".+@#.",
".+@#.",
".+@#.",
".+@#.",
".+@#.",
".+@#.",
".+@#.",
".+@#.",
".+@#.",
".+@#.",
".+@#.",
".+@#.",
".+@#.",
".+@#.",
".+@#.",
".+@#.",
".+@#.",
".+@#.",
".+@#."};
