/* XPM */
static char * maximize_active_xpm[] = {
"11 12 52 1",
" 	c None",
".	c #BBBBBB",
"+	c #00011E",
"@	c #02035F",
"#	c #010130",
"$	c #8C8C8E",
"%	c #17172C",
"&	c #6D6CA4",
"*	c #66669B",
"=	c #262643",
"-	c #69696B",
";	c #363540",
">	c #EEEDF1",
",	c #DDDCDE",
"'	c #C5C5C6",
")	c #42424A",
"!	c #656567",
"~	c #E7E6E9",
"{	c #CCCCCC",
"]	c #B0B0B1",
"^	c #36373C",
"/	c #666668",
"(	c #CCCCCB",
"_	c #CCCCCA",
":	c #B1B1B3",
"<	c #37373A",
"[	c #686868",
"}	c #373739",
"|	c #6A6A6A",
"1	c #B1B1B0",
"2	c #373737",
"3	c #6B6B6B",
"4	c #B1B1AF",
"5	c #373736",
"6	c #6D6E6D",
"7	c #32323C",
"8	c #D1D1D3",
"9	c #B0B0B0",
"0	c #B1B1B1",
"a	c #A0A0A0",
"b	c #383838",
"c	c #707070",
"d	c #13131D",
"e	c #4A4A4D",
"f	c #363636",
"g	c #181818",
"h	c #727272",
"i	c #A4A4A7",
"j	c #7A7A7B",
"k	c #747474",
"l	c #737373",
"m	c #949494",
"...........",
"+@@@@@@@@#$",
"%&&&&&&&*=-",
";>,,,,,,')!",
";~{{{{{{]^/",
";~{(((__:<[",
";~{{{{((:}|",
";~{(__((123",
";~{{__{_456",
"78900000abc",
"de2f22222gh",
"ijkllllkkkm"};
