/* XPM */
static char * top_left_inactive_xpm[] = {
"27 18 65 1",
" 	c None",
".	c #000000",
"+	c #B8B8B8",
"@	c #A9A9A9",
"#	c #A4A4A4",
"$	c #9F9F9F",
"%	c #9A9A9A",
"&	c #878787",
"*	c #595959",
"=	c #959595",
"-	c #AEAEAE",
";	c #ADADAD",
">	c #909090",
",	c #7F7F7F",
"'	c #575757",
")	c #868686",
"!	c #949494",
"~	c #A5A5A5",
"{	c #8E8E8E",
"]	c #7A7A7A",
"^	c #5A5A5A",
"/	c #6B6B6B",
"(	c #6D6D6D",
"_	c #9D9D9D",
":	c #8D8D8D",
"<	c #8C8C8C",
"[	c #888888",
"}	c #777777",
"|	c #606060",
"1	c #9E9E9E",
"2	c #8A8A8A",
"3	c #8B8B8B",
"4	c #898989",
"5	c #838383",
"6	c #969696",
"7	c #858585",
"8	c #9C9C9C",
"9	c #9B9B9B",
"0	c #808080",
"a	c #929292",
"b	c #999999",
"c	c #7D7D7D",
"d	c #919191",
"e	c #979797",
"f	c #545454",
"g	c #565656",
"h	c #747474",
"i	c #6C6C6C",
"j	c #7C7C7C",
"k	c #8F8F8F",
"l	c #939393",
"m	c #757575",
"n	c #6E6E6E",
"o	c #555555",
"p	c #5D5D5D",
"q	c #5E5E5E",
"r	c #737373",
"s	c #767676",
"t	c #7B7B7B",
"u	c #636363",
"v	c #656565",
"w	c #646464",
"x	c #696969",
"y	c #797979",
"z	c #7E7E7E",
"...........................",
".+@#$$%%%%%%%%%%%%%%&*=@--;",
".@>>>>>>>>>>>>>>>>>>,')!%%%",
".~{{{{{{{{{{{{{{{{{{]^/(___",
".$::::::::::::::::::<[}|1##",
"._2222222222222222223<4^&$$",
"._[[[[[[[[[[[[[[[[[[[[['561",
"._777777777777777777777'5=8",
"._555555555555555555555'5!9",
"._,,,,,,,,,,,,,,,,,,,,,'0ab",
"._ccccccccccccccccccccc',de",
"._cccccccccccccccccccccf,>6",
"._]]]]]]]]]]]]]]]]]]]]]g,>!",
"._}}}}}}}}}}}}}}}}}}h(ifjkl",
"._mmmmmmmmmmmmmmmmmmnopq]{a",
"._rrrrrrrrrrrrrrrrrrnf/st:d",
".,uuuvvvvvvvvvvvvvvvwfxhycz",
"..........................."};
