/* XPM */
static char * maximize_pressed_xpm[] = {
"17 16 169 2",
"  	c None",
". 	c #B5B4B5",
"+ 	c #B2B2B1",
"@ 	c #AFAEAC",
"# 	c #B0AFB0",
"$ 	c #989798",
"% 	c #646364",
"& 	c #474746",
"* 	c #3C3C3C",
"= 	c #424242",
"- 	c #515050",
"; 	c #6E6D6D",
"> 	c #989796",
", 	c #ABABA9",
"' 	c #AEADAC",
") 	c #ABABAB",
"! 	c #A09F9E",
"~ 	c #A1A0A0",
"{ 	c #9E9D9C",
"] 	c #5A5B59",
"^ 	c #333232",
"/ 	c #454544",
"( 	c #555454",
"_ 	c #5D5C5C",
": 	c #636463",
"< 	c #666564",
"[ 	c #666665",
"} 	c #5B5B5B",
"| 	c #747473",
"1 	c #A3A2A1",
"2 	c #A6A5A4",
"3 	c #A6A5A5",
"4 	c #B0AFAE",
"5 	c #ADADAC",
"6 	c #4E4E4D",
"7 	c #40403F",
"8 	c #5C5C5B",
"9 	c #818080",
"0 	c #B8B8B7",
"a 	c #D0D0D0",
"b 	c #CDCDCD",
"c 	c #BABABA",
"d 	c #9D9D9D",
"e 	c #828181",
"f 	c #757474",
"g 	c #767574",
"h 	c #A3A3A0",
"i 	c #A5A5A3",
"j 	c #A8A7A7",
"k 	c #A8A8A8",
"l 	c #5E5E5D",
"m 	c #3E3D3D",
"n 	c #616161",
"o 	c #ACACAC",
"p 	c #F6F6F6",
"q 	c #F5F5F5",
"r 	c #DEDEDE",
"s 	c #C9C9C9",
"t 	c #BEBEBE",
"u 	c #B6B6B6",
"v 	c #A3A3A3",
"w 	c #8A8A89",
"x 	c #898987",
"y 	c #8C8C8A",
"z 	c #A8A7A5",
"A 	c #AAABAB",
"B 	c #969594",
"C 	c #373736",
"D 	c #5C5B5B",
"E 	c #AEADAD",
"F 	c #191919",
"G 	c #333333",
"H 	c #CCCCCC",
"I 	c #959595",
"J 	c #858585",
"K 	c #969696",
"L 	c #A9AAAA",
"M 	c #ACABAB",
"N 	c #494949",
"O 	c #818180",
"P 	c #4C4C4C",
"Q 	c #FFFFFF",
"R 	c #989898",
"S 	c #7C7C7C",
"T 	c #909090",
"U 	c #A8A7A8",
"V 	c #A8A8A7",
"W 	c #444544",
"X 	c #595A58",
"Y 	c #B7B8B7",
"Z 	c #828282",
"` 	c #6E6E6D",
" .	c #A4A4A1",
"..	c #A5A4A4",
"+.	c #3A3A3A",
"@.	c #5F5F5F",
"#.	c #DFDFDF",
"$.	c #B7B7B7",
"%.	c #B1B1B1",
"&.	c #A6A6A6",
"*.	c #929292",
"=.	c #5A5A5A",
"-.	c #434343",
";.	c #6C6B6B",
">.	c #CECECE",
",.	c #CACACA",
"'.	c #B0B0B0",
").	c #A1A1A1",
"!.	c #8D8D8D",
"~.	c #4F4F4F",
"{.	c #C1C2C1",
"].	c #A0A09F",
"^.	c #4A4A4A",
"/.	c #656464",
"(.	c #BBBBBB",
"_.	c #9C9C9C",
":.	c #868686",
"<.	c #737373",
"[.	c #505050",
"}.	c #AFAEAE",
"|.	c #676666",
"1.	c #696868",
"2.	c #9F9E9E",
"3.	c #7D7D7D",
"4.	c #626262",
"5.	c #717071",
"6.	c #BFBEBE",
"7.	c #B6B5B6",
"8.	c #9F9E9F",
"9.	c #666566",
"0.	c #8D8C8D",
"a.	c #A4A4A4",
"b.	c #6D6D6D",
"c.	c #4E4E4E",
"d.	c #B1B2B1",
"e.	c #B8B9B8",
"f.	c #B4B3B5",
"g.	c #7E7D7E",
"h.	c #808081",
"i.	c #908F90",
"j.	c #999999",
"k.	c #8B8B8B",
"l.	c #C9C7CA",
"m.	c #B8B6B8",
"n.	c #B2B1B1",
"o.	c #7F7E7E",
"p.	c #8C8B8B",
"q.	c #858584",
"r.	c #838383",
"s.	c #B8B7B5",
"t.	c #A7A7A5",
"u.	c #B0B1B1",
"v.	c #ADAEAE",
"w.	c #919091",
"x.	c #949395",
"y.	c #8D8D8E",
"z.	c #727272",
"A.	c #5C5C5C",
"B.	c #525252",
"C.	c #AAAAAB",
"D.	c #B8B7B9",
"E.	c #A4A3A4",
"F.	c #ACABAC",
"G.	c #AAA9AA",
"H.	c #ADAEAD",
"I.	c #B9BAB9",
"J.	c #BCBDBB",
"K.	c #BDBEBC",
"L.	c #AAA8A9",
". + + @ # $ % & * = - ; > , ' ' ) ",
"! ~ ! { ] ^ / ( _ : < [ } | 1 2 3 ",
"+ 4 5 6 7 8 9 0 a b c d e f g h i ",
"j k l m n o p q r s t u v w x y z ",
"A B C D E F F F G G G G H I J K L ",
"M n N O p F G G P P P P Q R S T U ",
"V W X Y p G Q Q Q Q H P Q K Z `  .",
"..+.@.a #.G Q $.%.) &.P Q *.Z =.! ",
"# -.;.>.,.P Q '.) &.).G Q !.S ~.{.",
"].^./.(.t P H ) &.)._.G Q :.<.[.}.",
"..|.1.2.u P P P P G G F Q 3.4.5.6.",
"7.8.9.0.a.H Q Q Q Q Q Q Q b.c.d.e.",
"f.f.g.h.i.K j.K *.!.:.3.b.[.k.l.m.",
"# n.E o.p.q.3.r.Z S <.4.c.9 s.t.k ",
"f.u.u.v.w.x.y.z.A.[.B.z.C.D...E.E.",
"A ' ' k F.a.8.G.H.I.J.K.%.E A k L."};
