/* XPM */
static char * shade_pressed_xpm[] = {
"11 16 119 2",
"  	c None",
". 	c #A5A4A3",
"+ 	c #403F40",
"@ 	c #040404",
"# 	c #050505",
"$ 	c #060606",
"% 	c #3C3C3C",
"& 	c #848485",
"* 	c #ABABA9",
"= 	c #A8A8A5",
"- 	c #1A1A1A",
"; 	c #212121",
"> 	c #232323",
", 	c #282828",
"' 	c #424242",
") 	c #616060",
"! 	c #9E9E9D",
"~ 	c #A2A1A0",
"{ 	c #070707",
"] 	c #2A2A2A",
"^ 	c #2D2D2D",
"/ 	c #2F2F2F",
"( 	c #363636",
"_ 	c #515151",
": 	c #535353",
"< 	c #AFAEAD",
"[ 	c #ACABAC",
"} 	c #313131",
"| 	c #4A4A4A",
"1 	c #565656",
"2 	c #595959",
"3 	c #B0B0AF",
"4 	c #AAABA9",
"5 	c #262626",
"6 	c #616161",
"7 	c #5B5B5B",
"8 	c #585959",
"9 	c #AEAFAD",
"0 	c #BAB9B8",
"a 	c #383838",
"b 	c #3E3E3E",
"c 	c #737373",
"d 	c #585857",
"e 	c #C1C2C1",
"f 	c #A1A09F",
"g 	c #3A3A3A",
"h 	c #484848",
"i 	c #4B4B4B",
"j 	c #818181",
"k 	c #686868",
"l 	c #646463",
"m 	c #BAB9B9",
"n 	c #9F9E9E",
"o 	c #444444",
"p 	c #545454",
"q 	c #8B8B8B",
"r 	c #6F6F6F",
"s 	c #525251",
"t 	c #B9B9B9",
"u 	c #BEBCBE",
"v 	c #5C5C5C",
"w 	c #939393",
"x 	c #767676",
"y 	c #535352",
"z 	c #DAD8D9",
"A 	c #AAA8AB",
"B 	c #777777",
"C 	c #888888",
"D 	c #ABABAB",
"E 	c #8A8A8A",
"F 	c #606060",
"G 	c #C7C7C7",
"H 	c #464646",
"I 	c #909090",
"J 	c #989898",
"K 	c #C2C2C2",
"L 	c #9A9A9A",
"M 	c #585757",
"N 	c #C4C3C2",
"O 	c #878787",
"P 	c #A0A0A0",
"Q 	c #E0E0E0",
"R 	c #A7A7A7",
"S 	c #585957",
"T 	c #D0CFCE",
"U 	c #A2A1A1",
"V 	c #090909",
"W 	c #787878",
"X 	c #BBBBBB",
"Y 	c #DDDDDD",
"Z 	c #FEFEFE",
"` 	c #B7B7B7",
" .	c #545453",
"..	c #C3C4C4",
"+.	c #AFAEAE",
"@.	c #797979",
"#.	c #8D8D8D",
"$.	c #9C9C9C",
"%.	c #9F9F9F",
"&.	c #686867",
"*.	c #D2D1D2",
"=.	c #B2B1B2",
"-.	c #595859",
";.	c #585858",
">.	c #595858",
",.	c #6C6C6B",
"'.	c #A1A1A0",
").	c #D3D1D4",
"!.	c #B0AFB1",
"~.	c #ABA9A9",
"{.	c #ABA9AA",
"].	c #B6B5B6",
"^.	c #B8B7B7",
"/.	c #BCBBBC",
"(.	c #C1C0C0",
"_.	c #C5C4C6",
":.	c #C8C7C9",
"<.	c #C6C5C7",
"[.	c #AEADAE",
". + @ # # # # $ % & * ",
"= # - ; ; ; > , ' ) ! ",
"~ { > ] ] ^ / ( _ : < ",
"[ { > ] ^ / } | 1 2 3 ",
"4 { 5 ^ / } ( 6 7 8 9 ",
"0 { , } a b ' c 6 d e ",
"f { ^ g ' h i j k l m ",
"n { ( o | _ p q r s t ",
"u { b | : 2 v w x y z ",
"A { ' _ 2 B C D E F G ",
"D { H 1 x I J K L M N ",
"D { h 2 O J P Q R S T ",
"U V _ W P X Y Z `  ...",
"+.g i 7 @.#.$.R %.&.*.",
"=.B -.-.-.;.;.>.,.'.).",
"!.~.{.].^./.(._.:.<.[."};
