/* XPM */
static char * title_2_inactive_xpm[] = {
"17 20 191 2",
"  	c None",
". 	c #FFFFFF",
"+ 	c #E5E5E5",
"@ 	c #E4E4E3",
"# 	c #E3E3E3",
"$ 	c #E3E3E2",
"% 	c #E2E2E2",
"& 	c #E1E1E0",
"* 	c #E2E1E0",
"= 	c #E3E2E2",
"- 	c #ABABAB",
"; 	c #ABABA9",
"> 	c #AFAEAE",
", 	c #9B9A9A",
"' 	c #666565",
") 	c #484848",
"! 	c #3E3D3D",
"~ 	c #3F3F3F",
"{ 	c #403F40",
"] 	c #3E3E3E",
"^ 	c #3A3A3A",
"/ 	c #A5A4A3",
"( 	c #A2A1A0",
"_ 	c #9E9D9C",
": 	c #585858",
"< 	c #333333",
"[ 	c #454545",
"} 	c #9F9F9F",
"| 	c #BABABA",
"1 	c #CCCCCC",
"2 	c #B0AFB0",
"3 	c #ACABAA",
"4 	c #4C4C4C",
"5 	c #444444",
"6 	c #908F90",
"7 	c #A1A1A1",
"8 	c #A3A3A3",
"9 	c #9D9D9D",
"0 	c #9C9C9C",
"a 	c #ACABAC",
"b 	c #5E5F5E",
"c 	c #4A4B4A",
"d 	c #D9D9D9",
"e 	c #DCDCDC",
"f 	c #D3D3D3",
"g 	c #CBCBCB",
"h 	c #C6C6C6",
"i 	c #C3C3C3",
"j 	c #C1C1C1",
"k 	c #BFBFBF",
"l 	c #BEBEBE",
"m 	c #BCBCBC",
"n 	c #B9B9B9",
"o 	c #C0C0C0",
"p 	c #8B8A89",
"q 	c #383737",
"r 	c #989898",
"s 	c #A5A5A5",
"t 	c #A4A4A4",
"u 	c #949494",
"v 	c #8F8F8F",
"w 	c #8C8C8C",
"x 	c #8A8A8A",
"y 	c #888888",
"z 	c #868686",
"A 	c #838383",
"B 	c #818181",
"C 	c #7F7F7F",
"D 	c #7C7C7C",
"E 	c #808080",
"F 	c #656565",
"G 	c #717170",
"H 	c #CECECE",
"I 	c #C2C2C2",
"J 	c #BBBBBB",
"K 	c #B5B5B5",
"L 	c #B4B4B4",
"M 	c #B1B1B1",
"N 	c #ADADAD",
"O 	c #ACACAC",
"P 	c #A8A8A8",
"Q 	c #A2A2A2",
"R 	c #A6A6A6",
"S 	c #414040",
"T 	c #828282",
"U 	c #999999",
"V 	c #979796",
"W 	c #909090",
"X 	c #8B8B8B",
"Y 	c #7D7D7C",
"Z 	c #7B7B7B",
"` 	c #787878",
" .	c #757575",
"..	c #727272",
"+.	c #717171",
"@.	c #B3B3B3",
"#.	c #AEAEAE",
"$.	c #ABAAAA",
"%.	c #9E9E9E",
"&.	c #989897",
"*.	c #949493",
"=.	c #454544",
"-.	c #858585",
";.	c #7D7D7D",
">.	c #797879",
",.	c #767676",
"'.	c #737373",
").	c #6F6F6F",
"!.	c #6D6D6D",
"~.	c #686868",
"{.	c #676767",
"].	c #505050",
"^.	c #939393",
"/.	c #A7A7A7",
"(.	c #A9A9A9",
"_.	c #9A9A9A",
":.	c #969697",
"<.	c #929191",
"[.	c #8C8C8B",
"}.	c #646464",
"|.	c #474747",
"1.	c #696A69",
"2.	c #6B6B6B",
"3.	c #626263",
"4.	c #5F5F5F",
"5.	c #5D5D5D",
"6.	c #545454",
"7.	c #525252",
"8.	c #9A999A",
"9.	c #5F5E5F",
"0.	c #7A7A7A",
"a.	c #919191",
"b.	c #878787",
"c.	c #828181",
"d.	c #808081",
"e.	c #777777",
"f.	c #767675",
"g.	c #747474",
"h.	c #A2A3A3",
"i.	c #727373",
"j.	c #4E4E4E",
"k.	c #555555",
"l.	c #494949",
"m.	c #464646",
"n.	c #434343",
"o.	c #424242",
"p.	c #3D3C3C",
"q.	c #3D3C3D",
"r.	c #3C3C3C",
"s.	c #A8A7A7",
"t.	c #605F5F",
"u.	c #4E4D4E",
"v.	c #5E5E5E",
"w.	c #606060",
"x.	c #5C5C5C",
"y.	c #575757",
"z.	c #565656",
"A.	c #535353",
"B.	c #515151",
"C.	c #B8B8B8",
"D.	c #B8B6B7",
"E.	c #B6B5B6",
"F.	c #969596",
"G.	c #919091",
"H.	c #5B5B5B",
"I.	c #242424",
"J.	c #1F1F1F",
"K.	c #1C1C1D",
"L.	c #1C1B1C",
"M.	c #1B1B1C",
"N.	c #1B1B1B",
"O.	c #1C1C1C",
"P.	c #ACABAD",
"Q.	c #B2B2B2",
"R.	c #A9A9AA",
"S.	c #A4A4A5",
"T.	c #B0B0B0",
"U.	c #C8C7C7",
"V.	c #C9C8C8",
"W.	c #C7C6C8",
"X.	c #CACBCA",
"Y.	c #D0CECE",
"Z.	c #CDCCCD",
"`.	c #CCCBCD",
" +	c #CECDCE",
".+	c #6D6C6D",
"++	c #6E6E6E",
"@+	c #707171",
"#+	c #747373",
"$+	c #747475",
"%+	c #000000",
". . . . . . . . . . . . . . . . . ",
"+ @ @ # # $ % % $ # % & * % = = # ",
"- - ; > , ' ) ! ~ { ~ ] ~ ~ ] ] ^ ",
"/ ( _ : < [ } | 1 1 1 1 1 1 1 1 1 ",
"2 3 4 5 6 7 8 } 9 9 9 9 9 9 9 0 8 ",
"a b c d e e f g h i i j k l m n o ",
"p q r s t 9 u v w x y z A B C D E ",
"F G d d H I J n K L M N O P s Q R ",
"S T U V W X y z A T B Y Z `  ...+.",
"< @.k n @.M #.- $.R s 8 %.0 &.*.r ",
"=.Z -.-.T B C ;.` >.,.'.).!.~.' {.",
"].^./.(.s t 7 %._.U :.u <.v [.y X ",
"}.|.1.'.'.+.!.2.F F 3.4.5.: 6.7.6.",
"8.9.0.v ^.a.v X b.-.c.d.Z 0.e.f.g.",
"h.i.j.|.6.k.7.j.l.m.n.o.~ ] p.q.r.",
"a s.e.t.u.].v.w.x.y.z.A.A.B.B.B.B.",
"C.D.E.F.G.H.I.J.K.K.L.L.M.L.L.N.O.",
"P.Q.Q.Q.R.S.T.U.V.W.V.X.Y.Z.Z.`. +",
".+++++).).).@+....g.g.#+#+....$+g.",
"%+%+%+%+%+%+%+%+%+%+%+%+%+%+%+%+%+"};
