/* XPM */
static char * title_4_inactive_xpm[] = {
"10 20 152 2",
"  	c None",
". 	c #FFFFFF",
"+ 	c #E0E0DF",
"@ 	c #DFDEDE",
"# 	c #E0DFDF",
"$ 	c #E1E0E0",
"% 	c #E2E1E1",
"& 	c #E3E2E2",
"* 	c #E4E3E3",
"= 	c #E4E4E4",
"- 	c #424141",
"; 	c #434342",
"> 	c #50504F",
", 	c #6D6C6C",
"' 	c #969695",
") 	c #ABABAB",
"! 	c #ACABAC",
"~ 	c #B5B4B6",
"{ 	c #D5D5D5",
"] 	c #AEADAD",
"^ 	c #808080",
"/ 	c #5A5A5A",
"( 	c #5F5E5E",
"_ 	c #757474",
": 	c #A5A4A3",
"< 	c #A6A5A5",
"[ 	c #A8A8A8",
"} 	c #A2A3A1",
"| 	c #878787",
"1 	c #7E7E7E",
"2 	c #767676",
"3 	c #696968",
"4 	c #464746",
"5 	c #646564",
"6 	c #767675",
"7 	c #A3A3A3",
"8 	c #B2B3B1",
"9 	c #B0AFB0",
"0 	c #AAAAA9",
"a 	c #A3A4A3",
"b 	c #9C9C9C",
"c 	c #8F8E8E",
"d 	c #626261",
"e 	c #676767",
"f 	c #8A8A89",
"g 	c #A8A7A7",
"h 	c #787878",
"i 	c #737373",
"j 	c #6D6D6D",
"k 	c #666665",
"l 	c #5C5B5B",
"m 	c #484848",
"n 	c #2B2B2B",
"o 	c #817F7F",
"p 	c #9C9B9B",
"q 	c #AAABAB",
"r 	c #A7A7A6",
"s 	c #A1A1A1",
"t 	c #9B9B9B",
"u 	c #969595",
"v 	c #8E8E8E",
"w 	c #7F7F7E",
"x 	c #515151",
"y 	c #444444",
"z 	c #A8A7A8",
"A 	c #A8A8A7",
"B 	c #6E6E6E",
"C 	c #616160",
"D 	c #5C5C5C",
"E 	c #545353",
"F 	c #494949",
"G 	c #343434",
"H 	c #1D1D1D",
"I 	c #A4A4A3",
"J 	c #AAABA8",
"K 	c #959595",
"L 	c #8F8F8F",
"M 	c #8A8A8A",
"N 	c #828282",
"O 	c #575656",
"P 	c #212121",
"Q 	c #A9A9A9",
"R 	c #666566",
"S 	c #616161",
"T 	c #555555",
"U 	c #4C4C4C",
"V 	c #404040",
"W 	c #303030",
"X 	c #181818",
"Y 	c #D3D3D3",
"Z 	c #B2B1B1",
"` 	c #919191",
" .	c #8C8C8C",
"..	c #7F7F7F",
"+.	c #717171",
"@.	c #5D5D5D",
"#.	c #3B3A3A",
"$.	c #1F1F1F",
"%.	c #BFBFBF",
"&.	c #A1A0A0",
"*.	c #585858",
"=.	c #4A4A4A",
"-.	c #454545",
";.	c #3A3A3A",
">.	c #2F2F2F",
",.	c #393939",
"'.	c #B6B7B5",
").	c #A4A3A3",
"!.	c #838383",
"~.	c #7D7D7D",
"{.	c #727272",
"].	c #636263",
"^.	c #4E4E4E",
"/.	c #313131",
"(.	c #B9B9BA",
"_.	c #B1B1B1",
":.	c #3D3D3D",
"<.	c #363636",
"[.	c #2C2C2C",
"}.	c #202020",
"|.	c #1A1A1A",
"1.	c #6F6E6F",
"2.	c #B7B7B7",
"3.	c #A1A0A1",
"4.	c #B2B2B3",
"5.	c #565656",
"6.	c #353535",
"7.	c #242424",
"8.	c #252525",
"9.	c #878586",
"0.	c #CCCCCC",
"a.	c #ADACAE",
"b.	c #AFAEAD",
"c.	c #1B1B1B",
"d.	c #1D1C1D",
"e.	c #707171",
"f.	c #C9CACA",
"g.	c #CBCCCC",
"h.	c #B3B4B4",
"i.	c #B2B3B3",
"j.	c #CFCECF",
"k.	c #CECCCB",
"l.	c #C2C0C1",
"m.	c #C3C1C2",
"n.	c #B1B0B0",
"o.	c #AEADAE",
"p.	c #ABABAC",
"q.	c #706F6F",
"r.	c #6F6F6F",
"s.	c #6E6D6D",
"t.	c #6D6C6D",
"u.	c #000000",
". . . . . . . . . . ",
"+ @ # # $ % & * = * ",
"- ; > , ' ) ! ! ! ~ ",
"{ ] ^ / ( _ : < [ } ",
"| 1 2 3 4 5 6 7 < 8 ",
"9 0 a b c d e f g < ",
"h i j k l m n o p q ",
"r s t u v w x y z A ",
"B e C D E F G H I J ",
"t K L M N i O P Q A ",
"R S / T U V W X Y Z ",
"`  .| ..+.@.#.$.%.&.",
"*.x =.-.;.>.H ,.'.).",
"!.~.{.].^./.P (._.~ ",
"y :.<.[.}.|.1.2.3.4.",
"5.=.6.7.8.9.0.a.! b.",
"c.d.P e.f.g.h.i.i.4.",
"j.k.l.m.n.! ] o.o.p.",
"e.q.r.s.s.t.t.r.t.h ",
"u.u.u.u.u.u.u.u.u.u."};
