/* XPM */
static char * title_2_active_xpm[] = {
"17 20 135 2",
"  	c None",
". 	c #FFFFFF",
"+ 	c #E5E5E5",
"@ 	c #E4E4E3",
"# 	c #E3E3E3",
"$ 	c #E3E3E2",
"% 	c #E2E2E2",
"& 	c #E1E1E0",
"* 	c #E2E1E0",
"= 	c #E3E2E2",
"- 	c #ABABAB",
"; 	c #ABABA9",
"> 	c #AFAEAE",
", 	c #888787",
"' 	c #484747",
") 	c #3D3D3D",
"! 	c #414141",
"~ 	c #474747",
"{ 	c #A5A4A3",
"] 	c #A2A1A0",
"^ 	c #9A9998",
"/ 	c #6A6A6A",
"( 	c #A1A1A1",
"_ 	c #B6B6B6",
": 	c #C8C8C8",
"< 	c #B0AFB0",
"[ 	c #A8A7A6",
"} 	c #393939",
"| 	c #565656",
"1 	c #969696",
"2 	c #B1B1B1",
"3 	c #B4B4B4",
"4 	c #B3B3B3",
"5 	c #B0B0B0",
"6 	c #ACABAC",
"7 	c #434443",
"8 	c #616161",
"9 	c #C3C3C3",
"0 	c #DCDCDC",
"a 	c #DEDEDE",
"b 	c #D9D9D9",
"c 	c #D5D5D5",
"d 	c #D0D0D0",
"e 	c #CFCFCF",
"f 	c #CDCDCD",
"g 	c #CCCCCC",
"h 	c #CBCBCB",
"i 	c #CACACA",
"j 	c #C7C7C7",
"k 	c #C6C6C6",
"l 	c #7A7A79",
"m 	c #444444",
"n 	c #9D9D9D",
"o 	c #B5B5B5",
"p 	c #ADADAD",
"q 	c #AAAAAA",
"r 	c #A8A8A8",
"s 	c #A6A6A6",
"t 	c #A5A5A5",
"u 	c #A3A3A3",
"v 	c #A2A2A2",
"w 	c #A0A0A0",
"x 	c #9F9F9F",
"y 	c #9B9B9B",
"z 	c #828282",
"A 	c #D8D8D8",
"B 	c #DBDBDB",
"C 	c #D6D6D6",
"D 	c #C9C9C9",
"E 	c #C4C4C4",
"F 	c #C1C1C1",
"G 	c #C0C0C0",
"H 	c #BDBDBD",
"I 	c #BBBBBB",
"J 	c #B9B9B9",
"K 	c #3B3B3B",
"L 	c #939393",
"M 	c #ACACAC",
"N 	c #9E9E9E",
"O 	c #9C9C9C",
"P 	c #9A9A9A",
"Q 	c #989898",
"R 	c #959595",
"S 	c #404040",
"T 	c #C5C5C5",
"U 	c #C2C2C2",
"V 	c #BEBEBE",
"W 	c #BCBCBC",
"X 	c #AEAEAE",
"Y 	c #484847",
"Z 	c #979797",
"` 	c #949494",
" .	c #929292",
"..	c #909090",
"+.	c #494949",
"@.	c #A4A4A4",
"#.	c #BABABA",
"$.	c #AFAFAF",
"%.	c #A9A9A9",
"&.	c #A7A7A7",
"*.	c #535353",
"=.	c #808080",
"-.	c #919191",
";.	c #999999",
">.	c #8D8D8D",
",.	c #8B8B8B",
"'.	c #8A8A8A",
").	c #898989",
"!.	c #888788",
"~.	c #707070",
"{.	c #A2A3A3",
"].	c #676868",
"^.	c #858585",
"/.	c #818181",
"(.	c #868686",
"_.	c #8C8C8C",
":.	c #888888",
"<.	c #848484",
"[.	c #838383",
"}.	c #A4A3A3",
"|.	c #787878",
"1.	c #8F8F8F",
"2.	c #B8B8B8",
"3.	c #B8B6B7",
"4.	c #B3B2B3",
"5.	c #8D8C8D",
"6.	c #6E6E6E",
"7.	c #636363",
"8.	c #ACABAD",
"9.	c #B2B2B2",
"0.	c #A5A5A6",
"a.	c #A8A8A9",
"b.	c #DDDDDD",
"c.	c #79787A",
"d.	c #000000",
". . . . . . . . . . . . . . . . . ",
"+ @ @ # # $ % % $ # % & * % = = # ",
"- - ; > , ' ) ! ~ ~ ~ ~ ~ ~ ~ ~ ~ ",
"{ ] ^ ! ) / ( _ : : : : : : : : : ",
"< [ } | 1 2 3 4 2 5 5 5 5 5 5 5 5 ",
"6 7 8 9 0 a b c d e e f g h i j k ",
"l m n o _ 4 p q r s t u v w x n y ",
"~ z A B C e i D j k E F G H I J _ ",
"K L M p q s s t u u ( x N O P Q R ",
"S I D j T E 9 U F V H W J _ 4 5 X ",
"Y R w ( ( w w w n n y P Z 1 `  ...",
"+.@.#.H W W #.J _ o 4 2 $.p - %.&.",
"*.=.-.;.P ;.Z Z ` ` L -...>.,.'.).",
"!.~.P q $.$.X M %.%.s t v w x N n ",
"{.].^./.(._.,.'.:.(.^.<.[.z /././.",
"6 }.|.1 >.'.L `  ...1.>.>.>.>.>.>.",
"2.3.4.5.v y z 6.7.7.7.7.7.7.7.7.7.",
"8.9.9.9.0.a.V b.a a a a a a a a a ",
"c.c.c.c.c.c.c.c.c.c.c.c.c.c.c.c.c.",
"d.d.d.d.d.d.d.d.d.d.d.d.d.d.d.d.d."};
