/* XPM */
static char * title_5_inactive_xpm[] = {
"6 20 52 1",
" 	c None",
".	c #FFFFFF",
"+	c #E4E3E3",
"@	c #E3E2E2",
"#	c #E2E2E2",
"$	c #B5B4B6",
"%	c #B5B4B5",
"&	c #A2A3A1",
"*	c #A2A2A0",
"=	c #A1A1A0",
"-	c #A0A09E",
";	c #A09F9E",
">	c #B2B3B1",
",	c #B2B2B1",
"'	c #A6A5A5",
")	c #A7A6A6",
"!	c #A8A7A7",
"~	c #AAABAB",
"{	c #A8A8A7",
"]	c #A9A8A8",
"^	c #AAAAA9",
"/	c #ABAAAA",
"(	c #ACABAB",
"_	c #AAABA8",
":	c #AAAAA8",
"<	c #A9AAA8",
"[	c #A8A7A6",
"}	c #A6A6A6",
"|	c #A6A5A4",
"1	c #A5A4A4",
"2	c #B2B1B1",
"3	c #B1B0B0",
"4	c #B0AFB0",
"5	c #A1A0A0",
"6	c #A0A0A0",
"7	c #A0A09F",
"8	c #A4A3A3",
"9	c #A4A4A4",
"0	c #B6B4B6",
"a	c #B6B5B6",
"b	c #B2B2B3",
"c	c #B3B2B4",
"d	c #B4B3B5",
"e	c #AFAEAD",
"f	c #AFAEAE",
"g	c #B0AEAE",
"h	c #ABABAC",
"i	c #AAABAC",
"j	c #787878",
"k	c #787879",
"l	c #79787A",
"m	c #000000",
"......",
"+++@##",
"$$$$%%",
"&&*=-;",
">>>,,,",
"''')!!",
"~~~~~~",
"{{]^/(",
"__:<{{",
"{{[}|1",
"222344",
"555677",
"888911",
"$$$0aa",
"bbbcdd",
"eefg44",
"bbbcdd",
"hhhi~~",
"jjjkll",
"mmmmmm"};
