/* XPM */
static char * top_left_active_xpm[] = {
"4 20 67 1",
" 	c None",
".	c #FFFFFF",
"+	c #F7F7F6",
"@	c #EEEEED",
"#	c #DEDDDD",
"$	c #E5E5E4",
"%	c #CDCCCC",
"&	c #9C9B9B",
"*	c #9E9E9C",
"=	c #E8E8E8",
"-	c #D1D1D1",
";	c #A2A3A1",
">	c #A5A4A3",
",	c #D3D2D1",
"'	c #A6A5A4",
")	c #A5A5A3",
"!	c #E9E9E9",
"~	c #D4D4D3",
"{	c #AAABA9",
"]	c #A8A7A5",
"^	c #ECECEC",
"/	c #DBDADA",
"(	c #B5B4B6",
"_	c #9D9C9E",
":	c #EDEDED",
"<	c #DCDBDB",
"[	c #BAB9B8",
"}	c #6A696A",
"|	c #E7E7E6",
"1	c #CECECD",
"2	c #9F9F9C",
"3	c #414140",
"4	c #EAE9EA",
"5	c #D5D4D5",
"6	c #ACABAC",
"7	c #3C3C3C",
"8	c #D4D4D4",
"9	c #ACABAB",
"0	c #424242",
"a	c #D3D3D3",
"b	c #ABABAB",
"c	c #4E4D4D",
"d	c #ECEBEB",
"e	c #D9D8D8",
"f	c #B2B2B2",
"g	c #6F6F6F",
"h	c #EBEBEB",
"i	c #D8D7D7",
"j	c #B2B1B2",
"k	c #9B9A9C",
"l	c #ECEBEC",
"m	c #D8D8D8",
"n	c #B2B3B3",
"o	c #EDEDEC",
"p	c #DBDBDA",
"q	c #B8B8B8",
"r	c #D9D8D9",
"s	c #B4B3B5",
"t	c #B6B5B6",
"u	c #D3D3D2",
"v	c #A8A8A8",
"w	c #A5A4A4",
"x	c #AFAEB0",
"y	c #969597",
"z	c #D9D9DA",
"A	c #9E9C9D",
"B	c #7F7F81",
"....",
"+@##",
"$%&*",
"=-;>",
"=,')",
"!~{]",
"^/(_",
":<[}",
"|123",
"4567",
"!890",
"!abc",
"defg",
"hijk",
"lmnn",
"opqq",
"lrst",
"!uvw",
"hmxy",
"^zAB"};
