/* XPM */
static char * bottom_right_inactive_xpm[] = {
"22 22 5 1",
" 	c None",
".	c #AAAAAA",
"+	c #C7C7C7",
"@	c #000000",
"#	c #D5D5D5",
"                ....+@",
"                .####@",
"                .+++#@",
"                .+++#@",
"                .+++#@",
"                .+++#@",
"                .+++#@",
"                .+++#@",
"                .+++#@",
"                .+++#@",
"                .+++#@",
"                .+++#@",
"                .+++#@",
"                .+++#@",
"                .+++#@",
"                .+++#@",
"................++++#@",
"+##############++++#@ ",
".++++++++++++++++++#@ ",
".++++++++++++++++..@  ",
".................@@   ",
"@@@@@@@@@@@@@@@@@     "};
