/* XPM */
static char * close_pressed_xpm[] = {
"18 20 44 1",
" 	c None",
".	c #D6D6D6",
"+	c #A7A7A7",
"@	c #A9A9A9",
"#	c #ABABAB",
"$	c #ADADAD",
"%	c #AFAFAF",
"&	c #B2B2B2",
"*	c #B4B4B4",
"=	c #B6B6B6",
"-	c #B8B8B8",
";	c #BBBBBB",
">	c #BDBDBD",
",	c #BFBFBF",
"'	c #C1C1C1",
")	c #C4C4C4",
"!	c #C6C6C6",
"~	c #C8C8C8",
"{	c #CACACA",
"]	c #D5D5D5",
"^	c #B9B9B9",
"/	c #BABABA",
"(	c #BCBCBC",
"_	c #BEBEBE",
":	c #C0C0C0",
"<	c #C2C2C2",
"[	c #C3C3C3",
"}	c #D4D4D4",
"|	c #C5C5C5",
"1	c #D3D3D3",
"2	c #3A3A3A",
"3	c #3B3B3B",
"4	c #3C3C3C",
"5	c #C7C7C7",
"6	c #D2D2D2",
"7	c #C9C9C9",
"8	c #D1D1D1",
"9	c #CBCBCB",
"0	c #D0D0D0",
"a	c #3D3D3D",
"b	c #CFCFCF",
"c	c #CCCCCC",
"d	c #CDCDCD",
"e	c #CECECE",
"..................",
".+@#$%&*=-;>,')!~{",
"]@^/;((>__,:''<[))",
"}#/;((>__,:''<[))|",
"}$;((>__,:''<[))|!",
"1%((>__22''<[33|!!",
"1&(>__2222<[3334!5",
"6*>__,22233333445~",
"6=__,:'233333445~7",
"8-_,:''<3333445~77",
"8;:''<[)33444477{9",
"0>''<[)334444aa{99",
"b,'<[)334444aaaa9c",
"b'<[))3444~7aaaacd",
"e)[))|!44~77{aacde",
"e!))|!!5~77{99cdee",
"d~)|!!5~77{99cdeeb",
"c{|!!5~77{99cdeeb0",
"cd!!5~77{99cdeeb00",
"9b!5~77{99cdeeb008"};
