/* XPM */
static char * hide_active_xpm[] = {
"23 20 68 1",
" 	c None",
".	c #FFFFFF",
"+	c #A1A1A1",
"@	c #A5A5A5",
"#	c #A9A9A9",
"$	c #AEAEAE",
"%	c #B2B2B2",
"&	c #B7B7B7",
"*	c #BBBBBB",
"=	c #C0C0C0",
"-	c #C4C4C4",
";	c #C9C9C9",
">	c #CDCDCD",
",	c #D2D2D2",
"'	c #D6D6D6",
")	c #DBDBDB",
"!	c #DFDFDF",
"~	c #E4E4E4",
"{	c #E8E8E8",
"]	c #EDEDED",
"^	c #F1F1F1",
"/	c #F6F6F6",
"(	c #FAFAFA",
"_	c #FDFDFD",
":	c #C6C6C6",
"<	c #C8C8C8",
"[	c #CBCBCB",
"}	c #CCCCCC",
"|	c #CECECE",
"1	c #CFCFCF",
"2	c #D0D0D0",
"3	c #D3D3D3",
"4	c #D5D5D5",
"5	c #D8D8D8",
"6	c #D9D9D9",
"7	c #DCDCDC",
"8	c #DDDDDD",
"9	c #E0E0E0",
"0	c #E2E2E2",
"a	c #FCFCFC",
"b	c #E3E3E3",
"c	c #FBFBFB",
"d	c #E5E5E5",
"e	c #E6E6E6",
"f	c #F9F9F9",
"g	c #E7E7E7",
"h	c #F8F8F8",
"i	c #E9E9E9",
"j	c #F7F7F7",
"k	c #EAEAEA",
"l	c #ECECEC",
"m	c #F5F5F5",
"n	c #EFEFEF",
"o	c #F3F3F3",
"p	c #989898",
"q	c #424242",
"r	c #434343",
"s	c #444444",
"t	c #454545",
"u	c #A0A0A0",
"v	c #F0F0F0",
"w	c #F2F2F2",
"x	c #464646",
"y	c #474747",
"z	c #9B9B9B",
"A	c #A4A4A4",
"B	c #F4F4F4",
"C	c #EBEBEB",
"......................+",
".+@#$%&*=-;>,')!~{]^/(+",
"_@:<;[}|12,34'56)78!90+",
"a#<;[}|12,34'56)78!90b+",
"c$;[}|12,34'56)78!90bd+",
"(%[}|12,34'56)78!90bde+",
"f&}|12,34'56)78!90bdeg+",
"h*|12,34'56)78!90bdegi+",
"j=12,34'56)78!90bdegik+",
"/-2,34'56)78!90bdegikl+",
"m;34'56)78!90bdegikl]n+",
"o>4'56pqrrsstttuikl]nv+",
"w,'56)qrrsstttxxkl]nvw+",
"^'56)7rrsstttxxyl]nvwo+",
"v)6)78zsstttxxyA]nvwoB+",
"n!)78!90bdegikl]nvwoB/+",
"]~78!90bdegikl]nvwoB/j+",
"l{8!90bdegikl]nvwoB/jf+",
"C]!90bdegikl]nvwoB/jf(+",
"k^90bdegikl]nvwoB/jf(a+"};
