/* XPM */
static char * top_left_active_xpm[] = {
"6 22 48 1",
" 	c None",
".	c #000000",
"+	c #FFFFFF",
"@	c #AEAEAE",
"#	c #C4C4C4",
"$	c #C9C9C9",
"%	c #CBCBCB",
"&	c #FBFBFB",
"*	c #CCCCCC",
"=	c #FAFAFA",
"-	c #B2B2B2",
";	c #CECECE",
">	c #F9F9F9",
",	c #B7B7B7",
"'	c #CFCFCF",
")	c #F8F8F8",
"!	c #BBBBBB",
"~	c #D0D0D0",
"{	c #F7F7F7",
"]	c #C0C0C0",
"^	c #D2D2D2",
"/	c #F6F6F6",
"(	c #D3D3D3",
"_	c #F5F5F5",
":	c #D5D5D5",
"<	c #D6D6D6",
"[	c #F3F3F3",
"}	c #CDCDCD",
"|	c #D8D8D8",
"1	c #F2F2F2",
"2	c #D9D9D9",
"3	c #F1F1F1",
"4	c #DBDBDB",
"5	c #F0F0F0",
"6	c #DCDCDC",
"7	c #EFEFEF",
"8	c #DFDFDF",
"9	c #DDDDDD",
"0	c #EDEDED",
"a	c #E4E4E4",
"b	c #ECECEC",
"c	c #E8E8E8",
"d	c #E0E0E0",
"e	c #EBEBEB",
"f	c #E2E2E2",
"g	c #EAEAEA",
"h	c #E3E3E3",
"i	c #919191",
"     .",
"   ..+",
"  .++@",
" .+##$",
" .+#$%",
".&@$%*",
".=-%*;",
".>,*;'",
".)!;'~",
".{]'~^",
"./#~^(",
"._$(:<",
".[}:<|",
".1^<|2",
".3<|24",
".54246",
".78469",
".0a698",
".bc98d",
".e08df",
".g3dfh",
".iiiii"};
