/* XPM */
static char * top_right_inactive_xpm[] = {
"6 22 25 1",
" 	c None",
".	c #000000",
"+	c #FFFFFF",
"@	c #EFEFEF",
"#	c #FDFDFD",
"$	c #DEDEDE",
"%	c #DFDFDF",
"&	c #E0E0E0",
"*	c #CFCFCF",
"=	c #E2E2E2",
"-	c #E3E3E3",
";	c #E4E4E4",
">	c #C4C4C4",
",	c #E5E5E5",
"'	c #E6E6E6",
")	c #E8E8E8",
"!	c #E9E9E9",
"~	c #EAEAEA",
"{	c #EBEBEB",
"]	c #ECECEC",
"^	c #EEEEEE",
"/	c #F0F0F0",
"(	c #F1F1F1",
"_	c #F2F2F2",
":	c #8F8F8F",
".     ",
"+..   ",
"@##.  ",
"$%&*. ",
"%&=*. ",
"&=-;>.",
"=-;,>.",
"-;,'>.",
"')!~>.",
")!~{>.",
"!~{]>.",
"{]^@>.",
"!~{]>.",
"{]^@>.",
"]^@/>.",
"^@/(>.",
"@/(_>.",
"^@{]>.",
"^@{]>.",
"{]^@>.",
"@/(_>.",
"::::>."};
