/* XPM */
static char *maximize-inactive[] = {
/* width height num_colors chars_per_pixel */
"    16    19      256            2",
/* colors */
"`` c #4a4d4a",
"`. c #2e2d2e",
"`# c #d7d3cf",
"`a c #d2cec8",
"`b c #bebab5",
"`c c #77756d",
"`d c #706f61",
"`e c #727160",
"`f c #71705f",
"`g c #6e6c5e",
"`h c #74726b",
"`i c #ccc8c1",
"`j c #93918a",
"`k c #6e6d5e",
"`l c #b9b8a2",
"`m c #bfbea7",
"`n c #b8b79d",
"`o c #b4b297",
"`p c #b2b094",
"`q c #a6a588",
"`r c #5e5d4c",
"`s c #918e88",
"`t c #c6c3ba",
"`u c #94928a",
"`v c #7e7d6a",
"`w c #bbbaa2",
"`x c #acaa8c",
"`y c #a4a281",
"`z c #a3a180",
"`A c #a5a383",
"`B c #a6a484",
"`C c #a4a282",
"`D c #65644f",
"`E c #918f88",
"`F c #c1beb2",
"`G c #b9b6ab",
"`H c #626151",
"`I c #aeac8f",
"`J c #747359",
"`K c #464533",
"`L c #474634",
"`M c #484734",
"`N c #484736",
"`O c #7c7a5f",
"`P c #a09e7c",
"`Q c #4c4b3c",
"`R c #bbb8aa",
"`S c #757369",
"`T c #979579",
"`U c #4e4d3b",
"`V c #57553e",
"`W c #7e7c5b",
"`X c #7f7d5c",
"`Y c #817e5d",
"`Z c #817f5d",
"`0 c #54523c",
"`1 c #595844",
"`2 c #a19f7e",
"`3 c #a19e7c",
"`4 c #858364",
"`5 c #716f67",
"`6 c #b6b3a3",
"`7 c #5c5b4f",
"`8 c #63614d",
".` c #616046",
".. c #727052",
".# c #52503b",
".a c #52513b",
".b c #747354",
".c c #858360",
".d c #5e5c43",
".e c #6f6d55",
".f c #a09e7b",
".g c #9a9874",
".h c #565448",
".i c #b0ad9c",
".j c #565547",
".k c #403f2f",
".l c #6e6c4f",
".m c #626150",
".n c #b7b69f",
".o c #afad93",
".p c #545341",
".q c #716f52",
".r c #878562",
".s c #494836",
".t c #515040",
".u c #aaa894",
".v c #3c3c32",
".w c #57563f",
".x c #51503c",
".y c #bbb9a2",
".z c #999774",
".A c #474633",
".B c #8a8763",
".C c #595740",
".D c #9d9b7d",
".E c #999772",
".F c #4e4d3d",
".G c #a5a28d",
".H c #999683",
".I c #848263",
".J c #807e5d",
".K c #52503d",
".L c #aead90",
".M c #a29f7d",
".N c #a09d7b",
".O c #979470",
".P c #8c8a65",
".Q c #656348",
".R c #9c9b80",
".S c #95936f",
".T c #4e4c3f",
".U c #9f9c85",
".V c #8f8d71",
".W c #5f5d44",
".X c #6d6b53",
".Y c #9b9975",
".Z c #979571",
".0 c #626047",
".1 c #636147",
".2 c #8e8c67",
".3 c #5a5841",
".4 c #a9a88c",
".5 c #7c7a5b",
".6 c #5e5d4f",
".7 c #9a977e",
".8 c #98957c",
"#` c #848160",
"#. c #84825f",
"## c #585740",
"#a c #464532",
"#b c #5c5b43",
"#c c #928f69",
"#d c #5a5946",
"#e c #a2a080",
"#f c #414030",
"#g c #928f77",
"#h c #949276",
"#i c #908e71",
"#j c #8f8d68",
"#k c #54523d",
"#l c #8e8c70",
"#m c #595842",
"#n c #666551",
"#o c #8e8c6f",
"#p c #8c8a6d",
"#q c #888665",
"#r c #888663",
"#s c #8b8864",
"#t c #7c7a5a",
"#u c #444432",
"#v c #6e6c51",
"#w c #4c4b39",
"#x c #5e5d49",
"#y c #898767",
"#z c #888666",
"#A c #878565",
"#B c #1d1c15",
"#C c #424131",
"#D c #454433",
"#E c #77765a",
"#F c #838160",
"#G c #000000",
"#H c #000000",
"#I c #000000",
"#J c #000000",
"#K c #000000",
"#L c #000000",
"#M c #000000",
"#N c #000000",
"#O c #000000",
"#P c #000000",
"#Q c #000000",
"#R c #000000",
"#S c #000000",
"#T c #000000",
"#U c #000000",
"#V c #000000",
"#W c #000000",
"#X c #000000",
"#Y c #000000",
"#Z c #000000",
"#0 c #000000",
"#1 c #000000",
"#2 c #000000",
"#3 c #000000",
"#4 c #000000",
"#5 c #000000",
"#6 c #000000",
"#7 c #000000",
"#8 c #000000",
"a` c #000000",
"a. c #000000",
"a# c #000000",
"aa c #000000",
"ab c #000000",
"ac c #000000",
"ad c #000000",
"ae c #000000",
"af c #000000",
"ag c #000000",
"ah c #000000",
"ai c #000000",
"aj c #000000",
"ak c #000000",
"al c #000000",
"am c #000000",
"an c #000000",
"ao c #000000",
"ap c #000000",
"aq c #000000",
"ar c #000000",
"as c #000000",
"at c #000000",
"au c #000000",
"av c #000000",
"aw c #000000",
"ax c #000000",
"ay c #000000",
"az c #000000",
"aA c #000000",
"aB c #000000",
"aC c #000000",
"aD c #000000",
"aE c #000000",
"aF c #000000",
"aG c #000000",
"aH c #000000",
"aI c #000000",
"aJ c #000000",
"aK c #000000",
"aL c #000000",
"aM c #000000",
"aN c #000000",
"aO c #000000",
"aP c #000000",
"aQ c #000000",
"aR c #000000",
"aS c #000000",
"aT c #000000",
"aU c #000000",
"aV c #000000",
"aW c #000000",
"aX c #000000",
"aY c #000000",
"aZ c #000000",
"a0 c #000000",
"a1 c #000000",
"a2 c #000000",
"a3 c #000000",
"a4 c #000000",
"a5 c #000000",
"a6 c #000000",
"a7 c #000000",
"a8 c #000000",
/* pixels */
"````````````````````````````````",
"`.`.`.`.`.`.`.`.`.`.`.`.`.`.`.`.",
"`#`#`#`#`#`#`#`#`#`#`#`#`#`#`#`#",
"`a`a`a`a`b`c`d`e`f`g`h`b`a`a`a`a",
"`i`i`i`j`k`l`m`n`o`p`q`r`s`i`i`i",
"`t`t`u`v`w`x`y`z`A`B`B`C`D`E`t`t",
"`F`G`H`I`J`K`L`M`N`O`z`z`P`Q`G`F",
"`R`S`T`U`V`W`X`Y`Z`0`1`2`3`4`5`R",
"`6`7`8.``W...#.a.b.c.d.e.f.g.h`6",
".i.j.k`W.l.m.n.o.p.q.r.s`P.g.t.i",
".u.v.w`X.x.y`o`A.z.A.B.C.D.E.F.u",
".G.H.I.J.K.L.M.N.O.A.P.Q.R.S.T.G",
".U.U.V`Z.W.X.Y.Z.0.1.2.3.4.5.6.U",
".7.7.8#`#.##.A#a#b#c.2#d#e#f#g.7",
"#h#h#h#i.c.r.B.P.2#j#k#l#m#n#h#h",
"#o#o#o#o#p#q#r#s#t#u#v#w#x#o#o#o",
"#y#y#y#y#y#y#z#A#B#C#D#E#y#y#y#y",
"#F#F#F#F#F#F#F#F#F#F#F#F#F#F#F#F",
"`.`.`.`.`.`.`.`.`.`.`.`.`.`.`.`."
};
