/* XPM */
static char * shade_inactive_xpm[] = {
"15 15 20 1",
"n	c None",
" 	c #AEBAB2CAAEBA",
".	c #000000000000",
"X	c #FFFFFFFFFFFF",
"o	c #B6DAB6DAB6DA",
"O	c #B6DABAEAB6DA",
"+	c #BEFBBEFBBEFB",
"@	c #BEFBC30BBEFB",
"#	c #C71BC71BC71B",
"$	c #C71BCB2BC71B",
"%	c #CF3CCF3CCF3C",
"&	c #D75CD75CD75C",
"*	c #D75CDB6CD75C",
"=	c #DF7DDF7DDF7D",
"-	c #DF7DE38DDF7D",
";	c #E79DE79DE79D",
":	c #E79DEBADE79D",
">	c #EFBEEFBEEFBE",
",	c #EFBEF3CEEFBE",
"<	c #F7DEF7DEF7DE",
"       n       ",
" .............X",
" .XXXXXXXXXXX.X",
" .X oO+@#$%& .X",
" .XoO+@#$%&* .X",
" .XO+@#$%&*= .X",
" .X+@#$%&*=- .X",
" .X@#$%&*=-; .X",
" .X#$%&*=-;: .X",
" .X$$%&*=-;> .X",
" .X%*=-;:>,, .X",
" .X&*=-;:>,< .X",
" .X          .X",
" .............X",
"XXXXXXXnXXXXXXX"};
