/* XPM */
static char *bottom-active.xpm[] = {
/* columns rows colors chars-per-pixel */
"6 4 4 1",
"  c opaque",
". c #838383",
"X c #cecece",
"o c #dfdfdf",
/* pixels */
"oooooo",
"XXXXXX",
"......",
"      "
};
