/* XPM */
static char * bottom_right_inactive_xpm[] = {
"4 5 7 1",
" 	c None",
".	c #DFDFDF",
"+	c #CECECE",
"@	c #838383",
"#	c #000000",
"$	c #EAEAEA",
"%	c #4E4E4E",
".+@#",
"$+@#",
"++@#",
"@@%#",
"### "};
