/* XPM */
static char * hide_inactive_xpm[] = {
"18 22 176 2",
"  	c None",
". 	c #23262A",
"+ 	c #0D0D0F",
"@ 	c #020202",
"# 	c #010102",
"$ 	c #0C0C0E",
"% 	c #212328",
"& 	c #0D0901",
"* 	c #6C4C07",
"= 	c #B47E0B",
"- 	c #D1930C",
"; 	c #C98E0B",
"> 	c #9F7009",
", 	c #563D04",
"' 	c #070500",
") 	c #1F2125",
"! 	c #16171A",
"~ 	c #422E04",
"{ 	c #E5A212",
"] 	c #FEB51A",
"^ 	c #FEB417",
"/ 	c #FAB010",
"( 	c #F1A90E",
"_ 	c #E5A20D",
": 	c #D99A0C",
"< 	c #B37F09",
"[ 	c #291D02",
"} 	c #111215",
"| 	c #412E04",
"1 	c #F8B016",
"2 	c #DEAB41",
"3 	c #CA9832",
"4 	c #FFC349",
"5 	c #CD9319",
"6 	c #F9AF10",
"7 	c #ECA60E",
"8 	c #DF9D0C",
"9 	c #D1940B",
"0 	c #BB8509",
"a 	c #251B02",
"b 	c #1D1F22",
"c 	c #0C0901",
"d 	c #E19E0E",
"e 	c #FFB925",
"f 	c #C99A3B",
"g 	c #FEE4B2",
"h 	c #D5B066",
"i 	c #FFDD99",
"j 	c #FDC755",
"k 	c #F0A90E",
"l 	c #E29F0D",
"m 	c #D4960B",
"n 	c #C68C09",
"o 	c #9D7007",
"p 	c #040300",
"q 	c #684906",
"r 	c #FFB927",
"s 	c #FEC75B",
"t 	c #D5B373",
"u 	c #FEE3AD",
"v 	c #FFDE9A",
"w 	c #FDCB5F",
"x 	c #E2A00D",
"y 	c #B88308",
"z 	c #3D2C02",
"A 	c #AC790A",
"B 	c #F5AC0F",
"C 	c #FEB519",
"D 	c #C08E28",
"E 	c #FFE0A3",
"F 	c #FFDF9F",
"G 	c #FDD98F",
"H 	c #E7B64E",
"I 	c #BF860B",
"J 	c #E09E0C",
"K 	c #D2950B",
"L 	c #C48B09",
"M 	c #B68207",
"N 	c #6F5004",
"O 	c #060708",
"P 	c #C78C0B",
"Q 	c #EEA70E",
"R 	c #F8AF0F",
"S 	c #FFC959",
"T 	c #E7BE68",
"U 	c #FDD888",
"V 	c #F8D486",
"W 	c #F3D186",
"X 	c #ECCC85",
"Y 	c #D29A1E",
"Z 	c #C08909",
"` 	c #B38007",
" .	c #845F04",
"..	c #000000",
"+.	c #BF870A",
"@.	c #E4A10D",
"#.	c #EDA70E",
"$.	c #F3AB0F",
"%.	c #F6AD0F",
"&.	c #CC8F0C",
"*.	c #F7D486",
"=.	c #EECE85",
"-.	c #E9CA85",
";.	c #D1A135",
">.	c #BB8508",
",.	c #AE7C06",
"'.	c #805B04",
").	c #976B08",
"!.	c #DA9A0C",
"~.	c #E19F0C",
"{.	c #E6A20D",
"].	c #E8A30D",
"^.	c #C0880A",
"/.	c #F1CF86",
"(.	c #D3A43D",
"_.	c #C8992F",
":.	c #E4C784",
"<.	c #CA9D35",
"[.	c #B48007",
"}.	c #A87806",
"|.	c #644803",
"1.	c #050606",
"2.	c #513904",
"3.	c #CE920A",
"4.	c #D8990B",
"5.	c #D9990C",
"6.	c #EACB85",
"7.	c #E7C984",
"8.	c #E4C684",
"9.	c #DFC384",
"0.	c #C39833",
"a.	c #AB7A06",
"b.	c #A07305",
"c.	c #312301",
"d.	c #1B1C20",
"e.	c #A97808",
"f.	c #C78D09",
"g.	c #CA8F0A",
"h.	c #CC900A",
"i.	c #CB900A",
"j.	c #CC971E",
"k.	c #CD9F35",
"l.	c #C89B34",
"m.	c #C29733",
"n.	c #B9902E",
"o.	c #A27405",
"p.	c #7D5A03",
"q.	c #020100",
"r.	c #271C02",
"s.	c #B17E07",
"t.	c #BC8608",
"u.	c #BE8708",
"v.	c #BD8608",
"w.	c #A97906",
"x.	c #A17405",
"y.	c #8F6604",
"z.	c #181101",
"A.	c #181A1D",
"B.	c #231901",
"C.	c #956A06",
"D.	c #AF7D07",
"E.	c #AD7B06",
"F.	c #A47505",
"G.	c #9E7105",
"H.	c #7C5903",
"I.	c #0D0E10",
"J.	c #4E4D4B",
"K.	c #3A2A02",
"L.	c #6A4C03",
"M.	c #7F5B04",
"N.	c #7C5904",
"O.	c #624603",
"P.	c #424140",
"Q.	c #121111",
"R.	c #0F0F0E",
"S.	c #494746",
"                                    ",
"                                    ",
"                                    ",
"                                    ",
"                                    ",
"            . + @ # $ %             ",
"        . & * = - ; > , ' )         ",
"      ! ~ { ] ^ / ( _ : < [ }       ",
"    . | 1 2 3 4 5 6 7 8 9 0 a b     ",
"    c d e f g h i j k l m n o p     ",
"  . q 6 r s t u v w k x m n y z b   ",
"  + A B C D E F G H I J K L M N O   ",
"  @ P Q R ^ S T U V W X Y Z `  ...  ",
"  # +.@.#.$.%.&.*.W =.-.;.>.,.'...  ",
"  $ ).!.~.{.].^./.(._.:.<.[.}.|.1.  ",
"  % 2.3.m 4.!.5.6.7.8.9.0.a.b.c.d.  ",
"    ' e.f.g.h.i.j.k.l.m.n.o.p.q.    ",
"    ) r.s.t.u.v.>.M s.w.x.y.z.A.    ",
"      } B.C.D.D.E.w.F.G.H.z.I.      ",
"        J.p K.L.M.N.O.c.q.P.        ",
"            J.Q.....R.S.            ",
"                                    "};
