/* XPM */
static char * maximize_pressed_xpm[] = {
"18 22 127 2",
"  	c None",
". 	c #23262A",
"+ 	c #0D0D0F",
"@ 	c #020202",
"# 	c #010102",
"$ 	c #0C0C0E",
"% 	c #212328",
"& 	c #1E2024",
"* 	c #0D0901",
"= 	c #A15300",
"- 	c #E47000",
"; 	c #FE8300",
"> 	c #F78000",
", 	c #CF6B00",
"' 	c #8C4800",
") 	c #070500",
"! 	c #1A1C20",
"~ 	c #16171A",
"{ 	c #422E04",
"] 	c #FF8F16",
"^ 	c #FF9733",
"/ 	c #FF9631",
"( 	c #FF9627",
"_ 	c #FF911C",
": 	c #F49610",
"< 	c #FF8706",
"[ 	c #E17400",
"} 	c #291D02",
"| 	c #111215",
"1 	c #412E04",
"2 	c #FF932B",
"3 	c #FFA248",
"4 	c #FFA854",
"5 	c #FFA650",
"6 	c #FF9A39",
"7 	c #FF9525",
"8 	c #F79914",
"9 	c #FF890A",
"0 	c #E97900",
"a 	c #251B02",
"b 	c #181A1E",
"c 	c #0C0901",
"d 	c #FF8B0E",
"e 	c #FF9D3F",
"f 	c #F78F22",
"g 	c #EE882D",
"h 	c #FB841A",
"i 	c #F97B00",
"j 	c #E77200",
"k 	c #D76F00",
"l 	c #FF8400",
"m 	c #F17D00",
"n 	c #CE6A00",
"o 	c #040300",
"p 	c #9E5100",
"q 	c #FF9E40",
"r 	c #FF830A",
"s 	c #FFFFFF",
"t 	c #E67700",
"u 	c #3D2C02",
"v 	c #DC7100",
"w 	c #FF9423",
"x 	c #FE7D00",
"y 	c #FFAF5B",
"z 	c #EF7C00",
"A 	c #8C5402",
"B 	c #060708",
"C 	c #F67F00",
"D 	c #FF911A",
"E 	c #E97300",
"F 	c #FFBC7B",
"G 	c #FFBF7B",
"H 	c #FFB86C",
"I 	c #F1932E",
"J 	c #FFAD57",
"K 	c #EC7A00",
"L 	c #DF7300",
"M 	c #B46100",
"N 	c #000000",
"O 	c #FF8C10",
"P 	c #FF9018",
"Q 	c #D66E00",
"R 	c #FFC78A",
"S 	c #FF8E14",
"T 	c #FFB05C",
"U 	c #E77800",
"V 	c #AF5B00",
"W 	c #0A0B0C",
"X 	c #C76700",
"Y 	c #FF8808",
"Z 	c #FF8A0C",
"` 	c #C96800",
" .	c #E89B48",
"..	c #D97000",
"+.	c #D16C00",
"@.	c #FFA94C",
"#.	c #965100",
"$.	c #040505",
"%.	c #513904",
"&.	c #F98100",
"*.	c #FF8604",
"=.	c #FFA647",
"-.	c #CE6F00",
";.	c #312301",
">.	c #1B1C20",
",.	c #F47E00",
"'.	c #FFA84B",
").	c #F0B462",
"!.	c #FFAB50",
"~.	c #FD9E38",
"{.	c #AE5E00",
"].	c #271C02",
"^.	c #DE7200",
"/.	c #B76301",
"(.	c #181101",
"_.	c #231901",
":.	c #C46500",
"<.	c #CC6E00",
"[.	c #AC5D00",
"}.	c #4E4D4B",
"|.	c #3A2A02",
"1.	c #9C5400",
"2.	c #AF5F00",
"3.	c #944C00",
"4.	c #020100",
"5.	c #121111",
"6.	c #0F0F0E",
"                                    ",
"                                    ",
"                                    ",
"                                    ",
"                                    ",
"            . + @ # $ %             ",
"        & * = - ; > , ' ) !         ",
"      ~ { ] ^ / ( _ : < [ } |       ",
"    & 1 2 3 4 5 6 7 8 9 ; 0 a b     ",
"    c d e f g h i j k d l m n o     ",
"  & p 7 q r s s s s s s l m t u b   ",
"  + v w ^ x s s s s s s y z [ A B   ",
"  # C D 7 E s F G H I s J K L M N   ",
"  # K O P Q s R _ S k s T U v V N   ",
"  W X Y Z ` s  .....+.s @.L Q #.$.  ",
"  % %.&.l *.s s s s s s =.k -.;.>.  ",
"    ) k ,.> > '.).!.@.=.~.-.{.)     ",
"      ].^.0 0 0 U [ ^.Q -./.(.      ",
"        _.:.v v ..Q , <.[.(.        ",
"        }.o |.1.2.{.3.;.4.          ",
"              5.N N 6.              ",
"                                    "};
