/* XPM */
static char * top_right_inactive_xpm[] = {
"8 22 9 1",
" 	c None",
".	c #000000",
"+	c #DFDFDF",
"@	c #ACACAC",
"#	c #CECECE",
"$	c #838383",
"%	c #ABABAB",
"&	c #494E58",
"*	c #555B66",
"....... ",
"++++++@.",
"######$.",
"$$$$%#$.",
"&&&&+#$.",
"****+#$.",
"&&&&+#$.",
"****+#$.",
"&&&&+#$.",
"****+#$.",
"&&&&+#$.",
"****+#$.",
"&&&&+#$.",
"****+#$.",
"&&&&+#$.",
"****+#$.",
"&&&&+#$.",
"****+#$.",
"&&&&+#$.",
"****+#$.",
"&&&&+#$.",
"****+#$."};
