/* XPM */
static char *hide-inactive[] = {
/* width height num_colors chars_per_pixel */
"    16    19      256            2",
/* colors */
"`` c #4a4d4a",
"`. c #2e2d2e",
"`# c #d7d3cf",
"`a c #d2cec8",
"`b c #a7a49f",
"`c c #6c6a63",
"`d c #74726d",
"`e c #d0ccc6",
"`f c #c7c3ba",
"`g c #c8c4bb",
"`h c #d1cdc7",
"`i c #ccc8c1",
"`j c #76746d",
"`k c #b0ae93",
"`l c #605f52",
"`m c #c4c0b7",
"`n c #9a9782",
"`o c #7c7a5c",
"`p c #787657",
"`q c #7f7d5f",
"`r c #9f9c89",
"`s c #c7c3bb",
"`t c #c6c3ba",
"`u c #737166",
"`v c #b2b095",
"`w c #585746",
"`x c #7e7c5f",
"`y c #797757",
"`z c #7a7858",
"`A c #7b7958",
"`B c #7c7a59",
"`C c #868466",
"`D c #bdbaaf",
"`E c #c1beb2",
"`F c #747364",
"`G c #4e4d3a",
"`H c #7d7b5a",
"`I c #7e7c5b",
"`J c #8b896c",
"`K c #c0bdb0",
"`L c #bbb8aa",
"`M c #757363",
"`N c #b3b195",
"`O c #4f4e3c",
"`P c #7f7d5c",
"`Q c #817e5d",
"`R c #817f5d",
"`S c #5f5d44",
"`T c #53523c",
"`U c #4d4c38",
"`V c #7b796c",
"`W c #b6b3a3",
"`X c #787765",
"`Y c #b3b297",
"`Z c #61604a",
"`0 c #6e6d50",
"`1 c #797758",
"`2 c #626047",
"`3 c #54523d",
"`4 c #5c5b48",
"`5 c #747361",
"`6 c #9e9d87",
"`7 c #b5b39b",
"`8 c #b2b195",
".` c #79785d",
".. c #6a695f",
".# c #b0ad9c",
".a c #777563",
".b c #b4b398",
".c c #999778",
".d c #5a5947",
".e c #737260",
".f c #9b9983",
".g c #b9b7a0",
".h c #bcbba3",
".i c #b6b59b",
".j c #adab8e",
".k c #a5a383",
".l c #a09e7c",
".m c #9a9874",
".n c #504e3f",
".o c #aaa894",
".p c #6c6b5a",
".q c #a2a07f",
".r c #a4a282",
".s c #adac8e",
".t c #acaa8c",
".u c #a6a484",
".v c #a19f7d",
".w c #9e9c79",
".x c #9c9a77",
".y c #9b9976",
".z c #9b9975",
".A c #989671",
".B c #535140",
".C c #a5a28d",
".D c #595849",
".E c #a4a283",
".F c #a09e7b",
".G c #9f9d7a",
".H c #9c9a76",
".I c #989672",
".J c #908d69",
".K c #706f52",
".L c #5e5c44",
".M c #898766",
".N c #96946e",
".O c #4d4b3b",
".P c #9f9c85",
".Q c #8b8975",
".R c #494738",
".S c #92906d",
".T c #9a9773",
".U c #979470",
".V c #868462",
".W c #595740",
".X c #434231",
".Y c #4a4835",
".Z c #67654a",
".0 c #575643",
".1 c #4c4a3b",
".2 c #9a977e",
".3 c #8b8872",
".4 c #464534",
".5 c #464533",
".6 c #464432",
".7 c #4f4e39",
".8 c #908d68",
"#` c #928f69",
"#. c #8f8d68",
"## c #8d8b66",
"#a c #62614d",
"#b c #9d9b7a",
"#c c #4b4a3c",
"#d c #949276",
"#e c #908e71",
"#f c #858360",
"#g c #878562",
"#h c #8a8763",
"#i c #8c8a65",
"#j c #8e8c67",
"#k c #8c8a67",
"#l c #656451",
"#m c #949272",
"#n c #504f3f",
"#o c #8e8c6f",
"#p c #8c8a6d",
"#q c #888665",
"#r c #888663",
"#s c #8b8864",
"#t c #8c8a69",
"#u c #5e5d49",
"#v c #727054",
"#w c #898767",
"#x c #888666",
"#y c #858364",
"#z c #434232",
"#A c #403f2f",
"#B c #7d7b5e",
"#C c #838160",
"#D c #000000",
"#E c #000000",
"#F c #000000",
"#G c #000000",
"#H c #000000",
"#I c #000000",
"#J c #000000",
"#K c #000000",
"#L c #000000",
"#M c #000000",
"#N c #000000",
"#O c #000000",
"#P c #000000",
"#Q c #000000",
"#R c #000000",
"#S c #000000",
"#T c #000000",
"#U c #000000",
"#V c #000000",
"#W c #000000",
"#X c #000000",
"#Y c #000000",
"#Z c #000000",
"#0 c #000000",
"#1 c #000000",
"#2 c #000000",
"#3 c #000000",
"#4 c #000000",
"#5 c #000000",
"#6 c #000000",
"#7 c #000000",
"#8 c #000000",
"a` c #000000",
"a. c #000000",
"a# c #000000",
"aa c #000000",
"ab c #000000",
"ac c #000000",
"ad c #000000",
"ae c #000000",
"af c #000000",
"ag c #000000",
"ah c #000000",
"ai c #000000",
"aj c #000000",
"ak c #000000",
"al c #000000",
"am c #000000",
"an c #000000",
"ao c #000000",
"ap c #000000",
"aq c #000000",
"ar c #000000",
"as c #000000",
"at c #000000",
"au c #000000",
"av c #000000",
"aw c #000000",
"ax c #000000",
"ay c #000000",
"az c #000000",
"aA c #000000",
"aB c #000000",
"aC c #000000",
"aD c #000000",
"aE c #000000",
"aF c #000000",
"aG c #000000",
"aH c #000000",
"aI c #000000",
"aJ c #000000",
"aK c #000000",
"aL c #000000",
"aM c #000000",
"aN c #000000",
"aO c #000000",
"aP c #000000",
"aQ c #000000",
"aR c #000000",
"aS c #000000",
"aT c #000000",
"aU c #000000",
"aV c #000000",
"aW c #000000",
"aX c #000000",
"aY c #000000",
"aZ c #000000",
"a0 c #000000",
"a1 c #000000",
"a2 c #000000",
"a3 c #000000",
"a4 c #000000",
"a5 c #000000",
"a6 c #000000",
"a7 c #000000",
"a8 c #000000",
/* pixels */
"````````````````````````````````",
"`.`.`.`.`.`.`.`.`.`.`.`.`.`.`.`.",
"`#`#`#`#`#`#`#`#`#`#`#`#`#`#`#`#",
"`a`b`c`d`a`a`e`f`g`h`a`a`a`a`a`a",
"`i`j`k`l`m`n`o`p`p`q`r`s`i`i`i`i",
"`t`u`v`w`x`y`z`A`B`B`B`C`D`t`t`t",
"`E`F`v`G`z`B`H`I`I`I`I`I`J`K`E`E",
"`L`M`N`O`B`I`P`Q`R`z`S`T`U`V`L`L",
"`W`X`Y`Z`0`1`2`3`4`5`6`7`8.`..`W",
".#.a.b.c.d.e.f.g.h.i.j.k.l.m.n.#",
".o.p`8.q.r.s.t.u.v.w.x.y.z.A.B.o",
".C.D.E.F.F.G.w.H.I.J.K.L.M.N.O.C",
".P.Q.R.S.T.U.V.W.X.Y.Z`z.0.m.1.P",
".2.2.3.4.5.6.7`1.8#`#.###a#b#c.2",
"#d#d#d#e#f#g#h#i#j#.#j#k#l#m#n#d",
"#o#o#o#o#p#q#r#s#i###t`J#u#v#a#o",
"#w#w#w#w#w#w#x.M.M.M#w#y#z#A#B#w",
"#C#C#C#C#C#C#C#C#C#C#C#C#C#C#C#C",
"`.`.`.`.`.`.`.`.`.`.`.`.`.`.`.`."
};
