/* XPM */
static char * hide_active_xpm[] = {
"11 15 43 1",
" 	c None",
".	c #020202",
"+	c #2E2E2E",
"@	c #6E6E6E",
"#	c #969696",
"$	c #B2B2B2",
"%	c #C6C6C6",
"&	c #D2D2D2",
"*	c #666666",
"=	c #DADADA",
"-	c #E2E2E2",
";	c #262626",
">	c #525252",
",	c #E6E6E6",
"'	c #8E8E8E",
")	c #A6A6A6",
"!	c #F2F2F2",
"~	c #767676",
"{	c #3E3E3E",
"]	c #BEBEBE",
"^	c #161616",
"/	c #9E9E9E",
"(	c #868686",
"_	c #EAEAEA",
":	c #7E7E7E",
"<	c #BABABA",
"[	c #CACACA",
"}	c #EEEEEE",
"|	c #F6F6F6",
"1	c #DEDEDE",
"2	c #AEAEAE",
"3	c #D6D6D6",
"4	c #7A7A7A",
"5	c #C2C2C2",
"6	c #A2A2A2",
"7	c #9A9A9A",
"8	c #B6B6B6",
"9	c #323232",
"0	c #CECECE",
"a	c #6A6A6A",
"b	c #424242",
"c	c #565656",
"d	c #929292",
"__,-111-,__",
"}_=[<8<[=_!",
"!-%4;.;4%-!",
"|[.:3|3:.[|",
"!.8|!!!}$.!",
"/4!}...,,@/",
"95__@.d}=69",
".[,-]^81&#.",
"+#]=3a-&7*+",
"#>7)]0%'~{#",
",.@(:~~~c.,",
"1&.b*~*{.&1",
"[1_#+.+#_1[",
"$]&_}!}_&]$",
"/62<5%5<26/"};
