/* XPM */
static char * hide_pressed_xpm[] = {
"11 15 49 1",
" 	c None",
".	c #020202",
"+	c #484E71",
"@	c #7A8AA6",
"#	c #98A8D2",
"$	c #BEBEBE",
"%	c #0A0A0E",
"&	c #CACACA",
"*	c #D2D2D2",
"=	c #5E668C",
"-	c #262626",
";	c #DEDEDE",
">	c #32364E",
",	c #828AB6",
"'	c #E2E2E2",
")	c #7A7A7A",
"!	c #AEAEAE",
"~	c #F2F2F2",
"{	c #8898C4",
"]	c #4A5276",
"^	c #7682A6",
"/	c #8A9ABA",
"(	c #9EAED6",
"_	c #3A3E5B",
":	c #2E3249",
"<	c #626A96",
"[	c #E6E6E6",
"}	c #4E5672",
"|	c #222232",
"1	c #969696",
"2	c #586087",
"3	c #9F9F9F",
"4	c #B2B2B2",
"5	c #3E4262",
"6	c #2F2F2F",
"7	c #666E9A",
"8	c #EAEAEA",
"9	c #B9B9B9",
"0	c #DADADA",
"a	c #90A0C2",
"b	c #C4C4C4",
"c	c #565E72",
"d	c #7C89B5",
"e	c #6A739F",
"f	c #424665",
"g	c #EEEEEE",
"h	c #A6B6DE",
"i	c #F6F6F6",
"j	c #7682B2",
"88[';;;'[88",
"g80&999&08~",
"~'b)-.-)b'~",
"i&.:>_+f.&i",
"~.:___5+2.~",
"3:55...}<f3",
"65ff|.f^=d6",
".]++f%=e7#.",
"62222>,ed/6",
"1}eeeedj#c1",
"[.^{dd/(@.[",
";*.cahac.*;",
"&;816.618;&",
"4$*8g~g8*$4",
"33!9bbb9!33"};
