/* XPM */
static char * maximize_active_xpm[] = {
"11 15 39 1",
" 	c None",
".	c #020202",
"+	c #262626",
"@	c #666666",
"#	c #9A9A9A",
"$	c #B2B2B2",
"%	c #C2C2C2",
"&	c #CACACA",
"*	c #D2D2D2",
"=	c #767676",
"-	c #DEDEDE",
";	c #525252",
">	c #E6E6E6",
",	c #7A7A7A",
"'	c #868686",
")	c #F2F2F2",
"!	c #3E3E3E",
"~	c #AEAEAE",
"{	c #8A8A8A",
"]	c #B6B6B6",
"^	c #A2A2A2",
"/	c #EAEAEA",
"(	c #2E2E2E",
"_	c #DADADA",
":	c #929292",
"<	c #626262",
"[	c #BABABA",
"}	c #6E6E6E",
"|	c #EEEEEE",
"1	c #E2E2E2",
"2	c #F6F6F6",
"3	c #9E9E9E",
"4	c #BEBEBE",
"5	c #969696",
"6	c #C6C6C6",
"7	c #323232",
"8	c #6A6A6A",
"9	c #A6A6A6",
"0	c #424242",
"//>1---1>//",
"|/_&[][&_/)",
")16,+.+,61)",
"2&.:_2_:.&)",
").]2)))|$.)",
"3,)5...^>}3",
"7%/.....1^7",
".&>.||/.>5.",
"(54.4*9.[@(",
"5;#8...8#!5",
">.}'{###<.>",
"-*.0@=@!.*-",
"&-/5(.(5/-&",
"$4*/|)|/*4$",
"3^~[%6%[~^3"};
