/* XPM */
static char * title_3_inactive_xpm[] = {
"10 19 24 1",
" 	c None",
".	c #000000",
"+	c #E5E5E5",
"@	c #BBBBBB",
"#	c #818181",
"$	c #808080",
"%	c #9C9C9C",
"&	c #8E8E8E",
"*	c #8D8D8D",
"=	c #7A7A7A",
"-	c #717171",
";	c #686868",
">	c #696969",
",	c #636363",
"'	c #5F5F5F",
")	c #606060",
"!	c #575757",
"~	c #585858",
"{	c #4A4A4A",
"]	c #4B4B4B",
"^	c #404040",
"/	c #3F3F3F",
"(	c #B8B8B8",
"_	c #919191",
"..........",
"++++++++++",
"@@@@@@@@@@",
"..........",
"#$########",
"%%%%%%%%%%",
"&&********",
"==========",
"----------",
";;;>>>>>>>",
",,,,,,,,,,",
"')))))))))",
"!!~~~~~~~~",
"{{]]]]]]]]",
"^/^^^^^^^^",
"..........",
"((((((((((",
"__________",
".........."};
