/* XPM */
static char * title_2_inactive_xpm[] = {
"10 19 49 1",
" 	c None",
".	c #020202",
"+	c #545454",
"@	c #8A8A8A",
"#	c #AEAEAE",
"$	c #BABABA",
"%	c #3A3A3A",
"&	c #C6C6C6",
"*	c #D6D6D6",
"=	c #2A2A2A",
"-	c #E6E6E6",
";	c #727272",
">	c #242424",
",	c #EAEAEA",
"'	c #1E1E1E",
")	c #EEEEEE",
"!	c #5A5A5A",
"~	c #9F9F9F",
"{	c #141414",
"]	c #666666",
"^	c #F2F2F2",
"/	c #3E3E3E",
"(	c #868686",
"_	c #F6F6F6",
":	c #424242",
"<	c #0E0E0E",
"[	c #DADADA",
"}	c #929292",
"|	c #D2D2D2",
"1	c #464646",
"2	c #FAFAFA",
"3	c #626262",
"4	c #AAAAAA",
"5	c #333333",
"6	c #6E6E6E",
"7	c #7A7A7A",
"8	c #4A4A4A",
"9	c #B6B6B6",
"0	c #0A0A0A",
"a	c #CBCBCB",
"b	c #E2E2E2",
"c	c #FEFEFE",
"d	c #6A6A6A",
"e	c #969696",
"f	c #BEBEBE",
"g	c #5E5E5E",
"h	c #B2B2B2",
"i	c #4E4E4E",
"j	c #767676",
"..........",
"----------",
",,,,-[&ff$",
"^^^)*&hd'.",
"22_-|({53;",
"cc_,e>i6@~",
"cc2b<1](@@",
"ccc@=!];77",
"ccc=%!]6;;",
"cc2./+g]dd",
"^^,>5i!333",
"bb|;>8+!gg",
"**a#<58i++",
"aa&$j{5:18",
"$$$$$j0>%/",
"####h$4]'.",
"~~~~~~#9$$",
"}}}}}}}}}}",
".........."};
