/* XPM */
static char * top_left_active_xpm[] = {
"5 19 32 1",
" 	c None",
".	c #000000",
"+	c #E0E0E0",
"@	c #E4E4E4",
"#	c #E5E5E5",
"$	c #E2E2E2",
"%	c #E7E7E7",
"&	c #EAEAEA",
"*	c #EDEDED",
"=	c #F1F1F1",
"-	c #EEEEEE",
";	c #F3F3F3",
">	c #F8F8F8",
",	c #FCFCFC",
"'	c #F5F5F5",
")	c #FAFAFA",
"!	c #FDFDFD",
"~	c #F4F4F4",
"{	c #FEFEFE",
"]	c #F9F9F9",
"^	c #EBEBEB",
"/	c #F2F2F2",
"(	c #DFDFDF",
"_	c #F0F0F0",
":	c #D9D9D9",
"<	c #D5D5D5",
"[	c #D7D7D7",
"}	c #C8C8C8",
"|	c #BABABA",
"1	c #ADADAD",
"2	c #9F9F9F",
"3	c #919191",
".....",
".+@##",
".$%&&",
".%*==",
".-;>>",
".;>,,",
".')!!",
".~){{",
".~]{{",
".~~,,",
".;^//",
".=($$",
"._:<<",
"._[}}",
"._[||",
"._[11",
"._[22",
"._[33",
"._[3."};
