/* XPM */
static char *close-inactive[] = {
/* width height num_colors chars_per_pixel */
"    16    19      256            2",
/* colors */
"`` c #4a4d4a",
"`. c #2e2d2e",
"`# c #d7d3cf",
"`a c #d2cec8",
"`b c #aaa7a1",
"`c c #4d4c40",
"`d c #817e79",
"`e c #d0ccc6",
"`f c #c7c3ba",
"`g c #c8c4bb",
"`h c #d1cdc7",
"`i c #b1ada8",
"`j c #514f47",
"`k c #aaa6a1",
"`l c #ccc8c1",
"`m c #a5a29c",
"`n c #666556",
"`o c #bab9a1",
"`p c #77755f",
"`q c #5b5a45",
"`r c #787657",
"`s c #757359",
"`t c #656456",
"`u c #b3b298",
"`v c #555344",
"`w c #a4a19b",
"`x c #c6c3ba",
"`y c #a09e96",
"`z c #656454",
"`A c #c2c1ab",
"`B c #b3b297",
"`C c #a7a586",
"`D c #5a5946",
"`E c #656449",
"`F c #787656",
"`G c #535240",
"`H c #bdbca6",
"`I c #a19f7e",
"`J c #4d4c3d",
"`K c #9f9c95",
"`L c #c1beb2",
"`M c #4f4e44",
"`N c #b2b095",
"`O c #a7a687",
"`P c #a6a485",
"`Q c #a4a281",
"`R c #4a4938",
"`S c #4b4a39",
"`T c #b5b39e",
"`U c #b7b69c",
"`V c #a3a181",
"`W c #999773",
"`X c #36362a",
"`Y c #bbb8aa",
"`Z c #98958a",
"`0 c #5c5a4a",
"`1 c #a6a484",
"`2 c #a6a483",
"`3 c #a5a382",
"`4 c #9f9d7d",
"`5 c #a8a790",
"`6 c #bbbaa1",
"`7 c #a19f7d",
"`8 c #9d9b78",
".` c #6b694e",
".. c #716f66",
".# c #b6b3a3",
".a c #6c6a54",
".b c #585744",
".c c #a3a180",
".d c #a2a07f",
".e c #a8a687",
".f c #a09e7c",
".g c #9c9a77",
".h c #6c6b4f",
".i c #555345",
".j c #b0ad9c",
".k c #7e7c5c",
".l c #5f5e45",
".m c #5b5a46",
".n c #a29f7e",
".o c #a19e7c",
".p c #a09e7b",
".q c #9f9d7a",
".r c #9c9a76",
".s c #6d6b4f",
".t c #4c4a36",
".u c #8a8768",
".v c #aaa894",
".w c #7f7d5c",
".x c #51503a",
".y c #807e65",
".z c #9e9c79",
".A c #8c8a68",
".B c #3b3a2b",
".C c #868461",
".D c #8a8867",
".E c #a5a28d",
".F c #858364",
".G c #767455",
".H c #605f4e",
".I c #bdbba4",
".J c #9a9873",
".K c #53523d",
".L c #706e51",
".M c #8f8d6e",
".N c #9f9c85",
".O c #8b886e",
".P c #555442",
".Q c #bebda7",
".R c #b2b195",
".S c #9b9975",
".T c #9a9874",
".U c #9b9874",
".V c #979570",
".W c #474634",
".X c #8a876e",
".Y c #9a977e",
".Z c #99967d",
".0 c #535243",
".1 c #b3b29b",
".2 c #b7b59b",
".3 c #9e9b79",
".4 c #989672",
".5 c #747254",
".6 c #626048",
".7 c #989671",
".8 c #8e8c67",
"#` c #403e31",
"#. c #95927a",
"## c #949276",
"#a c #8e8c71",
"#b c #474638",
"#c c #a9a789",
"#d c #989570",
"#e c #737153",
"#f c #454432",
"#g c #5e5d44",
"#h c #646248",
"#i c #96936e",
"#j c #95936d",
"#k c #898763",
"#l c #373527",
"#m c #86846b",
"#n c #8e8c6f",
"#o c #727059",
"#p c #403f30",
"#q c #92906b",
"#r c #444330",
"#s c #8a8863",
"#t c #8c8a65",
"#u c #5a5941",
"#v c #636147",
"#w c #878561",
"#x c #383729",
"#y c #898767",
"#z c #6e6c52",
"#A c #343325",
"#B c #454433",
"#C c #888666",
"#D c #898766",
"#E c #565540",
"#F c #2b2b20",
"#G c #838160",
"#H c #2d2c2d",
"#I c #000000",
"#J c #000000",
"#K c #000000",
"#L c #000000",
"#M c #000000",
"#N c #000000",
"#O c #000000",
"#P c #000000",
"#Q c #000000",
"#R c #000000",
"#S c #000000",
"#T c #000000",
"#U c #000000",
"#V c #000000",
"#W c #000000",
"#X c #000000",
"#Y c #000000",
"#Z c #000000",
"#0 c #000000",
"#1 c #000000",
"#2 c #000000",
"#3 c #000000",
"#4 c #000000",
"#5 c #000000",
"#6 c #000000",
"#7 c #000000",
"#8 c #000000",
"a` c #000000",
"a. c #000000",
"a# c #000000",
"aa c #000000",
"ab c #000000",
"ac c #000000",
"ad c #000000",
"ae c #000000",
"af c #000000",
"ag c #000000",
"ah c #000000",
"ai c #000000",
"aj c #000000",
"ak c #000000",
"al c #000000",
"am c #000000",
"an c #000000",
"ao c #000000",
"ap c #000000",
"aq c #000000",
"ar c #000000",
"as c #000000",
"at c #000000",
"au c #000000",
"av c #000000",
"aw c #000000",
"ax c #000000",
"ay c #000000",
"az c #000000",
"aA c #000000",
"aB c #000000",
"aC c #000000",
"aD c #000000",
"aE c #000000",
"aF c #000000",
"aG c #000000",
"aH c #000000",
"aI c #000000",
"aJ c #000000",
"aK c #000000",
"aL c #000000",
"aM c #000000",
"aN c #000000",
"aO c #000000",
"aP c #000000",
"aQ c #000000",
"aR c #000000",
"aS c #000000",
"aT c #000000",
"aU c #000000",
"aV c #000000",
"aW c #000000",
"aX c #000000",
"aY c #000000",
"aZ c #000000",
"a0 c #000000",
"a1 c #000000",
"a2 c #000000",
"a3 c #000000",
"a4 c #000000",
"a5 c #000000",
"a6 c #000000",
"a7 c #000000",
"a8 c #000000",
/* pixels */
"````````````````````````````````",
"`.`.`.`.`.`.`.`.`.`.`.`.`.`.`.`.",
"`#`#`#`#`#`#`#`#`#`#`#`#`#`#`#`#",
"`a`a`a`b`c`d`e`f`g`h`i`j`k`a`a`a",
"`l`l`m`n`o`p`q`r`r`s`t`u`v`w`l`l",
"`x`y`z`A`B`C`D`E`F`G`H`B`I`J`K`x",
"`L`M`B`N`O`P`Q`R`S`T`U`V`I`W`X`L",
"`Y`Z`0`1`1`2`3`4`5`6`V`7`8.`..`Y",
".#.#.a.b.c`Q.c.d.e.c.f.g.h.i.#.#",
".j.j.k.l.m.n`I.o.p.q.r.s.t.u.j.j",
".v.v.w.w.x.y`7.q.z`8.A.B.C.D.v.v",
".E.E.F.G.H.I`3`8.g.g.J.K.L.M.E.E",
".N.N.O.P.Q.R`8.S.T.U.J.V.W.X.N.N",
".Y.Z.0.1.2.3.4.5.6.7.7.V.8#`#..Y",
"###a#b#c.z#d#e#f#g#h#i#j#k#l#m##",
"#n#n#o#p#q#e#r#s#t#u#v#w#x#o#n#n",
"#y#y#y#z#A#B#C#D#D#D#E#F#z#y#y#y",
"#G#G#G#G#G#G#G#G#G#G#G#G#G#G#G#G",
"`.`.`.`.`.`.`.`.`.`.`.`.`.`.`.#H"
};
