/* XPM */
static char * shade_active_xpm[] = {
"16 19 160 2",
"  	c None",
". 	c #4A4A4D",
"+ 	c #303031",
"@ 	c #F6F1ED",
"# 	c #F0ECE5",
"$ 	c #ECE9E1",
"% 	c #CAD4DF",
"& 	c #A9A7A1",
"* 	c #85846E",
"= 	c #8B887F",
"- 	c #E3DFD9",
"; 	c #E9E4DC",
"> 	c #C9D4DC",
", 	c #5A60A9",
"' 	c #0C0F87",
") 	c #03065D",
"! 	c #B7B84B",
"~ 	c #FEFF61",
"{ 	c #E8E53A",
"] 	c #686545",
"^ 	c #E2DED4",
"/ 	c #AFBBCE",
"( 	c #13178B",
"_ 	c #000185",
": 	c #000189",
"< 	c #173765",
"[ 	c #FFFD6C",
"} 	c #FEF447",
"| 	c #FBEF37",
"1 	c #837C1D",
"2 	c #B6C2CA",
"3 	c #DCD7CB",
"4 	c #D1CEC1",
"5 	c #2B4061",
"6 	c #2B7581",
"7 	c #1A566C",
"8 	c #000369",
"9 	c #0C1F5C",
"0 	c #F4E541",
"a 	c #FBE833",
"b 	c #F1DC30",
"c 	c #626114",
"d 	c #292F9C",
"e 	c #D9D6C8",
"f 	c #D6D1C3",
"g 	c #797862",
"h 	c #ECEA62",
"i 	c #FFF262",
"j 	c #FDE937",
"k 	c #7B7317",
"l 	c #000179",
"m 	c #0F4255",
"n 	c #95841B",
"o 	c #6B6314",
"p 	c #010564",
"q 	c #000297",
"r 	c #7F8CBC",
"s 	c #D0CBBA",
"t 	c #838142",
"u 	c #FFED6A",
"v 	c #FEDF35",
"w 	c #FDDC2D",
"x 	c #CAAF23",
"y 	c #00016A",
"z 	c #0002A3",
"A 	c #00018F",
"B 	c #00029C",
"C 	c #0002A2",
"D 	c #00029E",
"E 	c #3942A9",
"F 	c #C9C5B2",
"G 	c #1E475F",
"H 	c #FCD63D",
"I 	c #FDD428",
"J 	c #F7CE27",
"K 	c #9E8218",
"L 	c #000183",
"M 	c #0002AD",
"N 	c #0002A4",
"O 	c #0002A7",
"P 	c #0002A9",
"Q 	c #0002A5",
"R 	c #1D22A6",
"S 	c #C2C0A9",
"T 	c #080B77",
"U 	c #5D5810",
"V 	c #B59119",
"W 	c #947615",
"X 	c #031754",
"Y 	c #01038E",
"Z 	c #21506B",
"` 	c #9C883C",
" .	c #8D7329",
"..	c #082458",
"+.	c #1A20A9",
"@.	c #BCBAA1",
"#.	c #1E2599",
"$.	c #000191",
"%.	c #000177",
"&.	c #00018B",
"*.	c #0002A0",
"=.	c #757630",
"-.	c #FECF72",
";.	c #FFBE56",
">.	c #FFB930",
",.	c #EAA718",
"'.	c #03244D",
").	c #3039AE",
"!.	c #B6B398",
"~.	c #4F5FA4",
"{.	c #00029B",
"].	c #0002AB",
"^.	c #07096F",
"/.	c #EDBD64",
"(.	c #FEB251",
"_.	c #FEAE18",
":.	c #FEAD13",
"<.	c #FCA813",
"[.	c #8B5D09",
"}.	c #5F73A0",
"|.	c #B0AC90",
"1.	c #88A6AB",
"2.	c #0F149C",
"3.	c #0B0F67",
"4.	c #FEB35C",
"5.	c #FEA629",
"6.	c #FEA410",
"7.	c #FEA30F",
"8.	c #FCA00F",
"9.	c #9C6209",
"0.	c #928F77",
"a.	c #A9A587",
"b.	c #6C88A4",
"c.	c #090EA2",
"d.	c #010381",
"e.	c #C27D33",
"f.	c #FD9B1D",
"g.	c #FE9B0A",
"h.	c #FD9909",
"i.	c #F29008",
"j.	c #66400D",
"k.	c #A4A083",
"l.	c #A29F7F",
"m.	c #6F8EA0",
"n.	c #2D3AA4",
"o.	c #0207AB",
"p.	c #072453",
"q.	c #BF6F08",
"r.	c #F18806",
"s.	c #E78105",
"t.	c #834B04",
"u.	c #6B6952",
"v.	c #9C9976",
"w.	c #71959A",
"x.	c #62829C",
"y.	c #66654D",
"z.	c #564B31",
"A.	c #554E35",
"B.	c #7D7B5E",
"C.	c #96946E",
". . . . . . . . . . . . . . . . ",
"+ + + + + + + + + + + + + + + + ",
"@ @ @ @ @ @ @ @ @ @ @ @ @ @ @ @ ",
"# # # # # # $ % & * = - # # # # ",
"; ; ; ; > , ' ) ! ~ { ] ; ; ; ; ",
"^ ^ ^ / ( _ : < [ } | 1 2 ^ ^ ^ ",
"3 3 4 5 6 7 8 9 0 a b c d e 3 3 ",
"f f g h i j k l m n o p q r f f ",
"s s t u v w x y z A B C D E s s ",
"F F G H I J K L M N O P Q R F F ",
"S S T U V W X Y Z `  ...C +.S S ",
"@.@.#.$.%.&.*.=.-.;.>.,.'.).@.@.",
"!.!.~.{.z ].^./.(._.:.<.[.}.!.!.",
"|.|.1.2.z ].3.4.5.6.7.8.9.0.|.|.",
"a.a.a.b.c.P d.e.f.g.h.i.j.k.a.a.",
"l.l.l.l.m.n.o.p.q.r.s.t.u.l.l.l.",
"v.v.v.v.v.v.w.x.y.z.A.B.v.v.v.v.",
"C.C.C.C.C.C.C.C.C.C.C.C.C.C.C.C.",
"+ + + + + + + + + + + + + + + + "};
