/* XPM */
static char *shade-inactive[] = {
/* width height num_colors chars_per_pixel */
"    16    19      256            2",
/* colors */
"`` c #4a4d4a",
"`. c #2e2d2e",
"`# c #d7d3cf",
"`a c #d2cec8",
"`b c #d0ccc6",
"`c c #c7c3ba",
"`d c #96938e",
"`e c #737168",
"`f c #797771",
"`g c #c7c3bd",
"`h c #ccc8c1",
"`i c #c4c0b7",
"`j c #9a9782",
"`k c #7c7a5c",
"`l c #56543e",
"`m c #8b8a76",
"`n c #bcbba3",
"`o c #a09e82",
"`p c #53524a",
"`q c #c6c3ba",
"`r c #b8b5a8",
"`s c #7e7c5f",
"`t c #797757",
"`u c #7a7858",
"`v c #545340",
"`w c #c1bfa9",
"`x c #b1af93",
"`y c #a9a788",
"`z c #5a5945",
"`A c #b3b1a6",
"`B c #c1beb2",
"`C c #b9b6aa",
"`D c #555444",
"`E c #626150",
"`F c #545341",
"`G c #5b5a42",
"`H c #4e4d39",
"`I c #a9a78b",
"`J c #a7a586",
"`K c #a2a07e",
"`L c #4a4936",
"`M c #88866a",
"`N c #c0bdb0",
"`O c #bbb8aa",
"`P c #69675c",
"`Q c #b3b19b",
"`R c #bdbba4",
"`S c #aaa889",
"`T c #565542",
"`U c #646248",
"`V c #424132",
"`W c #65634c",
"`X c #4d4c38",
"`Y c #53523c",
"`Z c #7f7d5c",
"`0 c #a5a38e",
"`1 c #b6b3a3",
"`2 c #676657",
"`3 c #c0bea8",
"`4 c #a5a383",
"`5 c #868466",
"`6 c #83815f",
"`7 c #727052",
"`8 c #7d7b5a",
".` c #83815e",
".. c #82805d",
".# c #908e72",
".a c #b0ad9c",
".b c #525140",
".c c #aba98c",
".d c #a3a180",
".e c #a19f7d",
".f c #69674d",
".g c #67654a",
".h c #878562",
".i c #7f7e5d",
".j c #868461",
".k c #84825f",
".l c #8a8768",
".m c #aaa894",
".n c #69674c",
".o c #494837",
".p c #767458",
".q c #615f47",
".r c #424130",
".s c #6f6d50",
".t c #585745",
".u c #757462",
".v c #676653",
".w c #484735",
".x c #8a8867",
".y c #a5a28d",
".z c #858364",
".A c #7a7758",
".B c #615f46",
".C c #6e6d50",
".D c #656453",
".E c #c3c2ad",
".F c #b7b59c",
".G c #92906f",
".H c #3f3e2e",
".I c #8f8d6e",
".J c #9f9c85",
".K c #8f8d71",
".L c #817f5d",
".M c #595740",
".N c #b4b39d",
".O c #b5b49a",
".P c #9d9b78",
".Q c #9b9976",
".R c #9a9874",
".S c #56553f",
".T c #89866e",
".U c #9a977e",
".V c #98957c",
".W c #848160",
".X c #55533d",
".Y c #b9b79f",
".Z c #a4a282",
".0 c #9a9873",
".1 c #999772",
".2 c #989671",
".3 c #5f5d45",
".4 c #807d68",
".5 c #949276",
".6 c #908e71",
".7 c #858360",
".8 c #666449",
"#` c #88866e",
"#. c #9f9d7a",
"## c #979570",
"#a c #97956f",
"#b c #918e69",
"#c c #403f2f",
"#d c #8f8d72",
"#e c #8e8c6f",
"#f c #8c8a6d",
"#g c #888665",
"#h c #888562",
"#i c #484634",
"#j c #737154",
"#k c #8e8c67",
"#l c #888662",
"#m c #5d5c49",
"#n c #898767",
"#o c #888666",
"#p c #878565",
"#q c #5a5944",
"#r c #454433",
"#s c #464535",
"#t c #6e6c52",
"#u c #838160",
"#v c #000000",
"#w c #000000",
"#x c #000000",
"#y c #000000",
"#z c #000000",
"#A c #000000",
"#B c #000000",
"#C c #000000",
"#D c #000000",
"#E c #000000",
"#F c #000000",
"#G c #000000",
"#H c #000000",
"#I c #000000",
"#J c #000000",
"#K c #000000",
"#L c #000000",
"#M c #000000",
"#N c #000000",
"#O c #000000",
"#P c #000000",
"#Q c #000000",
"#R c #000000",
"#S c #000000",
"#T c #000000",
"#U c #000000",
"#V c #000000",
"#W c #000000",
"#X c #000000",
"#Y c #000000",
"#Z c #000000",
"#0 c #000000",
"#1 c #000000",
"#2 c #000000",
"#3 c #000000",
"#4 c #000000",
"#5 c #000000",
"#6 c #000000",
"#7 c #000000",
"#8 c #000000",
"a` c #000000",
"a. c #000000",
"a# c #000000",
"aa c #000000",
"ab c #000000",
"ac c #000000",
"ad c #000000",
"ae c #000000",
"af c #000000",
"ag c #000000",
"ah c #000000",
"ai c #000000",
"aj c #000000",
"ak c #000000",
"al c #000000",
"am c #000000",
"an c #000000",
"ao c #000000",
"ap c #000000",
"aq c #000000",
"ar c #000000",
"as c #000000",
"at c #000000",
"au c #000000",
"av c #000000",
"aw c #000000",
"ax c #000000",
"ay c #000000",
"az c #000000",
"aA c #000000",
"aB c #000000",
"aC c #000000",
"aD c #000000",
"aE c #000000",
"aF c #000000",
"aG c #000000",
"aH c #000000",
"aI c #000000",
"aJ c #000000",
"aK c #000000",
"aL c #000000",
"aM c #000000",
"aN c #000000",
"aO c #000000",
"aP c #000000",
"aQ c #000000",
"aR c #000000",
"aS c #000000",
"aT c #000000",
"aU c #000000",
"aV c #000000",
"aW c #000000",
"aX c #000000",
"aY c #000000",
"aZ c #000000",
"a0 c #000000",
"a1 c #000000",
"a2 c #000000",
"a3 c #000000",
"a4 c #000000",
"a5 c #000000",
"a6 c #000000",
"a7 c #000000",
"a8 c #000000",
/* pixels */
"````````````````````````````````",
"`.`.`.`.`.`.`.`.`.`.`.`.`.`.`.`.",
"`#`#`#`#`#`#`#`#`#`#`#`#`#`#`#`#",
"`a`a`a`a`a`a`b`c`d`e`f`g`a`a`a`a",
"`h`h`h`h`i`j`k`l`m`n`o`p`h`h`h`h",
"`q`q`q`r`s`t`u`v`w`x`y`z`A`q`q`q",
"`B`B`C`D`E`F`G`H`I`J`K`L`M`N`B`B",
"`O`O`P`Q`R`S`T`U`V`W`X`Y`Z`0`O`O",
"`1`1`2`3`y`4`5`l`6`7`8.`...#`1`1",
".a.a.b.c.d.e.f.g.h.i`6.j.k.l.a.a",
".m.m.n.o.p.q.r.s.t.u.v.w`Z.x.m.m",
".y.y.z.A.B.C`8.D.E.F`J.G.H.I.y.y",
".J.J.K.L.k.h.M.N.O.P.Q.R.S.T.J.J",
".U.U.V.W.k.h.X.Y.Z.0.1.2.3.4.U.U",
".5.5.5.6.7.h.8#`#.###a#b#c#d.5.5",
"#e#e#e#e#f#g#h#i#j#k#l`X#m#e#e#e",
"#n#n#n#n#n#n#o#p#q#r#s#t#n#n#n#n",
"#u#u#u#u#u#u#u#u#u#u#u#u#u#u#u#u",
"`.`.`.`.`.`.`.`.`.`.`.`.`.`.`.`."
};
