/* XPM */
static char * hide_active_xpm[] = {
"18 22 155 2",
"  	c None",
". 	c #23262A",
"+ 	c #0D0D0F",
"@ 	c #020202",
"# 	c #010102",
"$ 	c #0C0C0E",
"% 	c #212328",
"& 	c #1E2024",
"* 	c #0D0901",
"= 	c #6C4C07",
"- 	c #B47E0B",
"; 	c #D1930C",
"> 	c #C98E0B",
", 	c #9F7009",
"' 	c #563D04",
") 	c #070500",
"! 	c #1A1C20",
"~ 	c #16171A",
"{ 	c #422E04",
"] 	c #E5A212",
"^ 	c #FEB51A",
"/ 	c #FEB417",
"( 	c #FAB010",
"_ 	c #F1A90E",
": 	c #E5A20D",
"< 	c #D99A0C",
"[ 	c #B37F09",
"} 	c #291D02",
"| 	c #111215",
"1 	c #412E04",
"2 	c #F8B016",
"3 	c #BE9B52",
"4 	c #957025",
"5 	c #FFC859",
"6 	c #9C6F13",
"7 	c #F9AF10",
"8 	c #ECA60E",
"9 	c #DF9D0C",
"0 	c #D1940B",
"a 	c #BB8509",
"b 	c #251B02",
"c 	c #181A1E",
"d 	c #0C0901",
"e 	c #E19E0E",
"f 	c #FFB925",
"g 	c #94712B",
"h 	c #FFFFFF",
"i 	c #AC9A75",
"j 	c #FEDD98",
"k 	c #F0A90E",
"l 	c #E29F0D",
"m 	c #D4960B",
"n 	c #C68C09",
"o 	c #9D7007",
"p 	c #040300",
"q 	c #684906",
"r 	c #FFB927",
"s 	c #FECC6A",
"t 	c #AC9B7B",
"u 	c #FEE3AA",
"v 	c #E2A00D",
"w 	c #B88308",
"x 	c #3D2C02",
"y 	c #AC790A",
"z 	c #F5AC0F",
"A 	c #FEB519",
"B 	c #82601B",
"C 	c #FBFAF9",
"D 	c #D4BD8C",
"E 	c #926708",
"F 	c #E09E0C",
"G 	c #D2950B",
"H 	c #C48B09",
"I 	c #B68207",
"J 	c #6F5004",
"K 	c #060708",
"L 	c #C78C0B",
"M 	c #EEA70E",
"N 	c #F8AF0F",
"O 	c #FFDC93",
"P 	c #D0C7B5",
"Q 	c #D6A332",
"R 	c #C08909",
"S 	c #B38007",
"T 	c #845F04",
"U 	c #000000",
"V 	c #BF870A",
"W 	c #E4A10D",
"X 	c #EDA70E",
"Y 	c #F3AB0F",
"Z 	c #F6AD0F",
"` 	c #A4730A",
" .	c #DAB560",
"..	c #BB8508",
"+.	c #AE7C06",
"@.	c #805B04",
"#.	c #0A0B0C",
"$.	c #976B08",
"%.	c #DA9A0C",
"&.	c #E19F0C",
"*.	c #E6A20D",
"=.	c #E8A30D",
"-.	c #9A6D08",
";.	c #C9AD6E",
">.	c #BE9D52",
",.	c #D5B260",
"'.	c #B48007",
").	c #A87806",
"!.	c #644803",
"~.	c #040505",
"{.	c #513904",
"].	c #CE920A",
"^.	c #D8990B",
"/.	c #D9990C",
"(.	c #D0AE5F",
"_.	c #AB7A06",
":.	c #A07305",
"<.	c #312301",
"[.	c #1B1C20",
"}.	c #A97808",
"|.	c #C78D09",
"1.	c #CA8F0A",
"2.	c #CC900A",
"3.	c #CB900A",
"4.	c #D1A032",
"5.	c #D8B460",
"6.	c #D4B160",
"7.	c #CFAD5F",
"8.	c #C6A556",
"9.	c #A27405",
"0.	c #7D5A03",
"a.	c #271C02",
"b.	c #B17E07",
"c.	c #BC8608",
"d.	c #BE8708",
"e.	c #BD8608",
"f.	c #A97906",
"g.	c #A17405",
"h.	c #8F6604",
"i.	c #181101",
"j.	c #231901",
"k.	c #956A06",
"l.	c #AF7D07",
"m.	c #AD7B06",
"n.	c #A47505",
"o.	c #9E7105",
"p.	c #7C5903",
"q.	c #3A2A02",
"r.	c #6A4C03",
"s.	c #7F5B04",
"t.	c #7C5904",
"u.	c #624603",
"v.	c #020100",
"w.	c #121111",
"x.	c #0F0F0E",
"                                    ",
"                                    ",
"                                    ",
"                                    ",
"                                    ",
"            . + @ # $ %             ",
"        & * = - ; > , ' ) !         ",
"      ~ { ] ^ / ( _ : < [ } |       ",
"    & 1 2 3 4 5 6 7 8 9 0 a b c     ",
"    d e f g h i h j k l m n o p     ",
"  & q 7 r s t h h u k v m n w x c   ",
"  + y z A B h h C D E F G H I J K   ",
"  # L M N / O P h h h h Q R S T U   ",
"  # V W X Y Z ` h h h h  ...+.@.U   ",
"  #.$.%.&.*.=.-.h ;.>.h ,.'.).!.~.  ",
"  % {.].m ^.%./.h h h h (._.:.<.[.  ",
"    ) }.|.1.2.3.4.5.6.7.8.9.0.)     ",
"      a.b.c.d.e...I b.f.g.h.i.      ",
"        j.k.l.l.m.f.n.o.p.i.        ",
"          p q.r.s.t.u.<.v.          ",
"              w.U U x.              ",
"                                    "};
