/* XPM */
static char * maximize_active_xpm[] = {
"18 22 155 2",
"  	c None",
". 	c #23262A",
"+ 	c #0D0D0F",
"@ 	c #020202",
"# 	c #010102",
"$ 	c #0C0C0E",
"% 	c #212328",
"& 	c #1E2024",
"* 	c #0D0901",
"= 	c #6C4C07",
"- 	c #B47E0B",
"; 	c #D1930C",
"> 	c #C98E0B",
", 	c #9F7009",
"' 	c #563D04",
") 	c #070500",
"! 	c #1A1C20",
"~ 	c #16171A",
"{ 	c #422E04",
"] 	c #E5A212",
"^ 	c #FEB51A",
"/ 	c #FEB417",
"( 	c #FAB010",
"_ 	c #F1A90E",
": 	c #E5A20D",
"< 	c #D99A0C",
"[ 	c #B37F09",
"} 	c #291D02",
"| 	c #111215",
"1 	c #412E04",
"2 	c #F8B016",
"3 	c #FFBC31",
"4 	c #FFC040",
"5 	c #FFBE39",
"6 	c #FFB720",
"7 	c #F9AF10",
"8 	c #ECA60E",
"9 	c #DF9D0C",
"0 	c #D1940B",
"a 	c #BB8509",
"b 	c #251B02",
"c 	c #181A1E",
"d 	c #0C0901",
"e 	c #E19E0E",
"f 	c #FFB925",
"g 	c #C6983A",
"h 	c #B69049",
"i 	c #B78E3F",
"j 	c #B58524",
"k 	c #B57F0D",
"l 	c #A87609",
"m 	c #E29F0D",
"n 	c #D4960B",
"o 	c #C68C09",
"p 	c #9D7007",
"q 	c #040300",
"r 	c #684906",
"s 	c #FFB927",
"t 	c #B58B36",
"u 	c #FFFFFF",
"v 	c #B88308",
"w 	c #3D2C02",
"x 	c #AC790A",
"y 	c #F5AC0F",
"z 	c #FEB519",
"A 	c #B78726",
"B 	c #E2BA62",
"C 	c #C48B09",
"D 	c #B68207",
"E 	c #6F5004",
"F 	c #060708",
"G 	c #C78C0B",
"H 	c #EEA70E",
"I 	c #F8AF0F",
"J 	c #B68110",
"K 	c #FFD06C",
"L 	c #FCCF6D",
"M 	c #F6C864",
"N 	c #B9964A",
"O 	c #DFB861",
"P 	c #C08909",
"Q 	c #B38007",
"R 	c #845F04",
"S 	c #000000",
"T 	c #BF870A",
"U 	c #E4A10D",
"V 	c #EDA70E",
"W 	c #A4740A",
"X 	c #F9D381",
"Y 	c #F0A90E",
"Z 	c #E8A30D",
"` 	c #A77609",
" .	c #DDBA6A",
"..	c #BB8508",
"+.	c #AE7C06",
"@.	c #805B04",
"#.	c #0A0B0C",
"$.	c #976B08",
"%.	c #DA9A0C",
"&.	c #E19F0C",
"*.	c #996C08",
"=.	c #BA9E5F",
"-.	c #AA7809",
";.	c #A97709",
">.	c #A27208",
",.	c #D5B260",
"'.	c #B48007",
").	c #A87806",
"!.	c #644803",
"~.	c #040505",
"{.	c #513904",
"].	c #CE920A",
"^.	c #D8990B",
"/.	c #D0AE5F",
"(.	c #AB7A06",
"_.	c #A07305",
":.	c #312301",
"<.	c #1B1C20",
"[.	c #A97808",
"}.	c #C78D09",
"|.	c #CA8F0A",
"1.	c #CC900A",
"2.	c #DBB358",
"3.	c #DDB969",
"4.	c #D8B460",
"5.	c #D4B160",
"6.	c #CFAD5F",
"7.	c #C6A556",
"8.	c #A27405",
"9.	c #7D5A03",
"0.	c #271C02",
"a.	c #B17E07",
"b.	c #BC8608",
"c.	c #BE8708",
"d.	c #BD8608",
"e.	c #A97906",
"f.	c #A17405",
"g.	c #8F6604",
"h.	c #181101",
"i.	c #231901",
"j.	c #956A06",
"k.	c #AF7D07",
"l.	c #AD7B06",
"m.	c #A47505",
"n.	c #9E7105",
"o.	c #7C5903",
"p.	c #4E4D4B",
"q.	c #3A2A02",
"r.	c #6A4C03",
"s.	c #7F5B04",
"t.	c #7C5904",
"u.	c #624603",
"v.	c #020100",
"w.	c #121111",
"x.	c #0F0F0E",
"                                    ",
"                                    ",
"                                    ",
"                                    ",
"                                    ",
"            . + @ # $ %             ",
"        & * = - ; > , ' ) !         ",
"      ~ { ] ^ / ( _ : < [ } |       ",
"    & 1 2 3 4 5 6 7 8 9 0 a b c     ",
"    d e f g h i j k l m n o p q     ",
"  & r 7 s t u u u u u u n o v w c   ",
"  + x y z A u u u u u u B C D E F   ",
"  # G H I J u K L M N u O P Q R S   ",
"  # T U V W u X Y Z ` u  ...+.@.S   ",
"  #.$.%.&.*.u =.-.;.>.u ,.'.).!.~.  ",
"  % {.].n ^.u u u u u u /.(._.:.<.  ",
"    ) [.}.|.1.2.3.4.5.6.7.8.9.)     ",
"      0.a.b.c.d...D a.e.f.g.h.      ",
"        i.j.k.k.l.e.m.n.o.h.        ",
"        p.q q.r.s.t.u.:.v.          ",
"              w.S S x.              ",
"                                    "};
