/* XPM */
static char * bottom_right_inactive_xpm[] = {
"24 9 82 1",
" 	c None",
".	c #333333",
"+	c #D8D8D8",
"@	c #979797",
"#	c #000000",
"$	c #020202",
"%	c #D6CFC2",
"&	c #CDC3B3",
"*	c #CCC2B2",
"=	c #C9BFAE",
"-	c #C9BEAD",
";	c #C8BDAC",
">	c #C6BBA9",
",	c #C5BAA8",
"'	c #C4B9A6",
")	c #C3B7A4",
"!	c #C2B6A2",
"~	c #C0B4A0",
"{	c #C0B39E",
"]	c #BDB09B",
"^	c #BCAF99",
"/	c #BAAC97",
"(	c #B9AB94",
"_	c #B7A992",
":	c #948A79",
"<	c #B6A890",
"[	c #B4A68E",
"}	c #B3A58D",
"|	c #B1A38B",
"1	c #AFA18A",
"2	c #ADA089",
"3	c #AC9D87",
"4	c #A99C86",
"5	c #A89A85",
"6	c #A69984",
"7	c #A59883",
"8	c #A39782",
"9	c #A19581",
"0	c #A09480",
"a	c #9F937F",
"b	c #9C917D",
"c	c #9B907D",
"d	c #998E7C",
"e	c #988D7B",
"f	c #776F64",
"g	c #AEA089",
"h	c #AA9D87",
"i	c #A79A84",
"j	c #A49783",
"k	c #A39681",
"l	c #9E927E",
"m	c #978C7A",
"n	c #968B79",
"o	c #938977",
"p	c #928877",
"q	c #716B61",
"r	c #A99B86",
"s	c #9D917E",
"t	c #908676",
"u	c #8F8675",
"v	c #8E8474",
"w	c #8D8373",
"x	c #6B665D",
"y	c #827A6C",
"z	c #80786B",
"A	c #7E776A",
"B	c #7D7669",
"C	c #7C7468",
"D	c #7B7467",
"E	c #797266",
"F	c #787166",
"G	c #777165",
"H	c #756E64",
"I	c #746D63",
"J	c #736C62",
"K	c #726B61",
"L	c #706A60",
"M	c #6E685F",
"N	c #6D685F",
"O	c #6A655C",
"P	c #68645C",
"Q	c #67635A",
"....................++@#",
"++++++++++++++++++++++@#",
"$$$$$$$$$$$$$$$$$$$$$$$#",
"$%&*=-;>,')!~~{]^^/(__:#",
"$;_<[}|1234567890abcdef#",
"$)|g2h4i6jk0alccemn:opq#",
"${ri7890ascdemn:optuvwx#",
"$yzABCDEFGHIJKLLMNxxOPQ#",
"########################"};
