/* XPM */
static char * bottom_inactive_xpm[] = {
"89 9 6 1",
" 	c None",
".	c #000000",
"+	c #D8D8D8",
"@	c #DBDBDB",
"#	c #C0C0C0",
"$	c #A6A6A6",
".........................................................................................",
"+++++++++++++++++++++++++++++++++++++++++++++++++++++++++++++++++++++++++++++++++++++++++",
".........................................................................................",
"@@@@@@@@@@@@@@@@@@@@@@@@@@@@@@@@@@@@@@@@@@@@@@@@@@@@@@@@@@@@@@@@@@@@@@@@@@@@@@@@@@@@@@@@@",
"#########################################################################################",
"#########################################################################################",
"#########################################################################################",
"$$$$$$$$$$$$$$$$$$$$$$$$$$$$$$$$$$$$$$$$$$$$$$$$$$$$$$$$$$$$$$$$$$$$$$$$$$$$$$$$$$$$$$$$$",
"........................................................................................."};
