/* XPM */
static char * hide_inactive_xpm[] = {
"11 12 63 1",
" 	c None",
".	c #BBBBBB",
"+	c #BDBDBD",
"@	c #BEBEBE",
"#	c #6D6D7D",
"$	c #6E6E96",
"%	c #6E6E84",
"&	c #ABABAC",
"*	c #C1C1C1",
"=	c #000123",
"-	c #02035F",
";	c #010236",
">	c #77777A",
",	c #C2C2C2",
"'	c #363643",
")	c #D6D4E6",
"!	c #D3D2E4",
"~	c #D2D3E4",
"{	c #C9C8D9",
"]	c #555560",
"^	c #636366",
"/	c #C6C6C6",
"(	c #404042",
"_	c #E5E5E5",
":	c #CCCCCB",
"<	c #CCCCCA",
"[	c #B9B9BA",
"}	c #404044",
"|	c #646363",
"1	c #C9C9C9",
"2	c #404040",
"3	c #E6E5E5",
"4	c #CCCCCC",
"5	c #B9B9BB",
"6	c #656565",
"7	c #E6E6E5",
"8	c #B9B9B8",
"9	c #666667",
"0	c #CFCFCF",
"a	c #E6E6E6",
"b	c #B9B9B7",
"c	c #40413F",
"d	c #686968",
"e	c #D3D3D3",
"f	c #3C3C3C",
"g	c #CFCFCE",
"h	c #B1B1B1",
"i	c #A5A5A5",
"j	c #414141",
"k	c #6A6A6A",
"l	c #D6D6D6",
"m	c #171717",
"n	c #474747",
"o	c #373737",
"p	c #1B1B1B",
"q	c #6D6D6D",
"r	c #DADADA",
"s	c #A2A2A2",
"t	c #797979",
"u	c #747474",
"v	c #737373",
"w	c #939393",
"x	c #DDDDDD",
"...........",
"+++++++++@@",
"#$$$$$$%&**",
"=------;>,,",
"')!~~~{]^//",
"(_::<<[}|11",
"2344::5(644",
"27<<::82900",
"2a:<::bcdee",
"fghhhhijkll",
"mnooooopqrr",
"stuvvvuuwxx"};
