/* XPM */
static char * hide_pressed_xpm[] = {
"11 12 58 1",
" 	c None",
".	c #BBBBBB",
"+	c #BEBEBE",
"@	c #BDBDBD",
"#	c #C1C1C1",
"$	c #C2C2C2",
"%	c #6D6D7D",
"&	c #6E6E96",
"*	c #6E6E84",
"=	c #ABABAC",
"-	c #C6C6C6",
";	c #000123",
">	c #02035F",
",	c #010236",
"'	c #77777A",
")	c #C9C9C9",
"!	c #363643",
"~	c #D6D4E6",
"{	c #D3D2E4",
"]	c #D2D3E4",
"^	c #C9C8D9",
"/	c #555560",
"(	c #636366",
"_	c #CCCCCC",
":	c #404042",
"<	c #E5E5E5",
"[	c #CCCCCB",
"}	c #CCCCCA",
"|	c #B9B9BA",
"1	c #404044",
"2	c #646363",
"3	c #CFCFCF",
"4	c #404040",
"5	c #E6E5E5",
"6	c #B9B9BB",
"7	c #656565",
"8	c #D3D3D3",
"9	c #E6E6E5",
"0	c #B9B9B8",
"a	c #666667",
"b	c #D6D6D6",
"c	c #E6E6E6",
"d	c #B9B9B7",
"e	c #40413F",
"f	c #686968",
"g	c #DADADA",
"h	c #3C3C3C",
"i	c #CFCFCE",
"j	c #B1B1B1",
"k	c #A5A5A5",
"l	c #414141",
"m	c #6A6A6A",
"n	c #DDDDDD",
"o	c #171717",
"p	c #474747",
"q	c #373737",
"r	c #1B1B1B",
"s	c #6D6D6D",
"...........",
"+@@@@@@@@@+",
"###########",
"$%&&&&&&*=$",
"-;>>>>>>,'-",
")!~{]]]^/()",
"_:<[[}}|12_",
"345__[[6:73",
"849}}[[04a8",
"b4c[}[[defb",
"ghijjjjklmg",
"nopqqqqqrsn"};
