/* XPM */
static char * maximize_pressed_xpm[] = {
"11 12 47 1",
" 	c None",
".	c #BBBBBB",
"+	c #BEBEBE",
"@	c #C1C1C1",
"#	c #00011E",
"$	c #02035F",
"%	c #010130",
"&	c #C2C2C2",
"*	c #17172C",
"=	c #6D6CA4",
"-	c #66669B",
";	c #262643",
">	c #C6C6C6",
",	c #363540",
"'	c #EEEDF1",
")	c #DDDCDE",
"!	c #C5C5C6",
"~	c #42424A",
"{	c #C9C9C9",
"]	c #E7E6E9",
"^	c #CCCCCC",
"/	c #B0B0B1",
"(	c #36373C",
"_	c #CCCCCB",
":	c #CCCCCA",
"<	c #B1B1B3",
"[	c #37373A",
"}	c #CFCFCF",
"|	c #373739",
"1	c #D3D3D3",
"2	c #B1B1B0",
"3	c #373737",
"4	c #D6D6D6",
"5	c #B1B1AF",
"6	c #373736",
"7	c #DADADA",
"8	c #32323C",
"9	c #D1D1D3",
"0	c #B0B0B0",
"a	c #B1B1B1",
"b	c #A0A0A0",
"c	c #383838",
"d	c #DDDDDD",
"e	c #13131D",
"f	c #4A4A4D",
"g	c #363636",
"h	c #181818",
"...........",
"+++++++++++",
"@#$$$$$$$$%",
"&*=======-;",
">,'))))))!~",
"{,]^^^^^^/(",
"^,]^___::<[",
"},]^^^^__<|",
"1,]^_::__23",
"4,]^^::^:56",
"7890aaaaabc",
"def3g33333h"};
