/* XPM */
static char * top_right_active_xpm[] = {
"48 18 64 1",
" 	c None",
".	c #000000",
"+	c #ADADAD",
"@	c #ACACAC",
"#	c #3D3D3D",
"$	c #CCCCCC",
"%	c #E0E0E0",
"&	c #979797",
"*	c #909090",
"=	c #8C8C8C",
"-	c #939393",
";	c #AEAEAE",
">	c #B8B8B8",
",	c #888888",
"'	c #4A4A4A",
")	c #575757",
"!	c #636363",
"~	c #A1A1A1",
"{	c #B0B0B0",
"]	c #BBBBBB",
"^	c #7E7E7E",
"/	c #323232",
"(	c #7F7F7F",
"_	c #A6A6A6",
":	c #B9B9B9",
"<	c #BEBEBE",
"[	c #757575",
"}	c #9B9B9B",
"|	c #B7B7B7",
"1	c #C1C1C1",
"2	c #9C9C9C",
"3	c #C2C2C2",
"4	c #9F9F9F",
"5	c #BCBCBC",
"6	c #C6C6C6",
"7	c #BFBFBF",
"8	c #C9C9C9",
"9	c #A4A4A4",
"0	c #C4C4C4",
"a	c #CFCFCF",
"b	c #A9A9A9",
"c	c #C8C8C8",
"d	c #D3D3D3",
"e	c #ABABAB",
"f	c #CBCBCB",
"g	c #D6D6D6",
"h	c #8E8E8E",
"i	c #D4D4D4",
"j	c #D7D7D7",
"k	c #DADADA",
"l	c #818181",
"m	c #646464",
"n	c #6A6A6A",
"o	c #BDBDBD",
"p	c #D2D2D2",
"q	c #DDDDDD",
"r	c #B4B4B4",
"s	c #D5D5D5",
"t	c #8A8A8A",
"u	c #A3A3A3",
"v	c #E1E1E1",
"w	c #DBDBDB",
"x	c #F1F1F1",
"y	c #D8D8D8",
"................................................",
"++@#@$%%%%%%%%%%%%%%%%%%%%%%%%%%%%%%%%%%%%%%%%&.",
"**=#-;>>>>>>>>>>>>>>>>>>>>>>>>>>>>>>>>>>>>>>>>&.",
",')!~{]]]]]]]]]]]]]]]]]]]]]]]]]]]]]]]]]]]]]]]]&.",
"^/(_:]<<<<<<<<<<<<<<<<<<<<<<<<<<<<<<<<<<<<<<<<&.",
"[/}|111111111111111111111111111111111111111111&.",
"[/2>333333333333333333333333333333333333333333&.",
"[/45666666666666666666666666666666666666666666&.",
"[/~7888888888888888888888888888888888888888888&.",
"[/93$$$$$$$$$$$$$$$$$$$$$$$$$$$$$$$$$$$$$$$$$$&.",
"[/90aaaaaaaaaaaaaaaaaaaaaaaaaaaaaaaaaaaaaaaaaa&.",
"[/bcdddddddddddddddddddddddddddddddddddddddddd&.",
"[/efgggggggggggggggggggggggggggggggggggggggggg&.",
"[/h]ijkkkkkkkkkkkkkkkkkkkkkkkkkkkkkkkkkkkkkkkk&.",
"lmmnopqqqqqqqqqqqqqqqqqqqqqqqqqqqqqqqqqqqqqqqq&.",
"*4&#rs%%%%%%%%%%%%%%%%%%%%%%%%%%%%%%%%%%%%%%%%&.",
"^(=#tu@@@@@@@@@@@@@@@@@@@@@@@@@@@@@@@@@@@@@@vw&.",
"............................................xy&."};
