/* XPM */
static char * close_pressed_xpm[] = {
"18 18 6 1",
" 	c None",
".  c #FFCB00 s active_color_1",
"+  c #E68600 s active_shadow_1",
"@  c #FFFF66 s active_hilight_1",
"$  c #FFE346 s active_hilight_2",
"#  c #FFAF13 s active_shadow_2",
"..................",
"..................",
"..+++++++++++++...",
"..+@@@@@@@@@@@@@..",
"..+@######..$.+@..",
"..+@#####..$.$+@..",
"..+@###.#...$$+@..",
"..+@##.#...$.$+@..",
"..+@###...$.$$+@..",
"..+@#....$.$$$+@..",
"..+@....$.$$$$+@..",
"..+@.$.$.$$$$@+@..",
"..+@$.$.$$$$@$+@..",
"..+@.$$$$$$@$@+@..",
"..+@+++++++++++@..",
"..+@@@@@@@@@@@@@..",
"..................",
".................."};
