/* XPM */
static char * hide_inactive_xpm[] = {
"17 16 159 2",
"  	c None",
". 	c #9C9B9B",
"+ 	c #9E9E9C",
"@ 	c #9E9D9B",
"# 	c #A1A09E",
"$ 	c #8B8A88",
"% 	c #5D5C5B",
"& 	c #434343",
"* 	c #3A3A3A",
"= 	c #414140",
"- 	c #4E4D4D",
"; 	c #6A6A6A",
"> 	c #909090",
", 	c #A5A5A4",
"' 	c #A2A1A0",
") 	c #A4A3A3",
"! 	c #A4A3A1",
"~ 	c #A2A3A1",
"{ 	c #A5A4A3",
"] 	c #9E9F9D",
"^ 	c #5C5B5B",
"/ 	c #454545",
"( 	c #9D9C9C",
"_ 	c #C9C9C9",
": 	c #D3D3D3",
"< 	c #C5C5C5",
"[ 	c #AFAFAF",
"} 	c #8A8A89",
"| 	c #626262",
"1 	c #757474",
"2 	c #A3A2A2",
"3 	c #A2A3A0",
"4 	c #A6A5A4",
"5 	c #A5A5A3",
"6 	c #4B4A4A",
"7 	c #7C7C7C",
"8 	c #F1F1F1",
"9 	c #FCFCFC",
"0 	c #E9E9E9",
"a 	c #D0D0D0",
"b 	c #C3C3C3",
"c 	c #BBBBBB",
"d 	c #B3B3B3",
"e 	c #9B9B9B",
"f 	c #797978",
"g 	c #757473",
"h 	c #9F9D9D",
"i 	c #A2A1A1",
"j 	c #AAABA9",
"k 	c #A8A7A5",
"l 	c #5D5D5C",
"m 	c #7C7C7B",
"n 	c #FDFDFD",
"o 	c #FFFFFF",
"p 	c #F7F7F7",
"q 	c #D7D7D7",
"r 	c #C4C4C4",
"s 	c #BABABA",
"t 	c #B4B4B4",
"u 	c #ADADAD",
"v 	c #A5A5A5",
"w 	c #8E8E8E",
"x 	c #898989",
"y 	c #A8A8A8",
"z 	c #B5B4B6",
"A 	c #9D9C9E",
"B 	c #4A4A4A",
"C 	c #F2F2F2",
"D 	c #333333",
"E 	c #191919",
"F 	c #CCCCCC",
"G 	c #969696",
"H 	c #737373",
"I 	c #8B8A89",
"J 	c #A5A4A5",
"K 	c #BAB9B8",
"L 	c #6A696A",
"M 	c #A0A0A0",
"N 	c #4C4C4C",
"O 	c #959595",
"P 	c #7E7E7E",
"Q 	c #6E6E6E",
"R 	c #ADACAD",
"S 	c #9F9F9C",
"T 	c #C8C8C8",
"U 	c #EAEAEA",
"V 	c #D8D8D8",
"W 	c #919191",
"X 	c #818181",
"Y 	c #535353",
"Z 	c #ACABAC",
"` 	c #3C3C3C",
" .	c #D4D4D4",
"..	c #D1D1D1",
"+.	c #9C9C9C",
"@.	c #8D8D8D",
"#.	c #7D7D7D",
"$.	c #4D4D4D",
"%.	c #ACABAB",
"&.	c #424242",
"*.	c #979797",
"=.	c #929292",
"-.	c #878787",
";.	c #767676",
">.	c #CCCBCC",
",.	c #ABABAB",
"'.	c #8C8C8C",
").	c #808080",
"!.	c #6B6B6B",
"~.	c #404040",
"{.	c #BBBBBA",
"].	c #B2B2B2",
"^.	c #6F6F6F",
"/.	c #AEAEAE",
"(.	c #565656",
"_.	c #515151",
":.	c #BFBFBF",
"<.	c #B2B1B2",
"[.	c #9B9A9C",
"}.	c #6A6969",
"|.	c #9D9D9D",
"1.	c #636363",
"2.	c #A2A1A2",
"3.	c #B5B3B2",
"4.	c #B2B3B3",
"5.	c #7B7A7B",
"6.	c #7F7E7F",
"7.	c #8F8F8F",
"8.	c #888888",
"9.	c #414141",
"0.	c #656565",
"a.	c #B6B5B6",
"b.	c #B8B8B8",
"c.	c #828082",
"d.	c #7F7F7F",
"e.	c #757575",
"f.	c #686868",
"g.	c #C2C1C3",
"h.	c #B0B1B0",
"i.	c #AEADAE",
"j.	c #B4B3B5",
"k.	c #B1B0B2",
"l.	c #929192",
"m.	c #6C6C6D",
"n.	c #555555",
"o.	c #464646",
"p.	c #525252",
"q.	c #A5A4A6",
"r.	c #A5A4A4",
"s.	c #A8A8A7",
"t.	c #AAA8AB",
"u.	c #A1A09F",
"v.	c #9D9B9C",
"w.	c #A7A6A7",
"x.	c #BBBABA",
"y.	c #BEBEBF",
"z.	c #BFBFBE",
"A.	c #B1B1B1",
"B.	c #AFAEAE",
". + + @ # $ % & * = - ; > , ' ) ! ",
"~ { { ] ^ / ( _ : < [ } | 1 2 3 { ",
"4 5 ) 6 7 8 9 0 a b c d e f g h i ",
"j k l m n o p q r s t u v w f x y ",
"z A B C o D D r s d E D F G H I J ",
"K L M n p D E E t E D N o O P Q R ",
"S = T U V r E E E D N o e W X Y # ",
"Z `  ...r s t E D N F +.G @.#.$.2 ",
"%.&.< b c t E D N N N *.=.-.;./ >.",
",.- [ c t E D N F N N N '.).!.~.{.",
"].^.'.d /.D N o +.*.N N F ;.(._.:.",
"<.[.}.|.v F o e *.=.'.F o 1.` 2.3.",
"4.4.5.6.7.*.O =.@.8.).;.1.9.0.a.v ",
"b.b.].c.d.e.d.X #.;.!.(.` f.g.h.i.",
"j.a.a.k.l.w m.n.$.o.~.p.q.< j.z z ",
"y r.~ s.t.u.v.w.R x.y.z.A.Z Z Z B."};
