/* XPM */
static char * hide_pressed_xpm[] = {
"17 16 172 2",
"  	c None",
". 	c #9C9B9B",
"+ 	c #9E9E9C",
"@ 	c #9E9D9B",
"# 	c #A1A09E",
"$ 	c #8B8A88",
"% 	c #5D5C5B",
"& 	c #434343",
"* 	c #3A3A3A",
"= 	c #414140",
"- 	c #4E4D4D",
"; 	c #6A6A6A",
"> 	c #909090",
", 	c #A5A5A4",
"' 	c #A2A1A0",
") 	c #A4A3A3",
"! 	c #A4A3A1",
"~ 	c #A2A3A1",
"{ 	c #A5A4A3",
"] 	c #9E9F9D",
"^ 	c #5C5B5B",
"/ 	c #343434",
"( 	c #494848",
"_ 	c #5B5B5B",
": 	c #636262",
"< 	c #676767",
"[ 	c #6B6B6A",
"} 	c #6B6B69",
"| 	c #5E5E5E",
"1 	c #757474",
"2 	c #A3A2A2",
"3 	c #A2A3A0",
"4 	c #A6A5A4",
"5 	c #A5A5A3",
"6 	c #4B4A4A",
"7 	c #3E3E3E",
"8 	c #5A5958",
"9 	c #7D7D7D",
"0 	c #B7B6B6",
"a 	c #D0D0D0",
"b 	c #CDCDCD",
"c 	c #BABABA",
"d 	c #9D9D9D",
"e 	c #838382",
"f 	c #777775",
"g 	c #757473",
"h 	c #9F9D9D",
"i 	c #A2A1A1",
"j 	c #AAABA9",
"k 	c #A8A7A5",
"l 	c #5D5D5C",
"m 	c #3D3D3C",
"n 	c #616160",
"o 	c #ACACAB",
"p 	c #F5F5F5",
"q 	c #DEDEDE",
"r 	c #C9C9C9",
"s 	c #BEBEBE",
"t 	c #B6B6B6",
"u 	c #A2A2A2",
"v 	c #898988",
"w 	c #878685",
"x 	c #898989",
"y 	c #A8A8A8",
"z 	c #B5B4B6",
"A 	c #9D9C9E",
"B 	c #393939",
"C 	c #616061",
"D 	c #B1B0B1",
"E 	c #333333",
"F 	c #E9E9E9",
"G 	c #191919",
"H 	c #CCCCCC",
"I 	c #959595",
"J 	c #858585",
"K 	c #949392",
"L 	c #A5A4A5",
"M 	c #BAB9B8",
"N 	c #6A696A",
"O 	c #504F50",
"P 	c #878686",
"Q 	c #F6F6F6",
"R 	c #4C4C4C",
"S 	c #FFFFFF",
"T 	c #989898",
"U 	c #7C7C7C",
"V 	c #969696",
"W 	c #ADACAD",
"X 	c #9F9F9C",
"Y 	c #545453",
"Z 	c #B5B5B4",
"` 	c #9F9F9F",
" .	c #828282",
"..	c #6E6E6D",
"+.	c #ACABAC",
"@.	c #3C3C3C",
"#.	c #616161",
"$.	c #DFDFDF",
"%.	c #CECECE",
"&.	c #A0A0A0",
"*.	c #9B9B9B",
"=.	c #929292",
"-.	c #5B5B5A",
";.	c #ACABAB",
">.	c #424242",
",.	c #696969",
"'.	c #CACACA",
").	c #BFBFBF",
"!.	c #9C9C9C",
"~.	c #8D8D8D",
"{.	c #505050",
"].	c #CCCBCC",
"^.	c #ABABAB",
"/.	c #686867",
"(.	c #BBBBBB",
"_.	c #919191",
":.	c #868686",
"<.	c #737373",
"[.	c #515151",
"}.	c #BBBBBA",
"|.	c #B2B2B2",
"1.	c #6F6F6F",
"2.	c #6E6E6E",
"3.	c #A1A1A1",
"4.	c #626262",
"5.	c #737273",
"6.	c #B2B1B2",
"7.	c #9B9A9C",
"8.	c #666565",
"9.	c #8C8B8C",
"0.	c #A4A4A4",
"a.	c #6D6D6D",
"b.	c #4F4E4F",
"c.	c #AFAEAF",
"d.	c #B5B3B2",
"e.	c #B2B3B3",
"f.	c #7B7A7B",
"g.	c #7F7E7F",
"h.	c #8E8E8E",
"i.	c #999999",
"j.	c #808080",
"k.	c #B6B5B6",
"l.	c #A5A5A5",
"m.	c #B8B8B8",
"n.	c #828082",
"o.	c #908F90",
"p.	c #838383",
"q.	c #4E4E4E",
"r.	c #C2C1C3",
"s.	c #B0B1B0",
"t.	c #AEADAE",
"u.	c #B4B3B5",
"v.	c #B1B0B2",
"w.	c #929192",
"x.	c #979798",
"y.	c #919192",
"z.	c #5C5C5C",
"A.	c #535353",
"B.	c #747475",
"C.	c #B2B1B3",
"D.	c #C5C5C5",
"E.	c #A5A4A4",
"F.	c #A8A8A7",
"G.	c #AAA8AB",
"H.	c #A1A09F",
"I.	c #9D9B9C",
"J.	c #A7A6A7",
"K.	c #BBBABA",
"L.	c #BEBEBF",
"M.	c #BFBFBE",
"N.	c #B1B1B1",
"O.	c #AFAEAE",
". + + @ # $ % & * = - ; > , ' ) ! ",
"~ { { ] ^ / ( _ : < [ } | 1 2 3 { ",
"4 5 ) 6 7 8 9 0 a b c d e f g h i ",
"j k l m n o p p q r s t u v w x y ",
"z A B C D E E F b s G E H I J K L ",
"M N O P Q E G G s G E R S T U V W ",
"X = Y Z Q F G G G E R S ` V  ...# ",
"+.@.#.a $.%.s G E R H &.*.=. .-.2 ",
";.>.,.%.'.).G E R R R !.V ~.U {.].",
"^.- /.(.s G E R H R R R _.:.<.[.}.",
"|.1.2.3.t E R S &.!.R R H 9 4.5.).",
"6.7.8.9.0.H S ` *.V _.H S a.b.c.d.",
"e.e.f.g.h.I i.V =.~.:.9 a.{.j.k.l.",
"m.m.|.n.o.:.9 p. .U <.4.q.J r.s.t.",
"u.k.k.v.w.x.y.<.z.{.A.B.C.D.u.z z ",
"y E.~ F.G.H.I.J.W K.L.M.N.+.+.+.O."};
