/* XPM */
static char * maximize_active_xpm[] = {
"17 16 164 2",
"  	c None",
". 	c #B5B4B5",
"+ 	c #B2B2B1",
"@ 	c #AFAEAC",
"# 	c #B0AFB0",
"$ 	c #989798",
"% 	c #646364",
"& 	c #474746",
"* 	c #3C3C3C",
"= 	c #424242",
"- 	c #515050",
"; 	c #6E6D6D",
"> 	c #989796",
", 	c #ABABA9",
"' 	c #AEADAC",
") 	c #ABABAB",
"! 	c #A09F9E",
"~ 	c #A1A0A0",
"{ 	c #9E9D9C",
"] 	c #5A5B59",
"^ 	c #454444",
"/ 	c #9B9B9A",
"( 	c #C8C8C8",
"_ 	c #D3D3D3",
": 	c #C5C5C5",
"< 	c #AEAEAE",
"[ 	c #888887",
"} 	c #606060",
"| 	c #747473",
"1 	c #A3A2A1",
"2 	c #A6A5A4",
"3 	c #A6A5A5",
"4 	c #B0AFAE",
"5 	c #ADADAC",
"6 	c #4E4E4D",
"7 	c #7D7D7D",
"8 	c #F1F1F1",
"9 	c #FCFCFC",
"0 	c #E9E9E9",
"a 	c #D0D0D0",
"b 	c #C3C3C3",
"c 	c #BBBBBB",
"d 	c #B3B3B3",
"e 	c #9B9B9B",
"f 	c #787777",
"g 	c #767574",
"h 	c #A3A3A0",
"i 	c #A5A5A3",
"j 	c #A8A7A7",
"k 	c #A8A8A8",
"l 	c #5E5E5D",
"m 	c #7C7C7C",
"n 	c #FDFDFD",
"o 	c #FFFFFF",
"p 	c #F7F7F7",
"q 	c #D7D7D7",
"r 	c #C4C4C4",
"s 	c #BABABA",
"t 	c #B4B4B4",
"u 	c #ADADAD",
"v 	c #A5A5A5",
"w 	c #8E8E8E",
"x 	c #7B7B79",
"y 	c #8C8C8A",
"z 	c #A8A7A5",
"A 	c #AAABAB",
"B 	c #969594",
"C 	c #484847",
"D 	c #191919",
"E 	c #333333",
"F 	c #CCCCCC",
"G 	c #969696",
"H 	c #737373",
"I 	c #8D8D8D",
"J 	c #A9AAAA",
"K 	c #ACABAB",
"L 	c #616161",
"M 	c #9D9D9D",
"N 	c #4C4C4C",
"O 	c #959595",
"P 	c #7E7E7E",
"Q 	c #6B6B6B",
"R 	c #A8A7A8",
"S 	c #A8A8A7",
"T 	c #444544",
"U 	c #C9CAC9",
"V 	c #EAEAEA",
"W 	c #D8D8D8",
"X 	c #919191",
"Y 	c #818181",
"Z 	c #535353",
"` 	c #A4A4A1",
" .	c #A5A4A4",
"..	c #3A3A3A",
"+.	c #D4D4D4",
"@.	c #D1D1D1",
"#.	c #AFAFAF",
"$.	c #A6A6A6",
"%.	c #A1A1A1",
"&.	c #4D4D4D",
"*.	c #434343",
"=.	c #C6C6C6",
"-.	c #AAAAAA",
";.	c #9C9C9C",
">.	c #878787",
",.	c #767676",
"'.	c #454545",
").	c #C1C2C1",
"!.	c #A0A09F",
"~.	c #4A4A4A",
"{.	c #AFAEAE",
"].	c #989898",
"^.	c #808080",
"/.	c #404040",
"(.	c #676666",
"_.	c #8A8989",
":.	c #565656",
"<.	c #505050",
"[.	c #BFBEBE",
"}.	c #B6B5B6",
"|.	c #9F9E9F",
"1.	c #6A696A",
"2.	c #636363",
"3.	c #A4A5A4",
"4.	c #B8B9B8",
"5.	c #B4B3B5",
"6.	c #7E7D7E",
"7.	c #908F90",
"8.	c #979797",
"9.	c #929292",
"0.	c #888888",
"a.	c #414141",
"b.	c #6C6C6C",
"c.	c #C9C7CA",
"d.	c #B8B6B8",
"e.	c #B2B1B1",
"f.	c #AEADAD",
"g.	c #7F7E7E",
"h.	c #7D7C7C",
"i.	c #757575",
"j.	c #7F7F7F",
"k.	c #666565",
"l.	c #B8B7B5",
"m.	c #A7A7A5",
"n.	c #B0B1B1",
"o.	c #ADAEAE",
"p.	c #919091",
"q.	c #8B8A8C",
"r.	c #6A6A6B",
"s.	c #555555",
"t.	c #464646",
"u.	c #515151",
"v.	c #9E9E9F",
"w.	c #B8B7B9",
"x.	c #A4A3A4",
"y.	c #ACABAC",
"z.	c #A4A4A4",
"A.	c #AAA9AA",
"B.	c #ADAEAD",
"C.	c #B9BAB9",
"D.	c #BCBDBB",
"E.	c #BDBEBC",
"F.	c #B1B1B1",
"G.	c #AAA8A9",
". + + @ # $ % & * = - ; > , ' ' ) ",
"! ~ ! { ] ^ / ( _ : < [ } | 1 2 3 ",
"+ 4 5 6 7 8 9 0 a b c d e f g h i ",
"j k l m n o p q r s t u v w x y z ",
"A B C 8 o D D D E E E E F G H I J ",
"K L M n p D E E N N N N o O P Q R ",
"S T U V W E o o o o F N o X Y Z ` ",
" ...+.@.r E o #.) $.%.N o I 7 &.! ",
"# *.=.b c N o -.$.%.;.E o >.,.'.).",
"!.~.{.c t N F v %.;.].E o ^.Q /.{.",
" .(._.d < N N N N E E D o ,.:.<.[.",
"}.|.1.M v F o o o o o o o 2.* 3.4.",
"5.5.6.^.7.8.O 9.I 0.^.,.2.a.b.c.d.",
"# e.f.g.h.i.j.Y 7 ,.Q :.* k.l.m.k ",
"5.n.n.o.p.q.r.s.&.t./.u.v.w. .x.x.",
"A ' ' k y.z.|.A.B.C.D.E.F.f.A k G."};
