/* XPM */
static char * title_3_active_xpm[] = {
"10 20 31 1",
" 	c None",
".	c #FFFFFF",
"+	c #E0DFDF",
"@	c #DFDFDE",
"#	c #E0DFDE",
"$	c #DFDEDD",
"%	c #DFDEDE",
"&	c #4D4D4D",
"*	c #C4C4C4",
"=	c #9F9F9F",
"-	c #B4B4B4",
";	c #B3B3B3",
">	c #929292",
",	c #919191",
"'	c #ABABAB",
")	c #AAAAAA",
"!	c #8E8E8E",
"~	c #A7A7A7",
"{	c #A6A6A6",
"]	c #8B8B8B",
"^	c #8A8A8A",
"/	c #A1A1A1",
"(	c #878787",
"_	c #9B9B9B",
":	c #808080",
"<	c #8D8D8D",
"[	c #696969",
"}	c #686868",
"|	c #DEDEDE",
"1	c #79787A",
"2	c #000000",
"..........",
"+++@@@+#$%",
"&&&&&&&&&&",
"**********",
"==========",
"-------;;;",
">>>>>>>>,,",
"'')))'''''",
"!!!!!!!!!!",
"~{{{{{{{{{",
"]]^^^^^^^^",
"//////////",
"((((((((((",
"__________",
"::::::::::",
"!!!!!!!!<<",
"[[[[[[[[}}",
"||||||||||",
"1111111111",
"2222222222"};
