/* XPM */
static char * title_1_inactive_xpm[] = {
"6 20 48 1",
" 	c None",
".	c #FFFFFF",
"+	c #DFDEDE",
"@	c #E0DFDE",
"#	c #E0E0DF",
"$	c #A4A3A3",
"%	c #A4A4A3",
"&	c #A5A4A3",
"*	c #A6A5A3",
"=	c #A6A6A4",
"-	c #A8A7A5",
";	c #A8A8A5",
">	c #A1A09E",
",	c #A2A09F",
"'	c #A2A1A0",
")	c #A8A8A8",
"!	c #A9A8A9",
"~	c #AAAAAA",
"{	c #ABAAAB",
"]	c #ACABAC",
"^	c #AAABA9",
"/	c #BAB9BA",
"(	c #BAB9B9",
"_	c #BAB9B8",
":	c #A1A09F",
"<	c #9F9E9E",
"[	c #BCBCBB",
"}	c #BCBCBC",
"|	c #BDBCBC",
"1	c #BEBCBE",
"2	c #A9A8AA",
"3	c #AAA8AA",
"4	c #AAA8AB",
"5	c #ABABAB",
"6	c #A4A3A4",
"7	c #A3A2A2",
"8	c #A2A1A2",
"9	c #A2A1A1",
"0	c #B0B1B0",
"a	c #B0B0B0",
"b	c #B0B0AF",
"c	c #AFAEAE",
"d	c #B2B3B3",
"e	c #B2B2B2",
"f	c #B2B1B2",
"g	c #B0AFB1",
"h	c #79787A",
"i	c #000000",
"......",
"+++@##",
"$$$%&&",
"&&*=-;",
">>>,''",
"))!~{]",
"^^^^^^",
"///(__",
">>>>::",
"<<<<<<",
"[[}|11",
")))234",
"]]]]55",
"555555",
"666789",
"00abcc",
"dddeff",
"gggggg",
"hhhhhh",
"iiiiii"};
