/* XPM */
static char * close_pressed_xpm[] = {
"16 19 191 2",
"  	c None",
". 	c #4D4B4A",
"+ 	c #303031",
"@ 	c #F6F1ED",
"# 	c #F0ECE5",
"$ 	c #C2BEB9",
"% 	c #66642D",
"& 	c #959187",
"* 	c #ECEAE1",
"= 	c #E5CECA",
"- 	c #E5CFCC",
"; 	c #EEEBE3",
"> 	c #CAC6C0",
", 	c #646141",
"' 	c #C1BDB9",
") 	c #E9E4DC",
"! 	c #BCB9B2",
"~ 	c #7E7F41",
"{ 	c #FDFB5F",
"] 	c #ABA32D",
"^ 	c #84350E",
"/ 	c #B53D00",
"( 	c #B63C00",
"_ 	c #AB4411",
": 	c #7D8140",
"< 	c #FBEC52",
"[ 	c #736529",
"} 	c #BBB8B1",
"| 	c #E2DED4",
"1 	c #B6B3AB",
"2 	c #7D7E40",
"3 	c #FDFA71",
"4 	c #FEEF4D",
"5 	c #FBE733",
"6 	c #7F7919",
"7 	c #993000",
"8 	c #B53800",
"9 	c #6E2B20",
"0 	c #F8EB6C",
"a 	c #FFD84D",
"b 	c #F8CE27",
"c 	c #6D5B21",
"d 	c #B5B2AA",
"e 	c #DCD7CB",
"f 	c #62603C",
"g 	c #FCF750",
"h 	c #FEEB48",
"i 	c #FEE532",
"j 	c #FEE130",
"k 	c #F9DA2D",
"l 	c #5E6212",
"m 	c #672614",
"n 	c #EDE167",
"o 	c #FFD557",
"p 	c #FECE27",
"q 	c #FDCA23",
"r 	c #EEBB1F",
"s 	c #4F4017",
"t 	c #D6D1C3",
"u 	c #ADAA9E",
"v 	c #867924",
"w 	c #FCDE2F",
"x 	c #FEDD2E",
"y 	c #FEDB2C",
"z 	c #FED729",
"A 	c #F5CE29",
"B 	c #E2CC57",
"C 	c #FFD45F",
"D 	c #FEC927",
"E 	c #FEC722",
"F 	c #F7BE1E",
"G 	c #A57D14",
"H 	c #847F70",
"I 	c #D0CBBA",
"J 	c #954725",
"K 	c #7E7414",
"L 	c #FCD429",
"M 	c #FED327",
"N 	c #FED026",
"O 	c #FECD25",
"P 	c #FECA32",
"Q 	c #FEC527",
"R 	c #FEC120",
"S 	c #F7BA1D",
"T 	c #A97E12",
"U 	c #6E3A2D",
"V 	c #C9C5B2",
"W 	c #BB4008",
"X 	c #922B00",
"Y 	c #877314",
"Z 	c #FEC822",
"` 	c #FEC420",
" .	c #FEC11F",
"..	c #FEBD1D",
"+.	c #F8B61A",
"@.	c #AB7D11",
"#.	c #731A00",
"$.	c #C94A1D",
"%.	c #C2C0A9",
"&.	c #BE3E08",
"*.	c #C33700",
"=.	c #7D2301",
"-.	c #C19F25",
";.	c #FEC222",
">.	c #FEBC1D",
",.	c #FEB91A",
"'.	c #FEB719",
").	c #E09E15",
"!.	c #591100",
"~.	c #D33400",
"{.	c #CB471A",
"].	c #BCBAA1",
"^.	c #BE4B1E",
"/.	c #B63300",
"(.	c #772C2C",
"_.	c #FDCD64",
":.	c #FEBA29",
"<.	c #FEB518",
"[.	c #FEB217",
"}.	c #FEAF16",
"|.	c #FAA914",
"1.	c #815D09",
"2.	c #B02A00",
"3.	c #CA532F",
"4.	c #B6B398",
"5.	c #B3664F",
"6.	c #6B2720",
"7.	c #F9CB6E",
"8.	c #FEB64B",
"9.	c #FEB218",
"0.	c #FCAC15",
"a.	c #FCAA13",
"b.	c #FEA711",
"c.	c #FEA410",
"d.	c #F99D0E",
"e.	c #645205",
"f.	c #AD695C",
"g.	c #B0AC90",
"h.	c #AFAB8F",
"i.	c #645C40",
"j.	c #EEC161",
"k.	c #FFB454",
"l.	c #FEAD19",
"m.	c #F9A712",
"n.	c #BC7C0E",
"o.	c #A0680A",
"p.	c #FC9F0E",
"q.	c #FE9D0C",
"r.	c #FD9A0A",
"s.	c #EE8C08",
"t.	c #594221",
"u.	c #AAA78B",
"v.	c #A9A587",
"w.	c #A39F82",
"x.	c #654F1D",
"y.	c #FBAE39",
"z.	c #FEA919",
"A.	c #F9A310",
"B.	c #BC790C",
"C.	c #681100",
"D.	c #951E00",
"E.	c #A56407",
"F.	c #FC9508",
"G.	c #FC9107",
"H.	c #E88305",
"I.	c #57340B",
"J.	c #99977A",
"K.	c #A29F7F",
"L.	c #828166",
"M.	c #65440F",
"N.	c #F0990E",
"O.	c #BD750A",
"P.	c #631202",
"Q.	c #D93100",
"R.	c #DD3000",
"S.	c #8A1F05",
"T.	c #A75D02",
"U.	c #E77D03",
"V.	c #5A3608",
"W.	c #828066",
"X.	c #9C9976",
"Y.	c #7D7B5E",
"Z.	c #51350B",
"`.	c #564B31",
" +	c #979B70",
".+	c #A46862",
"++	c #A46863",
"@+	c #999B72",
"#+	c #646048",
"$+	c #462909",
"%+	c #96946E",
". . . . . . . . . . . . . . . . ",
"+ + + + + + + + + + + + + + + + ",
"@ @ @ @ @ @ @ @ @ @ @ @ @ @ @ @ ",
"# # # $ % & * = - ; > , ' # # # ",
") ) ! ~ { ] ^ / ( _ : < [ } ) ) ",
"| 1 2 3 4 5 6 7 8 9 0 a b c d | ",
"e f g h i j k l m n o p q r s e ",
"t u v w x y z A B C D E F G H t ",
"I I J K L M N O P Q R S T U I I ",
"V V W X Y q Z `  ...+.@.#.$.V V ",
"%.%.&.*.=.-.;.>.,.'.).!.~.{.%.%.",
"].].^./.(._.:.<.[.}.|.1.2.3.].].",
"4.4.5.6.7.8.9.0.a.b.c.d.e.f.4.4.",
"g.h.i.j.k.l.m.n.o.p.q.r.s.t.u.g.",
"v.w.x.y.z.A.B.C.D.E.F.G.H.I.J.v.",
"K.K.L.M.N.O.P.Q.R.S.T.U.V.W.K.K.",
"X.X.X.Y.Z.`. +.+++@+#+$+Y.X.X.X.",
"%+%+%+%+%+%+%+%+%+%+%+%+%+%+%+%+",
"+ + + + + + + + + + + + + + + + "};
