/* XPM */
static char * bottom_left_active_xpm[] = {
"4 5 7 1",
" 	c None",
".	c #000000",
"+	c #DFDFDF",
"@	c #CECECE",
"#	c #838383",
"$	c #EAEAEA",
"%	c #969696",
".+@#",
".+@$",
".+@@",
".%##",
" ..."};
