/* XPM */
static char * maximize_inactive_xpm[] = {
"18 22 178 2",
"  	c None",
". 	c #23262A",
"+ 	c #0D0D0F",
"@ 	c #020202",
"# 	c #010102",
"$ 	c #0C0C0E",
"% 	c #212328",
"& 	c #0D0901",
"* 	c #6C4C07",
"= 	c #B47E0B",
"- 	c #D1930C",
"; 	c #C98E0B",
"> 	c #9F7009",
", 	c #563D04",
"' 	c #070500",
") 	c #1F2125",
"! 	c #16171A",
"~ 	c #422E04",
"{ 	c #E5A212",
"] 	c #FEB51A",
"^ 	c #FEB417",
"/ 	c #FAB010",
"( 	c #F1A90E",
"_ 	c #E5A20D",
": 	c #D99A0C",
"< 	c #B37F09",
"[ 	c #291D02",
"} 	c #111215",
"| 	c #412E04",
"1 	c #F8B016",
"2 	c #FFBC31",
"3 	c #FFC040",
"4 	c #FFBE39",
"5 	c #FFB720",
"6 	c #F9AF10",
"7 	c #ECA60E",
"8 	c #DF9D0C",
"9 	c #D1940B",
"0 	c #BB8509",
"a 	c #251B02",
"b 	c #1D1F22",
"c 	c #464A54",
"d 	c #0C0901",
"e 	c #E19E0E",
"f 	c #FFB925",
"g 	c #E2AD42",
"h 	c #DAAD57",
"i 	c #DAAA4B",
"j 	c #DAA02C",
"k 	c #D99810",
"l 	c #CC8F0B",
"m 	c #E29F0D",
"n 	c #D4960B",
"o 	c #C68C09",
"p 	c #9D7007",
"q 	c #040300",
"r 	c #684906",
"s 	c #FFB927",
"t 	c #D9A641",
"u 	c #FEE5B5",
"v 	c #FEE3AD",
"w 	c #FFDE9A",
"x 	c #FED989",
"y 	c #F7D486",
"z 	c #F0CF86",
"A 	c #B88308",
"B 	c #3D2C02",
"C 	c #AC790A",
"D 	c #F5AC0F",
"E 	c #FEB519",
"F 	c #DBA22E",
"G 	c #FFE0A3",
"H 	c #FFDF9F",
"I 	c #FFDB91",
"J 	c #FCD787",
"K 	c #F6D386",
"L 	c #EFCE85",
"M 	c #DAA837",
"N 	c #C48B09",
"O 	c #B68207",
"P 	c #6F5004",
"Q 	c #060708",
"R 	c #C78C0B",
"S 	c #EEA70E",
"T 	c #F8AF0F",
"U 	c #DA9A13",
"V 	c #FFDB8F",
"W 	c #FFC344",
"X 	c #FBC03F",
"Y 	c #F4B939",
"Z 	c #D09C2B",
"` 	c #ECCC85",
" .	c #D6A536",
"..	c #C08909",
"+.	c #B38007",
"@.	c #845F04",
"#.	c #000000",
"$.	c #BF870A",
"%.	c #E4A10D",
"&.	c #EDA70E",
"*.	c #CB8F0C",
"=.	c #FAD687",
"-.	c #F7BF48",
";.	c #F0A90E",
">.	c #E8A30D",
",.	c #C2890A",
"'.	c #E9CA85",
").	c #D2A33A",
"!.	c #BB8508",
"~.	c #AE7C06",
"{.	c #805B04",
"].	c #976B08",
"^.	c #DA9A0C",
"/.	c #E19F0C",
"(.	c #BF860A",
"_.	c #F3D186",
":.	c #D0A036",
"<.	c #C68B0B",
"[.	c #C3890A",
"}.	c #BB8409",
"|.	c #E4C784",
"1.	c #CA9D35",
"2.	c #B48007",
"3.	c #A87806",
"4.	c #644803",
"5.	c #050606",
"6.	c #513904",
"7.	c #CE920A",
"8.	c #D8990B",
"9.	c #EACB85",
"0.	c #E7C984",
"a.	c #E4C684",
"b.	c #DFC384",
"c.	c #C39833",
"d.	c #AB7A06",
"e.	c #A07305",
"f.	c #312301",
"g.	c #1B1C20",
"h.	c #A97808",
"i.	c #C78D09",
"j.	c #CA8F0A",
"k.	c #CC900A",
"l.	c #D3A131",
"m.	c #D2A43A",
"n.	c #CD9F35",
"o.	c #C89B34",
"p.	c #C29733",
"q.	c #B9902E",
"r.	c #A27405",
"s.	c #7D5A03",
"t.	c #020100",
"u.	c #271C02",
"v.	c #B17E07",
"w.	c #BC8608",
"x.	c #BE8708",
"y.	c #BD8608",
"z.	c #A97906",
"A.	c #A17405",
"B.	c #8F6604",
"C.	c #181101",
"D.	c #181A1D",
"E.	c #231901",
"F.	c #956A06",
"G.	c #AF7D07",
"H.	c #AD7B06",
"I.	c #A47505",
"J.	c #9E7105",
"K.	c #7C5903",
"L.	c #0D0E10",
"M.	c #3A2A02",
"N.	c #6A4C03",
"O.	c #7F5B04",
"P.	c #7C5904",
"Q.	c #624603",
"R.	c #4E4D4B",
"S.	c #121111",
"T.	c #0F0F0E",
"U.	c #494746",
"                                    ",
"                                    ",
"                                    ",
"                                    ",
"                                    ",
"            . + @ # $ %             ",
"        . & * = - ; > , ' )         ",
"      ! ~ { ] ^ / ( _ : < [ }       ",
"    . | 1 2 3 4 5 6 7 8 9 0 a b     ",
"  c d e f g h i j k l m n o p q     ",
"  . r 6 s t u v w x y z n o A B b   ",
"  + C D E F G H I J K L M N O P Q   ",
"  @ R S T U V W X Y Z `  ...+.@.#.  ",
"  # $.%.&.*.=.-.;.>.,.'.).!.~.{.#.  ",
"  $ ].^./.(._.:.<.[.}.|.1.2.3.4.5.  ",
"  % 6.7.n 8.` ` 9.0.a.b.c.d.e.f.g.  ",
"    ' h.i.j.k.l.m.n.o.p.q.r.s.t.    ",
"    ) u.v.w.x.y.!.O v.z.A.B.C.D.    ",
"      } E.F.G.G.H.z.I.J.K.C.L.      ",
"          q M.N.O.P.Q.f.t.          ",
"            R.S.#.#.T.U.            ",
"                                    "};
