/* XPM */
static char * top_left_active_xpm[] = {
"6 22 9 1",
" 	c None",
".	c #000000",
"+	c #F5F5F5",
"@	c #DFDFDF",
"#	c #CECECE",
"$	c #7C7C7C",
"%	c #838383",
"&	c #494E58",
"*	c #555B66",
" .....",
".+@@@@",
".@####",
".@#$%%",
".@#%&&",
".@#%**",
".@#%&&",
".@#%**",
".@#%&&",
".@#%**",
".@#%&&",
".@#%**",
".@#%&&",
".@#%**",
".@#%&&",
".@#%**",
".@#%&&",
".@#%**",
".@#%&&",
".@#%**",
".@#%&&",
".@#%**"};
