/* XPM */
static char * close_inactive_xpm[] = {
"12 12 4 1",
" 	c None",
".	c #ADB161",
"+	c #AEB262",
"@	c #8A8E4E",
".++.........",
"++....+.....",
"...@.++.@...",
"..@@@..@@@..",
"...@@@@@@...",
"....@@@@....",
"....@@@@....",
"...@@@@@@...",
"..@@@..@@@..",
"...@....@...",
"............",
"............"};
