/* XPM */
static char * hide_inactive_xpm[] = {
"12 12 3 1",
" 	c None",
".	c #ADB161",
"+	c #8A8E4E",
"............",
"............",
"............",
"............",
"............",
"...++++++...",
"...++++++...",
"....++++....",
".....++.....",
"............",
"............",
"............"};
