/* XPM */
static char * maximize_active_xpm[] = {
"12 12 3 1",
" 	c None",
".	c #D6DE7A",
"+	c #AEB262",
"............",
"............",
"....++++++..",
".....+++++..",
"......++++..",
".......+++..",
"........++..",
".........+..",
"............",
"............",
"............",
"............"};
